<svg width="60" height="60" viewBox="0 0 60 60" fill="none" xmlns="http://www.w3.org/2000/svg">
<mask id="path-1-inside-1" fill="white">
<path fill-rule="evenodd" clip-rule="evenodd" d="M12.25 25.0041V22.5C12.2966 22.5 12.3431 22.5003 12.3893 22.5008C12.4262 22.5003 12.4631 22.5 12.5 22.5V22.5026C15.0007 22.5547 16.9733 23.393 18.5362 24.9387C19.7507 26.1399 20.5703 27.5237 21.6367 29.855C22.4084 31.542 24.2531 32.5528 28 32.7518V35.2482C23.4223 35.0052 20.6004 33.5993 19.3633 30.895C18.4147 28.8213 17.7191 27.6467 16.7782 26.7162C15.6605 25.6108 14.2824 25.0293 12.3952 25.0011C9.68214 25.0569 7.5 27.2736 7.5 30V50H17.5V37.8023H20V52.5H5V30C5 25.9415 8.22359 22.636 12.25 22.5041L12.25 25.0041ZM12.5 17.5C14.5711 17.5 16.25 15.8211 16.25 13.75C16.25 11.6789 14.5711 10 12.5 10C10.4289 10 8.75 11.6789 8.75 13.75C8.75 15.8211 10.4289 17.5 12.5 17.5ZM12.5 20C9.04822 20 6.25 17.2018 6.25 13.75C6.25 10.2982 9.04822 7.5 12.5 7.5C15.9518 7.5 18.75 10.2982 18.75 13.75C18.75 17.2018 15.9518 20 12.5 20ZM47.9429 25.0041L47.9429 22.5041C52.001 22.636 55.25 25.9415 55.25 30V52.5H40.1318V37.8023H42.6515V50H52.7303V30C52.7303 27.2736 50.531 25.0569 47.7966 25.0011C45.8945 25.0293 44.5056 25.6108 43.379 26.7162C42.4307 27.6467 41.7296 28.8213 40.7735 30.895C39.5267 33.5993 36.6137 35.0052 32 35.2482V32.7518C35.7764 32.5528 37.7044 31.542 38.4822 29.855C39.557 27.5237 40.383 26.1399 41.6072 24.9387C43.1824 23.393 45.1705 22.5547 47.6909 22.5026V22.5C47.7281 22.5 47.7653 22.5003 47.8024 22.5008C47.8491 22.5003 47.8959 22.5 47.9429 22.5V25.0041ZM47.6909 17.5C49.7783 17.5 51.4705 15.8211 51.4705 13.75C51.4705 11.6789 49.7783 10 47.6909 10C45.6035 10 43.9114 11.6789 43.9114 13.75C43.9114 15.8211 45.6035 17.5 47.6909 17.5ZM47.6909 20C44.2119 20 41.3917 17.2018 41.3917 13.75C41.3917 10.2982 44.2119 7.5 47.6909 7.5C51.1699 7.5 53.9902 10.2982 53.9902 13.75C53.9902 17.2018 51.1699 20 47.6909 20Z"/>
</mask>
<path fill-rule="evenodd" clip-rule="evenodd" d="M12.25 25.0041V22.5C12.2966 22.5 12.3431 22.5003 12.3893 22.5008C12.4262 22.5003 12.4631 22.5 12.5 22.5V22.5026C15.0007 22.5547 16.9733 23.393 18.5362 24.9387C19.7507 26.1399 20.5703 27.5237 21.6367 29.855C22.4084 31.542 24.2531 32.5528 28 32.7518V35.2482C23.4223 35.0052 20.6004 33.5993 19.3633 30.895C18.4147 28.8213 17.7191 27.6467 16.7782 26.7162C15.6605 25.6108 14.2824 25.0293 12.3952 25.0011C9.68214 25.0569 7.5 27.2736 7.5 30V50H17.5V37.8023H20V52.5H5V30C5 25.9415 8.22359 22.636 12.25 22.5041L12.25 25.0041ZM12.5 17.5C14.5711 17.5 16.25 15.8211 16.25 13.75C16.25 11.6789 14.5711 10 12.5 10C10.4289 10 8.75 11.6789 8.75 13.75C8.75 15.8211 10.4289 17.5 12.5 17.5ZM12.5 20C9.04822 20 6.25 17.2018 6.25 13.75C6.25 10.2982 9.04822 7.5 12.5 7.5C15.9518 7.5 18.75 10.2982 18.75 13.75C18.75 17.2018 15.9518 20 12.5 20ZM47.9429 25.0041L47.9429 22.5041C52.001 22.636 55.25 25.9415 55.25 30V52.5H40.1318V37.8023H42.6515V50H52.7303V30C52.7303 27.2736 50.531 25.0569 47.7966 25.0011C45.8945 25.0293 44.5056 25.6108 43.379 26.7162C42.4307 27.6467 41.7296 28.8213 40.7735 30.895C39.5267 33.5993 36.6137 35.0052 32 35.2482V32.7518C35.7764 32.5528 37.7044 31.542 38.4822 29.855C39.557 27.5237 40.383 26.1399 41.6072 24.9387C43.1824 23.393 45.1705 22.5547 47.6909 22.5026V22.5C47.7281 22.5 47.7653 22.5003 47.8024 22.5008C47.8491 22.5003 47.8959 22.5 47.9429 22.5V25.0041ZM47.6909 17.5C49.7783 17.5 51.4705 15.8211 51.4705 13.75C51.4705 11.6789 49.7783 10 47.6909 10C45.6035 10 43.9114 11.6789 43.9114 13.75C43.9114 15.8211 45.6035 17.5 47.6909 17.5ZM47.6909 20C44.2119 20 41.3917 17.2018 41.3917 13.75C41.3917 10.2982 44.2119 7.5 47.6909 7.5C51.1699 7.5 53.9902 10.2982 53.9902 13.75C53.9902 17.2018 51.1699 20 47.6909 20Z" fill="#161A1D"/>
<path d="M12.25 22.5V22.2H11.95V22.5H12.25ZM12.3893 22.5008L12.3859 22.8009L12.3937 22.8008L12.3893 22.5008ZM12.5 22.5H12.8V22.2H12.5V22.5ZM12.5 22.5026H12.2V22.7964L12.4937 22.8025L12.5 22.5026ZM18.5362 24.9387L18.3252 25.152L18.5362 24.9387ZM21.6367 29.855L21.9095 29.7302L21.6367 29.855ZM28 32.7518H28.3V32.4673L28.0159 32.4522L28 32.7518ZM28 35.2482L27.9841 35.5478L28.3 35.5646V35.2482H28ZM19.3633 30.895L19.0905 31.0198L19.3633 30.895ZM16.7782 26.7162L16.9892 26.5029L16.9892 26.5029L16.7782 26.7162ZM12.3952 25.0011L12.3996 24.7009L12.389 24.7011L12.3952 25.0011ZM7.5 50H7.2V50.3H7.5V50ZM17.5 50V50.3H17.8V50H17.5ZM17.5 37.8023V37.5023H17.2V37.8023H17.5ZM20 37.8023H20.3V37.5023H20V37.8023ZM20 52.5V52.8H20.3V52.5H20ZM5 52.5H4.7V52.8H5V52.5ZM12.25 22.5041L12.55 22.5041L12.55 22.1941L12.2402 22.2042L12.25 22.5041ZM47.9429 22.5041L47.9526 22.2042L47.6429 22.1942L47.6429 22.5041L47.9429 22.5041ZM55.25 52.5V52.8H55.55V52.5H55.25ZM40.1318 52.5H39.8318V52.8H40.1318V52.5ZM40.1318 37.8023V37.5023H39.8318V37.8023H40.1318ZM42.6515 37.8023H42.9515V37.5023H42.6515V37.8023ZM42.6515 50H42.3515V50.3H42.6515V50ZM52.7303 50V50.3H53.0303V50H52.7303ZM47.7966 25.0011L47.8027 24.701L47.7921 24.7011L47.7966 25.0011ZM43.379 26.7162L43.1689 26.5021L43.1689 26.5021L43.379 26.7162ZM40.7735 30.895L41.046 31.0206L40.7735 30.895ZM32 35.2482H31.7V35.5645L32.0158 35.5478L32 35.2482ZM32 32.7518L31.9842 32.4522L31.7 32.4672V32.7518H32ZM38.4822 29.855L38.2098 29.7294L38.2098 29.7294L38.4822 29.855ZM41.6072 24.9387L41.8173 25.1528L41.6072 24.9387ZM47.6909 22.5026L47.6971 22.8025L47.9909 22.7964V22.5026H47.6909ZM47.6909 22.5V22.2H47.3909V22.5H47.6909ZM47.8024 22.5008L47.7981 22.8009L47.8059 22.8008L47.8024 22.5008ZM47.9429 22.5H48.2429V22.2H47.9429V22.5ZM12.55 25.0041V22.5H11.95V25.0041H12.55ZM12.25 22.8C12.2955 22.8 12.3408 22.8003 12.3859 22.8008L12.3928 22.2008C12.3454 22.2003 12.2978 22.2 12.25 22.2V22.8ZM12.3937 22.8008C12.4291 22.8003 12.4645 22.8 12.5 22.8V22.2C12.4616 22.2 12.4233 22.2003 12.385 22.2008L12.3937 22.8008ZM12.2 22.5V22.5026H12.8V22.5H12.2ZM12.4937 22.8025C14.923 22.8532 16.8206 23.664 18.3252 25.152L18.7471 24.7254C17.1259 23.1221 15.0784 22.2563 12.5063 22.2027L12.4937 22.8025ZM18.3252 25.152C19.5008 26.3146 20.3022 27.6589 21.3639 29.9798L21.9095 29.7302C20.8383 27.3886 20.0007 25.9651 18.7471 24.7254L18.3252 25.152ZM21.3639 29.9798C22.208 31.825 24.206 32.8507 27.9841 33.0513L28.0159 32.4522C24.3003 32.2549 22.6089 31.2591 21.9095 29.7302L21.3639 29.9798ZM27.7 32.7518V35.2482H28.3V32.7518H27.7ZM28.0159 34.9487C23.4817 34.7079 20.804 33.3232 19.6361 30.7702L19.0905 31.0198C20.3968 33.8753 23.3629 35.3024 27.9841 35.5478L28.0159 34.9487ZM19.6361 30.7702C18.6842 28.6894 17.9704 27.4733 16.9892 26.5029L16.5673 26.9295C17.4678 27.8201 18.1451 28.9532 19.0905 31.0198L19.6361 30.7702ZM16.9892 26.5029C15.8109 25.3377 14.3563 24.7303 12.3996 24.7011L12.3907 25.301C14.2084 25.3282 15.51 25.8839 16.5673 26.9295L16.9892 26.5029ZM12.389 24.7011C9.51306 24.7603 7.2 27.11 7.2 30H7.8C7.8 27.4372 9.85122 25.3535 12.4013 25.301L12.389 24.7011ZM7.2 30V50H7.8V30H7.2ZM7.5 50.3H17.5V49.7H7.5V50.3ZM17.8 50V37.8023H17.2V50H17.8ZM17.5 38.1023H20V37.5023H17.5V38.1023ZM19.7 37.8023V52.5H20.3V37.8023H19.7ZM20 52.2H5V52.8H20V52.2ZM5.3 52.5V30H4.7V52.5H5.3ZM5.3 30C5.3 26.1039 8.39465 22.9305 12.2598 22.8039L12.2402 22.2042C8.05253 22.3414 4.7 25.7791 4.7 30H5.3ZM11.95 22.5041L11.95 25.0041L12.55 25.0041L12.55 22.5041L11.95 22.5041ZM12.5 17.8C14.7368 17.8 16.55 15.9868 16.55 13.75H15.95C15.95 15.6554 14.4054 17.2 12.5 17.2V17.8ZM16.55 13.75C16.55 11.5132 14.7368 9.7 12.5 9.7V10.3C14.4054 10.3 15.95 11.8446 15.95 13.75H16.55ZM12.5 9.7C10.2632 9.7 8.45 11.5132 8.45 13.75H9.05C9.05 11.8446 10.5946 10.3 12.5 10.3V9.7ZM8.45 13.75C8.45 15.9868 10.2632 17.8 12.5 17.8V17.2C10.5946 17.2 9.05 15.6554 9.05 13.75H8.45ZM12.5 19.7C9.21391 19.7 6.55 17.0361 6.55 13.75H5.95C5.95 17.3675 8.88253 20.3 12.5 20.3V19.7ZM6.55 13.75C6.55 10.4639 9.21391 7.8 12.5 7.8V7.2C8.88253 7.2 5.95 10.1325 5.95 13.75H6.55ZM12.5 7.8C15.7861 7.8 18.45 10.4639 18.45 13.75H19.05C19.05 10.1325 16.1175 7.2 12.5 7.2V7.8ZM18.45 13.75C18.45 17.0361 15.7861 19.7 12.5 19.7V20.3C16.1175 20.3 19.05 17.3675 19.05 13.75H18.45ZM48.2429 25.0041L48.2429 22.5041L47.6429 22.5041L47.6429 25.0041L48.2429 25.0041ZM47.9331 22.8039C51.8321 22.9306 54.95 26.1061 54.95 30H55.55C55.55 25.777 52.1699 22.3413 47.9526 22.2042L47.9331 22.8039ZM54.95 30V52.5H55.55V30H54.95ZM55.25 52.2H40.1318V52.8H55.25V52.2ZM40.4318 52.5V37.8023H39.8318V52.5H40.4318ZM40.1318 38.1023H42.6515V37.5023H40.1318V38.1023ZM42.3515 37.8023V50H42.9515V37.8023H42.3515ZM42.6515 50.3H52.7303V49.7H42.6515V50.3ZM53.0303 50V30H52.4303V50H53.0303ZM53.0303 30C53.0303 27.1078 50.6979 24.7602 47.8027 24.7011L47.7904 25.301C50.3641 25.3535 52.4303 27.4394 52.4303 30H53.0303ZM47.7921 24.7011C45.8213 24.7303 44.3561 25.3372 43.1689 26.5021L43.5891 26.9304C44.6551 25.8844 45.9677 25.3282 47.801 25.301L47.7921 24.7011ZM43.1689 26.5021C42.18 27.4724 41.4605 28.6885 40.5011 30.7694L41.046 31.0206C41.9987 28.9541 42.6814 27.821 43.5891 26.9304L43.1689 26.5021ZM40.5011 30.7694C39.3247 33.3209 36.5582 34.7077 31.9842 34.9487L32.0158 35.5478C36.6693 35.3026 39.7287 33.8776 41.046 31.0206L40.5011 30.7694ZM32.3 35.2482V32.7518H31.7V35.2482H32.3ZM32.0158 33.0513C35.8187 32.851 37.9031 31.8276 38.7546 29.9806L38.2098 29.7294C37.5057 31.2564 35.7341 32.2546 31.9842 32.4522L32.0158 33.0513ZM38.7546 29.9806C39.8246 27.6598 40.6323 26.3155 41.8173 25.1528L41.3971 24.7245C40.1337 25.9642 39.2895 27.3876 38.2098 29.7294L38.7546 29.9806ZM41.8173 25.1528C43.334 23.6645 45.2474 22.8532 47.6971 22.8025L47.6847 22.2027C45.0935 22.2562 43.0307 23.1215 41.3971 24.7245L41.8173 25.1528ZM47.9909 22.5026V22.5H47.3909V22.5026H47.9909ZM47.6909 22.8C47.7267 22.8 47.7624 22.8003 47.7981 22.8008L47.8067 22.2008C47.7682 22.2003 47.7296 22.2 47.6909 22.2V22.8ZM47.8059 22.8008C47.8513 22.8003 47.897 22.8 47.9429 22.8V22.2C47.8947 22.2 47.8468 22.2003 47.799 22.2008L47.8059 22.8008ZM47.6429 22.5V25.0041H48.2429V22.5H47.6429ZM47.6909 17.8C49.9418 17.8 51.7705 15.989 51.7705 13.75H51.1705C51.1705 15.6532 49.6148 17.2 47.6909 17.2V17.8ZM51.7705 13.75C51.7705 11.511 49.9418 9.7 47.6909 9.7V10.3C49.6148 10.3 51.1705 11.8468 51.1705 13.75H51.7705ZM47.6909 9.7C45.4401 9.7 43.6114 11.511 43.6114 13.75H44.2114C44.2114 11.8468 45.767 10.3 47.6909 10.3V9.7ZM43.6114 13.75C43.6114 15.989 45.4401 17.8 47.6909 17.8V17.2C45.767 17.2 44.2114 15.6532 44.2114 13.75H43.6114ZM47.6909 19.7C44.3754 19.7 41.6917 17.0339 41.6917 13.75H41.0917C41.0917 17.3697 44.0485 20.3 47.6909 20.3V19.7ZM41.6917 13.75C41.6917 10.4661 44.3754 7.8 47.6909 7.8V7.2C44.0485 7.2 41.0917 10.1303 41.0917 13.75H41.6917ZM47.6909 7.8C51.0064 7.8 53.6902 10.4661 53.6902 13.75H54.2902C54.2902 10.1303 51.3333 7.2 47.6909 7.2V7.8ZM53.6902 13.75C53.6902 17.0339 51.0064 19.7 47.6909 19.7V20.3C51.3333 20.3 54.2902 17.3697 54.2902 13.75H53.6902Z" fill="white" mask="url(#path-1-inside-1)"/>
</svg>
