<svg width="80" height="80" viewBox="0 0 80 80" fill="none" xmlns="http://www.w3.org/2000/svg">
<mask id="path-1-inside-1" fill="white">
<path fill-rule="evenodd" clip-rule="evenodd" d="M19.1001 64.3496V52.3496H20.6001V62.0158L20.0187 63.6954C19.569 64.9946 20.5339 66.3496 21.9087 66.3496H21.1001C19.9955 66.3496 19.1001 65.4542 19.1001 64.3496ZM66.1001 35.3496V31.3496C66.1001 30.245 65.2047 29.3496 64.1001 29.3496H57.1001V30.8496H64.1001C64.3762 30.8496 64.6001 31.0735 64.6001 31.3496V35.3496H66.1001Z"/>
</mask>
<path fill-rule="evenodd" clip-rule="evenodd" d="M19.1001 64.3496V52.3496H20.6001V62.0158L20.0187 63.6954C19.569 64.9946 20.5339 66.3496 21.9087 66.3496H21.1001C19.9955 66.3496 19.1001 65.4542 19.1001 64.3496ZM66.1001 35.3496V31.3496C66.1001 30.245 65.2047 29.3496 64.1001 29.3496H57.1001V30.8496H64.1001C64.3762 30.8496 64.6001 31.0735 64.6001 31.3496V35.3496H66.1001Z" fill="#C4C4C4"/>
<path d="M19.1001 52.3496V50.8496H17.6001V52.3496H19.1001ZM20.6001 52.3496H22.1001V50.8496H20.6001V52.3496ZM20.6001 62.0158L22.0176 62.5065L22.1001 62.2681V62.0158H20.6001ZM20.0187 63.6954L21.4362 64.1861L21.4362 64.1861L20.0187 63.6954ZM66.1001 35.3496V36.8496H67.6001V35.3496H66.1001ZM57.1001 29.3496V27.8496H55.6001V29.3496H57.1001ZM57.1001 30.8496H55.6001V32.3496H57.1001V30.8496ZM64.6001 35.3496H63.1001V36.8496H64.6001V35.3496ZM17.6001 52.3496V64.3496H20.6001V52.3496H17.6001ZM20.6001 50.8496H19.1001V53.8496H20.6001V50.8496ZM22.1001 62.0158V52.3496H19.1001V62.0158H22.1001ZM19.1826 61.5251L18.6012 63.2047L21.4362 64.1861L22.0176 62.5065L19.1826 61.5251ZM18.6012 63.2047C17.8142 65.4783 19.5028 67.8496 21.9087 67.8496V64.8496C21.565 64.8496 21.3238 64.5108 21.4362 64.1861L18.6012 63.2047ZM21.1001 67.8496H21.9087V64.8496H21.1001V67.8496ZM17.6001 64.3496C17.6001 66.2826 19.1671 67.8496 21.1001 67.8496V64.8496C20.824 64.8496 20.6001 64.6258 20.6001 64.3496H17.6001ZM67.6001 35.3496V31.3496H64.6001V35.3496H67.6001ZM67.6001 31.3496C67.6001 29.4166 66.0331 27.8496 64.1001 27.8496V30.8496C64.3762 30.8496 64.6001 31.0735 64.6001 31.3496H67.6001ZM64.1001 27.8496H57.1001V30.8496H64.1001V27.8496ZM55.6001 29.3496V30.8496H58.6001V29.3496H55.6001ZM57.1001 32.3496H64.1001V29.3496H57.1001V32.3496ZM64.1001 32.3496C63.5478 32.3496 63.1001 31.9019 63.1001 31.3496H66.1001C66.1001 30.245 65.2047 29.3496 64.1001 29.3496V32.3496ZM63.1001 31.3496V35.3496H66.1001V31.3496H63.1001ZM66.1001 33.8496H64.6001V36.8496H66.1001V33.8496Z" fill="#313840" mask="url(#path-1-inside-1)"/>
<mask id="path-3-inside-2" fill="white">
<path fill-rule="evenodd" clip-rule="evenodd" d="M61.5242 35.3496C60.6718 35.3496 59.9131 35.8899 59.6343 36.6954L58.3693 40.3496H29.5242C28.6718 40.3496 27.9131 40.8899 27.6343 41.6954L20.0189 63.6954C19.5692 64.9946 20.534 66.3496 21.9088 66.3496H64.676C65.5284 66.3496 66.2871 65.8093 66.566 65.0038L74.1813 43.0038C74.631 41.7047 73.6662 40.3496 72.2914 40.3496H71.3693L72.1813 38.0038C72.631 36.7047 71.6662 35.3496 70.2914 35.3496H61.5242Z"/>
</mask>
<path d="M59.6343 36.6954L61.0517 37.1861L61.0517 37.1861L59.6343 36.6954ZM58.3693 40.3496V41.8496H59.4374L59.7868 40.8403L58.3693 40.3496ZM27.6343 41.6954L29.0517 42.1861L29.0517 42.1861L27.6343 41.6954ZM20.0189 63.6954L21.4364 64.1861L21.4364 64.1861L20.0189 63.6954ZM66.566 65.0038L65.1485 64.5132L65.1485 64.5132L66.566 65.0038ZM74.1813 43.0038L75.5988 43.4945L75.5988 43.4945L74.1813 43.0038ZM71.3693 40.3496L69.9519 39.8589L69.2628 41.8496H71.3693V40.3496ZM72.1813 38.0038L73.5988 38.4945L73.5988 38.4945L72.1813 38.0038ZM61.0517 37.1861C61.1214 36.9847 61.3111 36.8496 61.5242 36.8496V33.8496C60.0325 33.8496 58.7047 34.7951 58.2168 36.2047L61.0517 37.1861ZM59.7868 40.8403L61.0517 37.1861L58.2168 36.2047L56.9519 39.8589L59.7868 40.8403ZM29.5242 41.8496H58.3693V38.8496H29.5242V41.8496ZM29.0517 42.1861C29.1214 41.9847 29.3111 41.8496 29.5242 41.8496V38.8496C28.0325 38.8496 26.7047 39.7951 26.2168 41.2047L29.0517 42.1861ZM21.4364 64.1861L29.0517 42.1861L26.2168 41.2047L18.6014 63.2047L21.4364 64.1861ZM21.9088 64.8496C21.5651 64.8496 21.3239 64.5108 21.4364 64.1861L18.6014 63.2047C17.8144 65.4783 19.5029 67.8496 21.9088 67.8496V64.8496ZM64.676 64.8496H21.9088V67.8496H64.676V64.8496ZM65.1485 64.5132C65.0788 64.7145 64.8891 64.8496 64.676 64.8496V67.8496C66.1677 67.8496 67.4955 66.9041 67.9834 65.4945L65.1485 64.5132ZM72.7639 42.5132L65.1485 64.5132L67.9834 65.4945L75.5988 43.4945L72.7639 42.5132ZM72.2914 41.8496C72.6351 41.8496 72.8763 42.1884 72.7639 42.5132L75.5988 43.4945C76.3858 41.221 74.6973 38.8496 72.2914 38.8496V41.8496ZM71.3693 41.8496H72.2914V38.8496H71.3693V41.8496ZM70.7639 37.5132L69.9519 39.8589L72.7868 40.8403L73.5988 38.4945L70.7639 37.5132ZM70.2914 36.8496C70.6351 36.8496 70.8763 37.1884 70.7639 37.5132L73.5988 38.4945C74.3858 36.221 72.6973 33.8496 70.2914 33.8496V36.8496ZM61.5242 36.8496H70.2914V33.8496H61.5242V36.8496Z" fill="#313840" mask="url(#path-3-inside-2)"/>
<path fill-rule="evenodd" clip-rule="evenodd" d="M20.25 15.1027C20.25 13.9317 21.2379 13 22.421 13H42.9572C43.531 13 44.0764 13.2174 44.4927 13.6199L44.494 13.6211L55.5449 24.4531C55.6509 24.4973 55.7177 24.5759 55.7495 24.6194C55.8085 24.7002 55.8455 24.7933 55.8681 24.8596C55.9084 24.9775 55.9319 25.0974 55.9403 25.1438L55.95 25.1773V35.302L55.3703 34.7975C55.0572 34.5251 54.7025 34.2592 54.3177 34.0119L54.1569 33.9086V26.0889H43.1948C42.7125 26.0889 42.2982 25.7077 42.2982 25.2129V21.0134V14.756H22.421C22.2014 14.756 22.045 14.9244 22.045 15.1047V15.5839V24.7H20.25V15.1027ZM44.0934 15.7046V21.4946V24.3329H52.8965L52.2248 23.6745L44.0934 15.7046ZM19.1001 34.0998L18.5713 33.723L18.5719 33.7223L19.1001 34.0998ZM23.072 29.948C23.0908 29.9254 23.1101 29.9028 23.1298 29.8803L23.201 29.9512L23.1995 29.9527L23.1973 29.9548L23.1946 29.9571L23.19 29.9608C23.19 29.9608 23.1831 29.9659 23.1748 29.9701C23.1716 29.9716 23.1601 29.9773 23.1439 29.9796C23.1373 29.9805 23.1233 29.9814 23.1071 29.9777C23.0937 29.9746 23.0787 29.9684 23.065 29.9564L23.072 29.948ZM23.3984 29.6256C23.374 29.6439 23.3502 29.6632 23.3267 29.6833C23.3532 29.7173 23.3935 29.7208 23.4032 29.721C23.413 29.7212 23.4214 29.7199 23.4271 29.7186L23.4044 29.6347L23.3984 29.6256ZM23.5199 25.2501C23.0802 25.2493 22.471 25.2483 21.844 25.4573C21.1373 25.6929 20.5549 26.1325 19.9686 26.7188C19.4796 27.2078 18.405 28.5591 17.3489 29.9187C16.4661 31.0552 15.5271 32.2884 14.8015 33.2502H11.1C10.1356 33.2502 9.14947 33.6965 8.42139 34.3336C7.66313 34.997 7 36.0325 7 37.3502V39.7502H5V43.8502C5 44.707 5.12824 45.6655 5.72561 46.4122C6.399 47.2539 7.34501 47.4502 8.1 47.4502H12.4071C13.2378 49.5023 15.2497 50.9502 17.6 50.9502C19.9503 50.9502 21.9622 49.5023 22.7929 47.4502H24.1963L24.8963 45.7502H23.1859C23.1953 45.618 23.2 45.4847 23.2 45.3502C23.2 45.1786 23.1923 45.0089 23.1772 44.8412C22.92 41.9869 20.5212 39.7502 17.6 39.7502C14.6788 39.7502 12.28 41.9869 12.0228 44.8412C12.0077 45.0089 12 45.1786 12 45.3502C12 45.4847 12.0047 45.618 12.0141 45.7502H8.1C7.61597 45.7502 7.27664 45.6297 7.05309 45.3502C6.8248 45.0649 6.7 44.5935 6.7 43.8502V41.4502H8.7V37.3502C8.7 36.6357 9.057 36.0363 9.54085 35.6129C10.0266 35.1879 10.629 34.9502 11.1 34.9502H15.65L15.68 34.9102C16.4298 33.9105 17.6044 32.361 18.6915 30.9615C19.7809 29.559 20.7763 28.3153 21.1707 27.9209C21.6653 27.4263 22.0274 27.1881 22.3816 27.0701C22.7385 26.9511 23.0965 26.9502 23.6 26.9502H34.6C35.5985 26.9502 36.5604 26.952 37.5293 27.9209C38.3311 28.7227 42.8667 32.9248 45.0322 34.9237L45.0558 34.9454L45.0876 34.9494C46.4215 35.1161 49.4824 35.5489 51.0757 35.9472C52.6867 36.3499 54.2834 37.4062 54.8146 39.376L54.8345 39.45H56.5747L56.5499 39.3298C56.3031 38.1313 55.7641 37.1274 55.0257 36.3274C54.018 35.2358 52.7169 34.6052 51.4881 34.298C49.9727 33.9191 47.3141 33.5275 45.8106 33.3286C43.5228 31.215 39.46 27.4475 38.7314 26.7188C37.2615 25.249 35.6834 25.2497 34.657 25.2502L23.6001 25.2502L23.5199 25.2501ZM20.0119 31.3761C20.4252 30.8063 20.853 30.2212 21.2036 29.7522C21.5295 29.3161 21.8441 28.904 21.999 28.7491L22.0464 28.7015L22.0507 28.6971C22.2498 28.4964 22.5098 28.2343 22.8937 28.1063C23.0936 28.0397 23.2909 28.0186 23.4694 28.0092C23.6404 28.0002 23.8468 28.0002 24.0792 28.0002H24.0792L33.6768 28.0002C34.3588 28.0001 34.9195 28 35.3647 28.0743C35.9006 28.1636 36.3162 28.3643 36.701 28.7491C37.1144 29.1626 40.1813 32.2281 41.6442 33.4472L43.4477 34.9502H31.2V39.45H29.5V34.9502H17.4505L17.5425 34.8211C18.3624 33.6705 19.1824 32.5199 20.0119 31.3761ZM23.4454 29.7169C23.4174 29.741 23.3494 29.8029 23.2026 29.9496C23.1986 29.954 23.1819 29.9725 23.1489 30.0123C23.1113 30.0575 23.063 30.1178 23.0041 30.193C22.8867 30.3431 22.7371 30.5401 22.5652 30.77C22.222 31.2292 21.7998 31.8066 21.3881 32.3742C21.1691 32.6762 20.9536 32.9747 20.7552 33.2502H29.5V29.7002H24.1C23.8408 29.7002 23.6796 29.7005 23.5587 29.7068C23.5018 29.7098 23.4665 29.7137 23.4454 29.7169ZM31.2 29.7002V33.2502H38.8864C37.4165 31.8688 35.7925 30.2448 35.5042 29.9564L35.5033 29.9556L35.499 29.9512C35.4378 29.89 35.3877 29.8506 35.3292 29.8214C35.27 29.7918 35.1966 29.7697 35.0853 29.7511C34.7969 29.7031 34.3832 29.7002 33.6 29.7002H31.2ZM17.6 41.4502C15.4461 41.4502 13.7 43.1963 13.7 45.3502C13.7 45.3919 13.7007 45.4335 13.7019 45.4748C13.7677 47.571 15.4878 49.2502 17.6 49.2502C19.7238 49.2502 21.4511 47.5525 21.499 45.4403C21.4997 45.4104 21.5 45.3803 21.5 45.3502C21.5 43.1963 19.7539 41.4502 17.6 41.4502Z" fill="url(#paint0_linear)"/>
<defs>
<linearGradient id="paint0_linear" x1="30.7634" y1="19.2961" x2="43.023" y2="32.0361" gradientUnits="userSpaceOnUse">
<stop stop-color="#D55B17"/>
<stop offset="1" stop-color="#D99227"/>
</linearGradient>
</defs>
</svg>
