<svg width="60" height="60" viewBox="0 0 60 60" fill="none" xmlns="http://www.w3.org/2000/svg">
<g clip-path="url(#clip0)">
<rect x="13.7" y="13.7" width="27.6" height="4.6" stroke="#313840" stroke-width="1.4"/>
<rect x="33.3" y="6.3" width="22.4" height="48.4" fill="white" stroke="#313840" stroke-width="1.4"/>
<rect x="4.3" y="50.0676" width="51.4" height="4.58352" fill="white" stroke="#313840" stroke-width="1.4"/>
<rect x="46.3001" y="13.2995" width="6.4" height="29.4" rx="1.7" stroke="#313840" stroke-width="1.4"/>
<line x1="47.0001" y1="29.2994" x2="52.0001" y2="29.2994" stroke="#313840" stroke-width="1.4"/>
<line x1="47.0001" y1="23.2994" x2="52.0001" y2="23.2994" stroke="#313840" stroke-width="1.4"/>
<line x1="47.0001" y1="35.2994" x2="52.0001" y2="35.2994" stroke="#313840" stroke-width="1.4"/>
<path fill-rule="evenodd" clip-rule="evenodd" d="M14.2947 31.7266L14.2947 13H7.00035L7.00035 35.0442C7.00012 35.0604 7 35.0766 7 35.0929C7 35.1092 7.00012 35.1254 7.00035 35.1416V36.0592C7.00035 37.3847 8.07486 38.4592 9.40035 38.4592H10.359L10.3663 38.4592H16.9206C18.473 38.4592 19.78 37.4083 20.169 35.9791H23.2497V34.5791H20.2479C20.0006 32.9638 18.6051 31.7266 16.9206 31.7266H14.2947ZM8.4 35.0929C8.4 35.0804 8.40012 35.0679 8.40035 35.0555L8.40035 14.4H12.8947L12.8947 33.1266H16.9206C18.0065 33.1266 18.8869 34.0069 18.8869 35.0929C18.8869 36.1788 18.0066 37.0592 16.9206 37.0592H10.3663L10.359 37.0592H9.40035C8.84806 37.0592 8.40035 36.6115 8.40035 36.0592V35.1303C8.40012 35.1179 8.4 35.1054 8.4 35.0929Z" fill="#313840"/>
</g>
<defs>
<clipPath id="clip0">
<rect width="60" height="60" fill="white"/>
</clipPath>
</defs>
</svg>
