<svg width="60" height="60" viewBox="0 0 60 60" fill="none" xmlns="http://www.w3.org/2000/svg">
<g clip-path="url(#clip0)">
<rect x="4.3" y="6.3" width="50.4" height="46.4" stroke="#313840" stroke-width="1.4"/>
<line x1="5" y1="13.3" x2="54.2524" y2="13.3" stroke="#313840" stroke-width="1.4"/>
<line x1="5" y1="39.0383" x2="54.2524" y2="39.0383" stroke="#313840" stroke-width="1.4"/>
<line x1="15.7" y1="14" x2="15.7" y2="39" stroke="#313840" stroke-width="1.4"/>
<line x1="21.7" y1="39" x2="21.7" y2="52" stroke="#313840" stroke-width="1.4"/>
<path fill-rule="evenodd" clip-rule="evenodd" d="M37.4401 24L40.5001 18.8916L49.5934 34.0723H38.9999V35C38.9999 35.5523 38.5522 36 37.9999 36H51.3254C52.0952 36 52.5763 35.1968 52.1914 34.5542L41.3661 16.4819C40.9812 15.8394 40.019 15.8394 39.6341 16.4819L35.1307 24H37.4401Z" fill="#313840"/>
<path fill-rule="evenodd" clip-rule="evenodd" d="M29 26.0002V34.0002H37V26.0002H29ZM28 24.0002C27.4477 24.0002 27 24.448 27 25.0002V35.0002C27 35.5525 27.4477 36.0002 28 36.0002H38C38.5523 36.0002 39 35.5525 39 35.0002V25.0002C39 24.448 38.5523 24.0002 38 24.0002H28Z" fill="#313840"/>
<line x1="26" y1="29.7" x2="18" y2="29.7" stroke="#313840" stroke-width="1.4"/>
<line x1="21.418" y1="33.7" x2="18.282" y2="33.7" stroke="#313840" stroke-width="1.4"/>
<line x1="26.1357" y1="33.7" x2="22.9998" y2="33.7" stroke="#313840" stroke-width="1.4"/>
<line x1="21.9707" y1="25.7" x2="18.2814" y2="25.7" stroke="#313840" stroke-width="1.4"/>
<line x1="26" y1="25.7" x2="23" y2="25.7" stroke="#313840" stroke-width="1.4"/>
<line x1="34.8838" y1="17.7" x2="21.9712" y2="17.7" stroke="#313840" stroke-width="1.4"/>
<line x1="11.4561" y1="21.7" x2="7.21334" y2="21.7" stroke="#313840" stroke-width="1.4"/>
<line x1="14.0386" y1="47.5252" x2="12.3784" y2="47.5252" stroke="#313840" stroke-width="1.4"/>
<line x1="19.0195" y1="44.0203" x2="17.3593" y2="44.0203" stroke="#313840" stroke-width="1.4"/>
<line x1="10.7188" y1="44.0203" x2="7.2139" y2="44.0203" stroke="#313840" stroke-width="1.4"/>
<line x1="19.2036" y1="47.5252" x2="15.6988" y2="47.5252" stroke="#313840" stroke-width="1.4"/>
<line x1="32.8545" y1="47.5252" x2="26.0292" y2="47.5252" stroke="#313840" stroke-width="1.4"/>
<line x1="48.9028" y1="47.5252" x2="34.5145" y2="47.5252" stroke="#313840" stroke-width="1.4"/>
<line x1="10.7188" y1="47.5252" x2="7.2139" y2="47.5252" stroke="#313840" stroke-width="1.4"/>
<line x1="15.8838" y1="44.0203" x2="12.3789" y2="44.0203" stroke="#313840" stroke-width="1.4"/>
<line x1="44.6597" y1="44.0203" x2="29.5335" y2="44.0203" stroke="#313840" stroke-width="1.4"/>
<line x1="11.4561" y1="29.7" x2="7.21334" y2="29.7" stroke="#313840" stroke-width="1.4"/>
<line x1="11.4561" y1="33.7" x2="7.21334" y2="33.7" stroke="#313840" stroke-width="1.4"/>
<line x1="13.1162" y1="25.7" x2="7.2133" y2="25.7" stroke="#313840" stroke-width="1.4"/>
<line x1="13.1162" y1="17.7" x2="7.2133" y2="17.7" stroke="#313840" stroke-width="1.4"/>
<line x1="21.0483" y1="17.7" x2="18.2813" y2="17.7" stroke="#313840" stroke-width="1.4"/>
<line x1="33" y1="21.7" x2="18" y2="21.7" stroke="#313840" stroke-width="1.4"/>
<circle cx="7.92233" cy="9.92233" r="0.92233" fill="#313840"/>
<circle cx="10.9223" cy="9.92233" r="0.92233" fill="#313840"/>
<circle cx="13.9223" cy="9.92233" r="0.92233" fill="#313840"/>
</g>
<defs>
<clipPath id="clip0">
<rect width="60" height="60" fill="white"/>
</clipPath>
</defs>
</svg>
