<svg xmlns="http://www.w3.org/2000/svg" xmlns:xlink="http://www.w3.org/1999/xlink" width="7.06cm" height="1.76cm" viewBox="0 0 200 50"><defs><linearGradient id="a" x1="33.13" y1="6.46" x2="51.2" y2="37.75" gradientUnits="userSpaceOnUse"><stop offset="0" stop-color="#037e8a"/><stop offset="1" stop-color="#4fa5ad"/></linearGradient></defs><path d="M39.33,25a7.33,7.33,0,1,1,7.32,7.32A7.32,7.32,0,0,1,39.33,25m-6-11.11V38.32h5.3V35.76a13,13,0,0,0,7.76,2.56h.25a13.32,13.32,0,1,0-8-24v-.78c0-4.62,2.57-7.65,7.75-7.68V1.33h0c-8.34,0-13,5.06-13,12.56" fill="url(#a)"/><path d="M21.43,25a7.33,7.33,0,1,1-7.33-7.32A7.32,7.32,0,0,1,21.43,25m6,11.11V11.68H22.11v2.56a13,13,0,0,0-7.76-2.56H14.1a13.32,13.32,0,1,0,8,24v.78c0,4.62-2.57,7.65-7.76,7.68v4.58h.06c8.34,0,13-5.06,13-12.56" fill="#97a5a6"/><path d="M97.27,22a3.45,3.45,0,0,1-3.52,3.51,3.52,3.52,0,1,1,0-7A3.46,3.46,0,0,1,97.27,22m3.15,0a6.67,6.67,0,1,0-6.66,6.34A6.34,6.34,0,0,0,100.42,22" fill="#97a5a6"/><path d="M123.64,28.37c3.54,0,5.64-1.8,5.64-4.74v-7.7H126v7.49a2.36,2.36,0,0,1-4.7,0V15.93H118v7.7c0,2.94,2.08,4.74,5.61,4.74" fill="#037e8a"/><path d="M136.17,28.37c2.72,0,4.74-1.3,4.74-3.93s-1.86-3.25-3.51-3.78c-1.41-.45-2.66-.69-2.66-1.56,0-.64.58-1,1.43-1a6,6,0,0,1,3,1L140.58,17a8.1,8.1,0,0,0-4.32-1.27c-2.47,0-4.6,1.2-4.6,3.74s2,3.09,3.61,3.63c1.33.45,2.46.72,2.46,1.66,0,.75-.63,1.15-1.58,1.15a6.71,6.71,0,0,1-3.69-1.43l-1.39,2.35a9.28,9.28,0,0,0,5.1,1.57" fill="#037e8a"/><path d="M146.5,15.93h-3.26V28.14h3.26Zm.28-3.85a1.9,1.9,0,1,0-1.89,1.9,1.89,1.89,0,0,0,1.89-1.9" fill="#037e8a"/><path d="M156.64,15.7A4.31,4.31,0,0,0,153,17.65V15.93h-3.29V28.14H153V21.2c0-1.86,1-2.74,2.42-2.74s2.17.56,2.17,2.51v7.17h3.31V20.38c0-3.05-1.61-4.68-4.22-4.68" fill="#037e8a"/><path d="M172.43,20.54H166.3a3.1,3.1,0,0,1,3.16-2.44,2.82,2.82,0,0,1,3,2.44m3.27,1.36a6.05,6.05,0,0,0-6.27-6.22,6.35,6.35,0,1,0,.11,12.69,6,6,0,0,0,5.61-3.22l-2.6-1.09a3.39,3.39,0,0,1-3,1.69,3.26,3.26,0,0,1-3.35-3.2h9.49Z" fill="#037e8a"/><path d="M181.85,28.37c2.71,0,4.73-1.3,4.73-3.93s-1.86-3.25-3.51-3.78c-1.41-.45-2.66-.69-2.66-1.56,0-.64.58-1,1.44-1a6,6,0,0,1,3,1L186.26,17a8.16,8.16,0,0,0-4.33-1.27c-2.47,0-4.6,1.2-4.6,3.74s2,3.09,3.61,3.63c1.33.45,2.46.72,2.46,1.66,0,.75-.63,1.15-1.58,1.15a6.71,6.71,0,0,1-3.69-1.43l-1.39,2.35a9.29,9.29,0,0,0,5.11,1.57" fill="#037e8a"/><path d="M192.83,28.37c2.72,0,4.74-1.3,4.74-3.93s-1.86-3.25-3.52-3.78c-1.4-.45-2.66-.69-2.66-1.56,0-.64.59-1,1.44-1a6,6,0,0,1,3,1L197.24,17a8.1,8.1,0,0,0-4.33-1.27c-2.46,0-4.59,1.2-4.59,3.74s2,3.09,3.6,3.63c1.34.45,2.47.72,2.47,1.66,0,.75-.64,1.15-1.58,1.15a6.71,6.71,0,0,1-3.7-1.43l-1.38,2.35a9.25,9.25,0,0,0,5.1,1.57" fill="#037e8a"/><path d="M81.62,22.27a3.48,3.48,0,1,1-3.48-3.49,3.48,3.48,0,0,1,3.48,3.49m2.85,5.28V15.93H82v1.22a6.14,6.14,0,0,0-3.69-1.22h-.12a6.34,6.34,0,1,0,3.8,11.39v.38a3.34,3.34,0,0,1-3.69,3.64v2.19h0c4,0,6.19-2.41,6.19-6" fill="#97a5a6"/><path d="M105.67,21.51a3.65,3.65,0,1,1,3.65,3.64,3.65,3.65,0,0,1-3.65-3.64m-3-5.52V28.13h2.63V26.86a6.47,6.47,0,0,0,3.86,1.27h.13a6.62,6.62,0,1,0-4-11.91v-.39A3.5,3.5,0,0,1,109.2,12V9.74h0c-4.15,0-6.47,2.51-6.47,6.25" fill="#037e8a"/><path d="M123.27,38.3a4.65,4.65,0,1,1-4.65-4.54,4.63,4.63,0,0,1,3.89,2l-1.3.72a3.17,3.17,0,0,0-5.75,1.85,3.06,3.06,0,0,0,3.17,3.13,3,3,0,0,0,3.05-2.32h-2.37V37.89h3.93C123.25,38,123.27,38.15,123.27,38.3Z" fill="#97a5a6"/><path d="M125.59,38.31a4.65,4.65,0,1,1,4.65,4.56A4.54,4.54,0,0,1,125.59,38.31Zm7.81,0a3.16,3.16,0,1,0-3.16,3.16A3.12,3.12,0,0,0,133.4,38.31Z" fill="#97a5a6"/><path d="M144.79,33.87l-3.44,8.89h-1.43l-3.44-8.89H138l2.61,7,2.61-7Z" fill="#97a5a6"/><path d="M157.51,40.87h-4.09l-.71,1.89h-1.54l3.48-8.89h1.63l3.48,8.89h-1.54ZM157,39.58l-1.56-4.17-1.57,4.17Z" fill="#97a5a6"/><path d="M161.72,41.46l.91-1.06a3.07,3.07,0,0,0,2.3,1.19c.8,0,1.4-.43,1.4-1.16s-.84-1.2-1.84-1.63c-1.19-.51-2.39-1.07-2.39-2.62a2.43,2.43,0,0,1,2.65-2.42,4,4,0,0,1,2.8,1.18l-.81,1a2.82,2.82,0,0,0-2-.93c-.65,0-1.18.34-1.18,1s.83,1.13,1.85,1.56,2.4,1.1,2.4,2.74A2.55,2.55,0,0,1,165,42.87,4.44,4.44,0,0,1,161.72,41.46Z" fill="#97a5a6"/><path d="M170,41.46l.9-1.06a3.09,3.09,0,0,0,2.31,1.19c.8,0,1.4-.43,1.4-1.16s-.84-1.2-1.84-1.63c-1.19-.51-2.39-1.07-2.39-2.62a2.43,2.43,0,0,1,2.65-2.42,4,4,0,0,1,2.8,1.18l-.81,1a2.84,2.84,0,0,0-2-.93c-.65,0-1.19.34-1.19,1s.84,1.13,1.85,1.56c1.16.49,2.41,1.1,2.41,2.74a2.56,2.56,0,0,1-2.85,2.52A4.44,4.44,0,0,1,170,41.46Z" fill="#97a5a6"/><path d="M179,33.87h1.48v8.89H179Z" fill="#97a5a6"/><path d="M183.29,41.46l.91-1.06a3.07,3.07,0,0,0,2.31,1.19c.8,0,1.4-.43,1.4-1.16s-.85-1.2-1.85-1.63c-1.18-.51-2.39-1.07-2.39-2.62a2.43,2.43,0,0,1,2.65-2.42,4,4,0,0,1,2.81,1.18l-.81,1a2.85,2.85,0,0,0-2-.93c-.65,0-1.19.34-1.19,1s.83,1.13,1.85,1.56,2.41,1.1,2.41,2.74a2.56,2.56,0,0,1-2.86,2.52A4.44,4.44,0,0,1,183.29,41.46Z" fill="#97a5a6"/><path d="M197.66,35.21h-2.34v7.55h-1.48V35.21H191.5V33.87h6.16Z" fill="#97a5a6"/></svg>