<svg width="558" height="411" viewBox="0 0 558 411" fill="none" xmlns="http://www.w3.org/2000/svg">
<mask id="mask0_4647_78510" style="mask-type:alpha" maskUnits="userSpaceOnUse" x="0" y="0" width="558" height="379">
<rect width="558" height="379" fill="#F6FAFC"/>
</mask>
<g mask="url(#mask0_4647_78510)">
<path fill-rule="evenodd" clip-rule="evenodd" d="M345.923 399.249C302.096 402.811 263.929 380.424 220.685 373.952C167.747 366.031 105.29 390.612 64.7463 357.174C23.2347 322.936 2.87109 262.194 13.7071 205.361C24.5431 148.528 49.9087 101.543 79.9787 65.1318C110.049 28.7205 156.679 20.2151 211.553 13.6326C250.711 8.93536 294.547 20.4689 333.882 20.9147C388.744 21.5365 461.658 -4.09184 492.992 39.0535C524.637 82.6272 458.115 140.308 459.693 194.15C461.326 249.838 529.609 301.553 502.139 351.074C475.476 399.142 401.472 394.734 345.923 399.249Z" fill="#EDF4FA"/>
<path opacity="0.3" fill-rule="evenodd" clip-rule="evenodd" d="M143.024 109.74C179.35 81.1565 188.304 19.355 233.138 8.06088C277.661 -3.15508 317.587 36.8084 359.72 55.152C403.58 74.2477 456.476 79.9284 485.531 117.947C515.33 156.939 517.127 209.979 515.506 258.998C513.907 307.373 509.08 360.111 476.347 395.717C444.676 430.168 393.094 434.582 346.934 442.367C309.632 448.658 273.705 435.278 235.882 436.273C186.433 437.574 131.373 477.838 91.0671 449.098C51.9375 421.196 73.0866 357.592 60.5037 311.218C48.0122 265.18 -0.616165 221.884 17.4488 177.777C35.8701 132.8 104.839 139.786 143.024 109.74Z" fill="#D0DEEF"/>
<path d="M82.0922 207.29C82.1196 207.298 82.1483 207.299 82.1763 207.294C82.2042 207.289 82.2306 207.277 82.2533 207.26C82.276 207.243 82.2944 207.221 82.3071 207.195C82.3198 207.17 82.3264 207.142 82.3264 207.113C82.3264 207.085 82.3198 207.057 82.3071 207.031C82.2944 207.006 82.276 206.984 82.2533 206.967C82.2306 206.949 82.2042 206.938 82.1763 206.933C82.1483 206.927 82.1196 206.929 82.0922 206.937C82.0538 206.948 82.0201 206.971 81.996 207.003C81.972 207.034 81.959 207.073 81.959 207.113C81.959 207.153 81.972 207.192 81.996 207.224C82.0201 207.256 82.0538 207.279 82.0922 207.29Z" fill="#FF1D25"/>
<path d="M79.971 206.228H79.8015C79.7602 206.214 79.7155 206.214 79.6743 206.228C79.6613 206.269 79.6613 206.313 79.6743 206.355C79.6666 206.397 79.6666 206.44 79.6743 206.482C79.716 206.493 79.7598 206.493 79.8015 206.482H79.971C80.0121 206.497 80.0572 206.497 80.0982 206.482C80.1112 206.441 80.1112 206.396 80.0982 206.355C80.1072 206.335 80.1118 206.313 80.1118 206.291C80.1118 206.269 80.1072 206.248 80.0982 206.228C80.0574 206.211 80.0118 206.211 79.971 206.228Z" fill="#FF1D25"/>
<path d="M77.1459 207.643C77.1733 207.65 77.202 207.652 77.23 207.647C77.2579 207.641 77.2843 207.63 77.307 207.613C77.3297 207.596 77.3481 207.573 77.3608 207.548C77.3735 207.522 77.3801 207.494 77.3801 207.466C77.3801 207.438 77.3735 207.41 77.3608 207.384C77.3481 207.359 77.3297 207.336 77.307 207.319C77.2843 207.302 77.2579 207.291 77.23 207.285C77.202 207.28 77.1733 207.282 77.1459 207.289C77.1076 207.3 77.0738 207.324 77.0497 207.355C77.0257 207.387 77.0127 207.426 77.0127 207.466C77.0127 207.506 77.0257 207.545 77.0497 207.577C77.0738 207.609 77.1076 207.632 77.1459 207.643Z" fill="#FF1D25"/>
<path d="M86.1616 283.055C86.1999 283.044 86.2337 283.021 86.2577 282.989C86.2818 282.957 86.2948 282.918 86.2948 282.878C86.2948 282.838 86.2818 282.799 86.2577 282.768C86.2337 282.736 86.1999 282.713 86.1616 282.702C86.1232 282.713 86.0894 282.736 86.0654 282.768C86.0413 282.799 86.0283 282.838 86.0283 282.878C86.0283 282.918 86.0413 282.957 86.0654 282.989C86.0894 283.021 86.1232 283.044 86.1616 283.055Z" fill="#FF1D25"/>
<path d="M71.9729 137.7H71.7892H71.5631L71.0969 137.53C71.052 137.521 71.0055 137.529 70.9663 137.553C70.9271 137.576 70.8981 137.614 70.8849 137.657C70.8753 137.704 70.8829 137.753 70.9063 137.794C70.9296 137.836 70.9672 137.867 71.0121 137.883L71.4925 138.039C71.6577 138.089 71.8287 138.117 72.0012 138.124C72.0247 138.124 72.0479 138.119 72.0695 138.11C72.091 138.1 72.1104 138.086 72.1263 138.069C72.1423 138.052 72.1545 138.031 72.1621 138.009C72.1698 137.987 72.1727 137.963 72.1707 137.94C72.1707 137.918 72.1663 137.896 72.1578 137.875C72.1493 137.854 72.1368 137.836 72.1211 137.82C72.1053 137.804 72.0866 137.792 72.066 137.783C72.0455 137.775 72.0234 137.77 72.0012 137.77L71.9729 137.7Z" fill="#E5EFF9"/>
<path d="M348.224 250.142L51.2534 324.099V41.2863C51.2551 40.6595 51.3867 40.0399 51.6398 39.4665C51.893 38.8932 52.2622 38.3785 52.7242 37.955C53.1863 37.5314 53.7311 37.2083 54.3243 37.0058C54.9174 36.8034 55.5461 36.7261 56.1707 36.7788L348.224 62.7074V250.142Z" fill="#F6FAFC"/>
<path d="M164.583 291.334L52.9561 323.198V40.5123C52.9554 39.8854 53.0855 39.2653 53.3381 38.6916C53.5907 38.1179 53.9602 37.6031 54.4229 37.1803C54.8857 36.7574 55.4315 36.4357 56.0256 36.2357C56.6197 36.0358 57.249 35.9619 57.8733 36.0189L164.513 45.486L164.583 291.334Z" fill="white"/>
<path d="M349.558 77.605L53.0397 61.1577V40.5137C53.0349 39.8869 53.1617 39.266 53.4119 38.6913C53.6622 38.1165 54.0303 37.6007 54.4925 37.1772C54.9546 36.7537 55.5005 36.4319 56.0948 36.2326C56.6892 36.0333 57.3188 35.961 57.9428 36.0204L349.558 61.8924V77.605Z" fill="white"/>
<path d="M349.558 77.6026L53.0396 61.1553" stroke="#E5EFF9" stroke-width="0.5" stroke-miterlimit="10"/>
<path d="M136.166 80.6568L53.0254 77.0395V113.58L135.997 113.226C137.191 113.219 138.334 112.739 139.176 111.892C140.018 111.045 140.49 109.899 140.49 108.705V85.1784C140.491 84.0127 140.042 82.8916 139.237 82.0491C138.431 81.2066 137.331 80.7078 136.166 80.6568Z" fill="#F6FAFC"/>
<path d="M164.584 67.3466V293.625" stroke="#E5EFF9" stroke-width="0.5" stroke-miterlimit="10"/>
<path d="M154.478 146.602C154.48 147.752 154.042 148.86 153.254 149.698C152.466 150.536 151.387 151.04 150.239 151.109L63.6783 156.987C63.0603 157.032 62.4396 156.948 61.8554 156.742C61.2712 156.535 60.7361 156.21 60.2835 155.787C59.831 155.364 59.471 154.851 59.226 154.282C58.981 153.713 58.8564 153.099 58.8599 152.48V123.315C58.8597 122.134 59.323 121.001 60.15 120.158C60.9771 119.315 62.1019 118.83 63.2826 118.808L149.843 117.084C150.443 117.071 151.04 117.178 151.598 117.398C152.157 117.619 152.665 117.949 153.095 118.369C153.524 118.789 153.865 119.29 154.097 119.843C154.33 120.397 154.45 120.991 154.45 121.591L154.478 146.602Z" fill="#F6FAFC"/>
<path d="M156.599 144.482C156.601 145.632 156.163 146.74 155.375 147.578C154.587 148.416 153.508 148.921 152.36 148.99L65.8277 154.853C65.2097 154.898 64.5891 154.815 64.0049 154.608C63.4207 154.402 62.8855 154.077 62.433 153.653C61.9805 153.23 61.6204 152.718 61.3754 152.148C61.1304 151.579 61.0058 150.966 61.0094 150.346V123.315C61.0091 122.134 61.4724 121.001 62.2995 120.158C63.1265 119.315 64.2514 118.83 65.4321 118.808L151.993 117.084C152.593 117.071 153.19 117.178 153.748 117.398C154.306 117.619 154.815 117.949 155.244 118.369C155.673 118.789 156.014 119.29 156.247 119.843C156.479 120.397 156.599 120.991 156.599 121.591V144.482Z" fill="#D0DEEF"/>
<path d="M346.351 116.432L174.897 120.036C174.297 120.045 173.7 119.935 173.143 119.712C172.585 119.489 172.078 119.158 171.649 118.737C171.221 118.317 170.88 117.815 170.647 117.262C170.413 116.708 170.292 116.114 170.291 115.514V85.6148C170.287 85.0457 170.412 84.4831 170.657 83.9692C170.902 83.4553 171.26 83.0035 171.704 82.6475L175.561 79.7509L346.421 88.6104L346.351 116.432Z" fill="#DBE7EF"/>
<path d="M143.316 105.878C143.318 106.469 143.203 107.055 142.978 107.602C142.753 108.149 142.423 108.646 142.005 109.064C141.588 109.483 141.092 109.815 140.546 110.042C140 110.269 139.414 110.386 138.823 110.386L48.3908 110.781C47.1989 110.785 46.0537 110.318 45.2043 109.482C44.3549 108.646 43.87 107.508 43.8551 106.316L43.5725 78.4376C43.5662 77.8244 43.6848 77.2164 43.9208 76.6506C44.1569 76.0847 44.5056 75.5727 44.9457 75.1458C45.3858 74.7189 45.9082 74.386 46.481 74.1672C47.0539 73.9485 47.6652 73.8486 48.2778 73.8736L139.063 77.83C140.228 77.881 141.328 78.3798 142.133 79.2223C142.939 80.0648 143.388 81.1859 143.387 82.3516L143.316 105.878Z" fill="#D0DEEF"/>
<path d="M349.175 113.605L177.721 117.208C177.121 117.218 176.525 117.108 175.967 116.885C175.409 116.662 174.902 116.331 174.473 115.91C174.045 115.489 173.704 114.988 173.471 114.435C173.238 113.881 173.117 113.287 173.115 112.687V83.7202C173.112 83.1126 173.233 82.5107 173.469 81.9508C173.705 81.391 174.052 80.8846 174.489 80.4623C174.926 80.0399 175.444 79.7102 176.011 79.4931C176.579 79.2759 177.185 79.1758 177.792 79.1986L349.175 85.7832V113.605Z" fill="#D0DEEF"/>
<path d="M294.664 152.877C294.664 154.558 292.898 156.014 290.609 156.198L204.812 163.263C203.621 163.399 202.42 163.125 201.406 162.485C200.984 162.251 200.63 161.91 200.382 161.496C200.134 161.081 200 160.609 199.993 160.126L200.346 141.757C200.375 140.266 200.914 138.83 201.872 137.687L203.822 135.172L290.242 130.834C291.349 130.778 292.445 131.07 293.378 131.668C293.756 131.913 294.07 132.244 294.294 132.635C294.517 133.026 294.644 133.465 294.664 133.914V152.877Z" fill="#DBE7EF"/>
<path d="M185.212 90.7459L308.525 93.911" stroke="#A0C0E0" stroke-width="3" stroke-miterlimit="10"/>
<path d="M259.042 106.303L308.526 106.317" stroke="#A0C0E0" stroke-width="3" stroke-miterlimit="10"/>
<path d="M185.241 106.289L245.152 106.304" stroke="#A0C0E0" stroke-width="3" stroke-miterlimit="10"/>
<path d="M297.489 150.051C297.489 151.732 295.722 153.188 293.433 153.372L207.636 160.437C206.447 160.579 205.245 160.309 204.23 159.674C203.813 159.433 203.465 159.09 203.217 158.677C202.97 158.264 202.832 157.795 202.817 157.314V137.532C202.817 135.751 204.81 134.225 207.325 134.126L293.066 130.834C294.173 130.778 295.27 131.07 296.203 131.668C296.581 131.913 296.894 132.244 297.118 132.635C297.342 133.026 297.469 133.465 297.489 133.914V150.051Z" fill="#518DE0"/>
<g opacity="0.4">
<path opacity="0.4" d="M226.984 146.374C226.903 148.628 225.993 150.772 224.429 152.397C222.864 154.021 220.755 155.011 218.506 155.177C217.424 155.316 216.325 155.225 215.281 154.91C214.236 154.594 213.271 154.061 212.447 153.346C211.624 152.631 210.961 151.749 210.503 150.759C210.044 149.769 209.801 148.694 209.788 147.603C209.873 145.307 210.816 143.127 212.43 141.492C214.043 139.857 216.211 138.887 218.506 138.772C219.572 138.664 220.649 138.779 221.668 139.111C222.688 139.443 223.626 139.984 224.424 140.7C225.222 141.415 225.862 142.29 226.303 143.267C226.744 144.244 226.976 145.302 226.984 146.374V146.374Z" stroke="white" stroke-width="1.5" stroke-miterlimit="10" stroke-linecap="round"/>
<path fill-rule="evenodd" clip-rule="evenodd" d="M220.641 143.81L222.158 143.691C222.552 143.66 222.894 143.974 222.901 144.372L222.986 149.466C222.992 149.883 222.661 150.231 222.267 150.262L215.168 150.821C214.756 150.853 214.432 150.537 214.425 150.14L214.341 145.045C214.334 144.629 214.666 144.28 215.059 144.249L216.558 144.131L216.557 144.112C216.547 143.487 217.044 142.936 217.662 142.888L219.498 142.743C220.116 142.695 220.63 143.166 220.641 143.791L220.641 143.81ZM217.672 143.456C217.353 143.481 217.096 143.767 217.101 144.089L220.098 143.872L220.098 143.853C220.093 143.531 219.826 143.286 219.508 143.311L217.672 143.456ZM219.495 147.105L219.509 147.938L217.748 148.077L217.734 147.225L215.973 147.344L214.911 146.631L214.969 150.097C214.97 150.192 215.047 150.281 215.159 150.272L222.277 149.711C222.371 149.704 222.463 149.621 222.461 149.507L222.404 146.061L221.181 146.991L219.495 147.105ZM214.881 145.97L216.133 146.801L220.966 146.458L222.355 145.401L222.339 144.416C222.338 144.321 222.261 144.232 222.149 144.241L215.05 144.8C214.956 144.807 214.864 144.89 214.865 145.004L214.881 145.97ZM218.957 147.451L218.952 147.167L218.259 147.221L218.264 147.505L218.957 147.451Z" fill="white" fill-opacity="0.6"/>
</g>
<path d="M349.178 238.164L173.089 288.283V182.958L349.178 161.452V238.164Z" stroke="#E5EFF9" stroke-width="0.5" stroke-miterlimit="10"/>
<path opacity="0.4" d="M235.811 145.514L289.887 141.727" stroke="white" stroke-width="3" stroke-miterlimit="10"/>
<g style="mix-blend-mode:multiply" opacity="0.4">
<g style="mix-blend-mode:multiply" opacity="0.6">
<g style="mix-blend-mode:multiply" opacity="0.6">
<path d="M341.292 191.589C341.857 198.399 341.674 205.252 342.267 212.063C342.422 213.886 342.634 215.708 342.945 217.517C342.945 217.63 343.143 217.517 343.115 217.517C341.984 210.862 342.055 204.079 341.801 197.354C341.801 195.446 341.631 193.538 341.476 191.631C341.476 191.518 341.292 191.518 341.292 191.631V191.589Z" fill="#B8D2E8"/>
</g>
</g>
<g style="mix-blend-mode:multiply" opacity="0.4">
<g style="mix-blend-mode:multiply" opacity="0.4">
<path d="M321.103 172.515C322.007 177.771 320.17 183.013 319.337 188.157C318.977 190.788 318.807 193.442 318.828 196.098C318.828 198.994 318.828 201.891 318.828 204.802C318.828 210.539 318.616 216.29 318.136 222.012C317.663 227.522 316.899 233.002 315.847 238.431C314.787 243.956 313.43 249.424 311.862 254.836C311.65 255.514 311.452 256.249 311.24 256.885C311.24 256.998 311.382 257.041 311.41 256.885C313.063 251.431 314.49 245.92 315.649 240.353C316.759 234.979 317.589 229.55 318.136 224.089C318.701 218.437 318.941 212.658 319.012 206.935C319.012 203.982 319.012 201.043 319.012 198.104C318.955 195.298 319.054 192.492 319.309 189.697C319.902 184.525 321.81 179.467 321.499 174.154C321.471 173.551 321.4 172.952 321.287 172.359C321.287 172.246 321.103 172.359 321.117 172.359L321.103 172.515Z" fill="#B8D2E8"/>
</g>
</g>
</g>
<g style="mix-blend-mode:multiply">
<g style="mix-blend-mode:multiply">
<path d="M400.231 263.101C400.269 263.09 400.303 263.067 400.327 263.035C400.351 263.003 400.364 262.964 400.364 262.925C400.364 262.885 400.351 262.846 400.327 262.814C400.303 262.782 400.269 262.759 400.231 262.748C400.193 262.759 400.159 262.782 400.135 262.814C400.111 262.846 400.098 262.885 400.098 262.925C400.098 262.964 400.111 263.003 400.135 263.035C400.159 263.067 400.193 263.09 400.231 263.101Z" fill="#E5EFF9"/>
</g>
</g>
<path d="M59.9365 93.3154L129.499 93.7111" stroke="#A0C0E0" stroke-width="3" stroke-miterlimit="10"/>
<path d="M76.9775 136.456L144.18 133.461" stroke="#A0C0E0" stroke-width="3" stroke-miterlimit="10"/>
<path d="M35.9995 207.458H36.1685" stroke="#FF1D25" stroke-width="0.25" stroke-miterlimit="10"/>
<path d="M386.491 174.961C386.491 174.961 382.102 183.31 387.588 188.467C393.073 193.623 389.233 175.389 389.233 175.389L386.491 174.961Z" fill="#2C4153"/>
<path d="M417.362 207.459C415.629 208.183 403.594 208.841 403.418 209.028C402.442 209.993 404.384 213.888 403.418 214.865C403.188 215.084 402.453 206.175 398.931 209.697C398.92 209.796 398.92 209.895 398.931 209.993C398.931 214.217 395.903 218.715 393.764 222.281C391.624 225.847 384.548 235.808 383.429 239.758C381.86 239.44 378.887 239.999 377.757 239.999C376.177 239.999 372.37 238.551 370.955 239.495C370.746 239.637 369.342 251.958 369.112 253.329C368.947 254.328 368.892 256.28 369.539 257.081C370.055 259.945 370.878 264.015 383.648 264.015C383.648 264.015 381.377 267.032 382.068 267.723C382.562 268.217 380.456 271.936 380.214 272.594C378.711 276.588 378.272 281.964 382.551 283.807C386.83 285.65 392.337 280.768 396.594 280.285C400.39 279.868 402.08 282.962 405.272 283.412C409.562 284.026 412.305 280.516 416.298 279.715C417.494 279.473 421.356 280.494 422.135 279.715C431.46 270.4 424.954 254.865 426.249 243.236C426.852 237.75 428.959 233.12 428.959 227.448C428.959 225.09 429.387 222.248 428.871 219.944C427.949 215.797 423.769 215.216 421.86 212.034C421.191 210.926 418.317 207.053 417.362 207.459Z" fill="white"/>
<path d="M396.444 262.381C392.791 265.409 385.583 263.368 383.641 264.015C383.158 264.18 382.774 267.449 381.973 267.669C381.973 267.669 380.448 271.936 380.207 272.595C378.704 276.588 378.265 281.964 382.544 283.807C386.822 285.65 392.33 280.768 396.587 280.285C400.383 279.868 402.072 282.962 405.265 283.412C405.265 283.412 401.611 274.416 404.848 269.084C408.084 263.752 411.979 250.433 411.979 250.433C411.979 250.433 405.221 255.107 396.444 262.381Z" fill="#E5EFF9"/>
<path d="M398.154 414.404C403.711 416.402 409.705 416.857 415.5 415.721L405.922 327.733L390.727 309.422V341.446C390.727 341.446 392.548 344.42 393.371 346.065C394.194 347.711 392.548 352.648 392.877 355.478C393.207 358.309 393.371 362.061 393.865 362.884C394.359 363.707 395.851 378.605 395.851 378.605C395.851 378.605 398.33 397.256 398.154 400.548C397.979 403.839 398.154 414.404 398.154 414.404Z" fill="#2C4153"/>
<g style="mix-blend-mode:multiply" opacity="0.6">
<path d="M398.154 414.404C403.711 416.402 409.705 416.857 415.5 415.721L405.922 327.733L390.727 309.422V341.446C390.727 341.446 392.548 344.42 393.371 346.065C394.194 347.711 392.548 352.648 392.877 355.478C393.207 358.309 393.371 362.061 393.865 362.884C394.359 363.707 395.851 378.605 395.851 378.605C395.851 378.605 398.33 397.256 398.154 400.548C397.979 403.839 398.154 414.404 398.154 414.404Z" fill="#2C4153"/>
</g>
<path d="M419.131 279.518C419.131 279.518 426.405 292.234 427.063 293.879C427.721 295.525 430.859 301.811 428.215 307.593C425.571 313.375 424.748 316.842 424.924 317.467C425.099 318.093 424.595 320.605 423.443 321.099C422.757 321.466 422.227 322.07 421.953 322.799C421.678 323.527 421.678 324.33 421.951 325.059C422.609 326.716 422.938 329.854 422.28 330.545C421.621 331.236 420.963 352.344 420.963 352.344C423.536 357.3 425.214 362.67 425.922 368.209C427.239 377.786 428.336 399.421 429.213 403.546C430.091 407.671 431.55 418.555 431.55 418.555C431.55 418.555 420.974 424.688 411.89 420.892C411.89 420.892 411.726 387.858 409.081 384.226L407.414 379.761C407.414 379.761 403.782 374.813 403.782 371.675C403.782 371.675 399.986 366.552 399.822 363.579C399.657 360.606 396.19 344.423 396.19 344.423C396.19 344.423 395.532 333.639 392.394 326.31C392.394 326.31 391.725 319.815 391.396 317.006C391.067 314.198 390.573 307.132 390.573 307.132C390.573 307.132 388.917 298.871 389.246 297.708C389.575 296.545 386.942 286.979 386.273 285.816C385.603 284.653 386.273 280.868 386.273 280.868L419.131 279.518Z" fill="#2C4153"/>
<g style="mix-blend-mode:multiply" opacity="0.4">
<path d="M412.524 366.406C408.399 357.344 408.728 331.2 408.015 318.495C407.51 309.334 406.566 290.102 406.084 280.096L387.257 280.853C387.257 280.853 386.599 284.649 387.257 285.801C387.916 286.953 390.549 296.542 390.231 297.694C389.912 298.846 391.547 307.118 391.547 307.118C391.547 307.118 392.041 314.217 392.381 316.992C392.721 319.768 393.368 326.296 393.368 326.296C396.506 333.624 397.164 344.409 397.164 344.409C397.164 344.409 400.631 360.646 400.829 363.575C401.026 366.505 404.8 371.672 404.8 371.672C404.8 374.81 408.432 379.758 408.432 379.758L410.077 384.223C412.721 387.854 412.886 420.888 412.886 420.888C416.027 422.108 419.441 422.446 422.76 421.865C421.213 410.63 416.013 374.053 412.524 366.406Z" fill="#2C4153"/>
</g>
<g style="mix-blend-mode:multiply" opacity="0.4">
<path d="M410.993 285.454C413.768 283.585 417.061 282.637 420.406 282.744L420.483 281.888C419.682 280.462 419.133 279.518 419.133 279.518L386.22 280.835C386.22 280.835 385.573 284.631 386.22 285.783C386.375 286.089 386.503 286.409 386.604 286.737C391.278 285.059 399.275 283.226 399.275 283.226C399.275 283.226 406.494 288.558 410.993 285.454Z" fill="#2C4153"/>
</g>
<path d="M391.539 204.626C390.902 204.506 390.584 206.184 390.288 205.592C389.399 203.804 387.995 203.979 387.194 205.592C387.139 205.702 387.04 206.195 386.909 205.998C386.064 204.626 384.484 203.628 383.201 205.559C381.237 208.499 381.698 212.087 381.314 215.543C380.917 219.5 380.025 223.393 378.658 227.128C377.474 230.419 375.576 233.404 374.555 236.761C374.479 236.991 373.338 239.492 373.579 239.613C375.016 240.337 382.005 240.535 383.453 239.811C383.55 238.959 383.579 238.1 383.541 237.243C383.767 234.979 384.196 232.739 384.824 230.551C386.293 224.278 389.209 218.436 393.338 213.491C393.93 212.756 393.821 206.996 393.48 205.998C393.292 205.629 393.017 205.311 392.679 205.073C392.34 204.834 391.949 204.681 391.539 204.626Z" fill="#F6C7BD"/>
<path d="M409.498 187.524C409.42 188.441 409.197 189.341 408.839 190.19C408.236 191.605 406.81 191.462 406.053 192.219C405.603 192.669 406.053 195.884 405.943 196.608C405.581 199.515 402.476 202.949 399.777 204.178C400.809 206.613 402.257 208.939 402.487 211.671C402.553 212.439 402.487 216.378 403.047 216.915C403.047 216.915 405.877 215.566 406.152 215.5C408.414 215.005 410.716 214.719 413.03 214.644C414.413 214.557 420.206 215.028 421.412 214.085C420.436 212.661 419.577 211.161 418.845 209.598C417.966 207.516 417.525 205.275 417.551 203.015C416.892 200.184 416.453 197.244 415.872 194.348C415.587 194.666 415.28 194.885 415.038 194.644C413.403 193.02 413.019 190.256 411.33 188.588C410.419 187.754 408.785 187.195 409.498 187.524Z" fill="#F6C7BD"/>
<g style="mix-blend-mode:multiply" opacity="0.6">
<path d="M408.752 195.906C409.592 193.315 410.122 190.634 410.332 187.919C409.618 187.491 409.015 187.304 409.498 187.524C409.42 188.441 409.197 189.341 408.839 190.19C408.236 191.605 406.81 191.462 406.053 192.219C405.603 192.669 406.053 195.884 405.943 196.608C405.581 199.515 402.476 202.949 399.777 204.178C400.809 206.613 402.257 208.939 402.487 211.671C402.506 213.215 402.612 214.757 402.805 216.29L413.228 208.094L408.752 195.906Z" fill="#F6C7BD"/>
</g>
<path d="M417.362 207.459C415.629 208.183 403.594 208.841 403.418 209.028C402.442 209.993 404.384 213.888 403.418 214.865C403.188 215.084 402.453 206.175 398.931 209.697C398.92 209.796 398.92 209.895 398.931 209.993C398.931 214.217 395.903 218.715 393.764 222.281C391.624 225.847 384.548 235.808 383.429 239.758C381.86 239.44 378.887 239.999 377.757 239.999C376.177 239.999 372.37 238.551 370.955 239.495C370.746 239.637 369.342 251.958 369.112 253.329C368.947 254.328 368.892 256.28 369.539 257.081C370.055 259.945 370.878 264.015 383.648 264.015C383.648 264.015 381.377 267.032 382.068 267.723C382.562 268.217 380.456 271.936 380.214 272.594C378.711 276.588 378.272 281.964 382.551 283.807C386.83 285.65 392.337 280.768 396.594 280.285C400.39 279.868 402.08 282.962 405.272 283.412C409.562 284.026 412.305 280.516 416.298 279.715C417.494 279.473 421.356 280.494 422.135 279.715C431.46 270.4 424.954 254.865 426.249 243.236C426.852 237.75 428.959 233.12 428.959 227.448C428.959 225.09 429.387 222.248 428.871 219.944C427.949 215.797 423.769 215.216 421.86 212.034C421.191 210.926 418.317 207.053 417.362 207.459Z" fill="white"/>
<path d="M396.444 262.381C392.791 265.409 385.583 263.368 383.641 264.015C383.158 264.18 382.774 267.449 381.973 267.669C381.973 267.669 380.448 271.936 380.207 272.595C378.704 276.588 378.265 281.964 382.544 283.807C386.822 285.65 392.33 280.768 396.587 280.285C400.383 279.868 402.072 282.962 405.265 283.412C405.265 283.412 401.611 274.416 404.848 269.084C408.084 263.752 411.979 250.433 411.979 250.433C411.979 250.433 405.221 255.107 396.444 262.381Z" fill="#E5EFF9"/>
<path d="M390.8 227.553C393.236 225.128 401.771 216.011 404.339 214.727C405.644 214.069 407.433 214.552 408.947 214.563C416.506 214.563 417.723 213.959 419.578 212.314L418.886 210.92C415.437 213.029 411.385 213.932 407.367 213.488C406.271 213.354 405.159 213.52 404.149 213.966C403.139 214.412 402.268 215.122 401.629 216.022L390.8 227.553Z" fill="#E5EFF9"/>
<path d="M421.361 224.502C418.969 218.841 413.879 215.517 406.594 219.894C396.424 225.994 395.886 247.322 382.896 247.322L385.563 245.633C385.259 243.606 384.629 241.643 383.697 239.818C382.513 237.832 385.892 235.067 388.689 232.314C397.302 223.866 400.308 221.255 406.386 217.876C418.882 210.92 421.361 224.502 421.361 224.502Z" fill="#E5EFF9"/>
<path d="M409.317 255.32C409.664 256.439 410.139 257.514 410.733 258.524C415.845 266.708 414.189 253.806 414.189 250.844" stroke="#E5EFF9" stroke-width="0.5" stroke-miterlimit="10"/>
<path d="M426.157 264.811C425.586 262.519 423.546 260.599 422.328 258.591C422.328 258.492 420.441 255.464 419.925 256.397C417.983 259.787 423.129 267.368 425.29 269.562" stroke="#E5EFF9" stroke-width="0.5" stroke-miterlimit="10"/>
<path d="M371.917 246.235C374.912 246.235 378.039 246.301 381.056 246.301" stroke="#E5EFF9" stroke-width="0.5" stroke-miterlimit="10"/>
<path d="M411.149 280.037C409.69 279.302 399.531 268.88 402.011 275.452C402.427 276.639 402.967 277.779 403.623 278.853C404.55 280.239 405.597 281.542 406.75 282.747" stroke="#E5EFF9" stroke-width="0.5" stroke-miterlimit="10"/>
<path d="M398.634 212.313C398.744 212.859 399 213.365 399.375 213.776C399.749 214.188 400.229 214.49 400.762 214.65H397.899L398.634 212.313Z" fill="#E5EFF9"/>
<path d="M389.131 174.775C386.125 176.969 386.476 182.29 386.849 185.592C387.013 187.161 387.705 187.468 387.946 190.595C387.946 190.88 386.487 194.753 386.542 194.775C391.961 197.485 388.462 205.373 396.525 205.373C397.551 205.213 398.544 204.887 399.466 204.408C402.252 203.31 405.609 199.679 405.993 196.64C406.092 195.883 405.653 192.669 406.103 192.252C406.86 191.495 408.297 191.637 408.89 190.222C409.248 189.373 409.47 188.474 409.548 187.556C406.706 186.207 402.373 185.625 399.97 184.418C395.055 181.961 391.819 179.723 389.317 175.422C389.207 175.223 389.144 175.002 389.131 174.775Z" fill="#F6C7BD"/>
<g style="mix-blend-mode:multiply" opacity="0.6">
<path d="M389.131 174.775C386.125 176.969 386.476 182.29 386.849 185.592C387.013 187.161 387.705 187.468 387.946 190.595C387.946 190.88 386.487 194.753 386.542 194.775C391.961 197.485 388.462 205.373 396.525 205.373C397.551 205.213 398.544 204.887 399.466 204.408C402.252 203.31 405.609 199.679 405.993 196.64C406.092 195.883 405.653 192.669 406.103 192.252C406.86 191.495 408.297 191.637 408.89 190.222C409.248 189.373 409.47 188.474 409.548 187.556C406.706 186.207 402.373 185.625 399.97 184.418C395.055 181.961 391.819 179.723 389.317 175.422C389.207 175.223 389.144 175.002 389.131 174.775Z" fill="#F6C7BD"/>
</g>
<path d="M405.81 165.864C401.715 165.869 397.665 166.724 393.917 168.377C391.493 169.364 385.448 173.083 386.929 175.563C389.606 180.105 390.714 182.892 395.98 185.437C399.195 187.028 408.114 187.104 410.572 189.518C412.382 191.295 412.766 194.192 414.532 195.914C415.103 196.474 416.024 194.817 416.189 194.521C417.026 193.206 417.736 191.814 418.306 190.363C418.382 190.541 418.514 190.69 418.683 190.785C418.851 190.88 419.047 190.917 419.239 190.889C418.91 192.7 418.745 194.685 418.504 195.574C417.044 200.851 416.309 206.457 418.624 211.636C420.687 216.222 424.395 219.711 425.832 224.648C427.005 229.307 427.53 234.107 427.39 238.91C427.39 240.27 426.392 244.012 428.487 242.991C435.97 239.305 436.902 229.288 435.07 222.563C434.379 220.051 431.779 218.394 431.208 215.717C430.594 212.722 432.415 210.308 432.985 207.522C433.374 204.5 433.211 201.433 432.503 198.471C431.855 195.3 424.9 186.852 421.268 187.346C421.268 186.578 420.939 185.942 419.996 185.92C420.554 183.335 420.534 180.659 419.936 178.083C419.339 175.507 418.179 173.096 416.54 171.021C415.259 169.405 413.627 168.101 411.768 167.208C409.91 166.315 407.872 165.855 405.81 165.864Z" fill="#2C4153"/>
<g style="mix-blend-mode:multiply">
<g style="mix-blend-mode:multiply">
<path d="M396.442 262.378C395.829 262.864 395.134 263.236 394.39 263.475C400.051 261.571 405.428 258.91 410.375 255.565C411.34 252.636 411.977 250.474 411.977 250.474C411.977 250.474 405.219 255.104 396.442 262.378Z" fill="#E5EFF9"/>
</g>
</g>
<path d="M383.353 264.475L383.419 264.332L383.331 264.475H383.353Z" fill="#E5EFF9"/>
<path d="M419.58 222.289C419.58 222.289 405.723 251.91 395.575 255.103C385.427 258.296 376.277 258.076 374.631 256.979C372.986 255.882 373.534 246.304 373.534 246.304L374.807 245.635L375.169 239.568C373.567 239.239 371.812 238.91 370.945 239.491C370.736 239.634 369.332 251.954 369.102 253.326C368.937 254.324 368.882 256.277 369.53 257.078C370.045 259.941 370.868 264.012 383.638 264.012C385.58 263.364 392.788 265.405 396.442 262.377C405.219 255.103 411.977 250.484 411.977 250.484L411.856 250.879C417.561 246.952 428.258 237.034 419.58 222.289Z" fill="#E5EFF9"/>
<g style="mix-blend-mode:multiply">
<path d="M391.786 264.012C388.495 264.308 384.918 263.584 383.646 264.012C383.35 264.11 383.097 265.35 382.768 266.359L391.786 264.012Z" fill="#E5EFF9"/>
</g>
<g style="mix-blend-mode:multiply" opacity="0.4">
<path d="M409.508 188.759C409.739 186.18 409.699 183.584 409.388 181.013C408.51 174.025 405.811 168.221 400.194 166.4C398.047 166.867 395.946 167.528 393.918 168.375C391.494 169.362 385.449 173.081 386.93 175.561C389.607 180.103 390.715 182.889 395.981 185.435C398.801 186.872 406.568 187.003 409.508 188.759Z" fill="#2C4153"/>
</g>
<path d="M419.669 352.651C420.349 357.281 417.475 362.031 419.296 366.551C419.308 366.574 419.326 366.593 419.349 366.607C419.371 366.62 419.396 366.627 419.422 366.627C419.448 366.627 419.474 366.62 419.496 366.607C419.518 366.593 419.536 366.574 419.548 366.551C420.506 365.112 421.18 363.503 421.534 361.812C421.94 359.982 422.139 358.112 422.127 356.238C422.118 356.209 422.1 356.182 422.075 356.164C422.051 356.145 422.02 356.135 421.989 356.135C421.958 356.135 421.928 356.145 421.904 356.164C421.879 356.182 421.861 356.209 421.852 356.238C421.861 358.083 421.666 359.922 421.271 361.724C420.925 363.392 420.262 364.979 419.318 366.398H419.559C418.649 364.203 418.956 361.757 419.373 359.431C419.936 357.169 420.125 354.831 419.932 352.508C419.932 352.333 419.636 352.399 419.669 352.574V352.651Z" fill="black"/>
<path d="M421.532 330.673C421.333 329.287 420.663 328.013 419.634 327.063C418.594 326.135 417.47 325.305 416.277 324.584C415.98 324.386 415.706 324.858 416.002 325.056C418.098 326.449 420.621 327.93 420.983 330.673C420.983 331.013 421.576 331.024 421.532 330.673Z" fill="black"/>
<path d="M424.694 317.27C422.5 315.833 419.735 314.868 418.21 312.619L417.837 312.992C419.351 313.727 421.041 313.727 422.653 314.089C422.725 314.108 422.8 314.098 422.864 314.061C422.928 314.023 422.975 313.963 422.993 313.891C423.012 313.82 423.002 313.744 422.965 313.68C422.928 313.617 422.867 313.57 422.796 313.551C421.238 313.178 419.57 313.2 418.111 312.454C417.881 312.344 417.563 312.586 417.738 312.827C419.318 315.175 422.127 316.119 424.42 317.676C424.705 317.874 424.99 317.402 424.694 317.205V317.27Z" fill="black"/>
<g style="mix-blend-mode:multiply" opacity="0.6">
<path d="M376.485 239.829C376.485 239.763 380.007 228.386 381.06 225.446C382.113 222.506 383.112 215.045 383.43 213.114C383.748 211.184 384.812 204.546 384.812 204.546L385.975 205.369L385.789 204.798C384.988 204.283 384.033 204.305 383.2 205.555C381.236 208.496 381.697 212.083 381.313 215.539C380.916 219.497 380.024 223.389 378.658 227.125C377.473 230.416 375.575 233.4 374.554 236.757C374.187 237.58 373.865 238.422 373.589 239.28C374.576 239.423 375.597 239.664 376.485 239.829Z" fill="#F6C7BD"/>
</g>
<path d="M291.17 263.002C290.041 264.597 289.057 266.29 288.23 268.06C285.757 273.374 282.743 278.418 279.233 283.112C278.071 284.572 273.748 288.785 271.554 286.579C270.457 285.482 267.165 279.525 264.971 280.995C263.666 281.862 264.971 283.815 265.728 284.583C268.657 287.501 270.402 293.974 274.088 295.817C275.953 296.739 278.476 297.77 280.671 297.221C283.139 296.607 285.564 291.911 286.968 290.046C291.971 283.376 302.92 276.727 304.368 268.104C304.862 265.153 304.796 261.269 301.187 260.106C299.44 259.621 297.601 259.575 295.833 259.974C293.997 260.463 292.364 261.524 291.17 263.002Z" fill="#F6C7BD"/>
<path d="M263.337 200.06C264.927 201.344 264.148 211.382 262.942 213.807C262.163 215.354 260.649 217.625 258.806 217.998C258.213 218.118 255.273 217.998 254.933 218.371C253.528 219.775 255.909 224.591 254.988 226.424C252.991 230.428 241.318 228.958 238.246 226.906C238.081 226.797 237.917 217.318 237.917 216.22C237.917 206.467 239.979 195.551 249.678 191.042C251.63 190.131 254.231 189.319 256.447 189.813C261.68 190.998 260.418 197.712 263.337 200.06Z" fill="#F6C7BD"/>
<g style="mix-blend-mode:multiply" opacity="0.4">
<path d="M243.712 204.32L238.665 207.194C238.145 210.175 237.895 213.197 237.919 216.223C237.919 217.32 238.084 226.799 238.248 226.909C239.425 227.584 240.709 228.051 242.044 228.291L243.712 228.39V204.32Z" fill="#F6C7BD"/>
</g>
<path d="M248.774 214.082C259.285 214.082 272.176 204.472 267.996 191.043C265.341 182.573 263.059 183.747 258.978 183.692C258.265 182.584 257.277 181.679 256.109 181.067C254.942 180.456 253.635 180.158 252.318 180.204C227.885 179.556 229.509 213.753 251.221 213.753" fill="#2C4153"/>
<path d="M217.751 254.293L206.143 262.642C206.143 262.642 200.362 254.019 193.154 258.616L190.257 262.478C189.941 259.915 190.309 257.314 191.325 254.939C192.34 252.565 193.967 250.502 196.039 248.961C203.302 243.289 216.083 231.594 216.083 231.594C216.083 231.594 224.86 222.532 237.948 223.75C251.037 224.967 263.928 222.258 273.056 230.08C282.184 237.902 304.17 260.283 304.872 263.07C304.872 263.07 293.418 255.39 288.668 267.294L276.325 256.586C276.325 256.586 273.363 277.091 276.15 286.449C278.936 295.808 284.455 307.887 285.08 321.25C285.53 330.125 282.864 395.754 282.864 395.754C282.864 395.754 270.127 405.179 246.725 403.193C223.324 401.207 214.788 395.667 214.788 395.667L212.89 343.005C212.89 343.005 212.408 310.213 219.605 299.286C226.802 288.358 219.802 264.793 219.802 264.793C219.802 264.793 216.906 257.365 217.751 254.293Z" fill="#486985"/>
<path d="M250.593 203.42C251.251 204.012 250.593 202.773 250.374 202.487C249.536 201.447 248.379 200.711 247.082 200.392C243.688 200.663 240.315 201.165 236.989 201.895C231.931 203.793 228.037 212.043 232.535 216.552C234.488 218.494 236.364 217.09 238.174 218.001C238.81 218.319 239.633 220.272 240.368 220.842C243.429 223.036 250.001 222.466 252.239 219.339C253.04 218.242 252.776 216.706 253.336 215.532C254.499 213.206 258.119 212.756 256.397 208.708C255.179 205.878 253.105 206.514 251.021 205.493C250.439 205.175 250.066 202.948 250.593 203.42Z" fill="#2C4153"/>
<g style="mix-blend-mode:multiply" opacity="0.4">
<path d="M276.869 288.589L265.7 284.551C265.7 284.551 269.112 301.732 281.301 301.809C279.809 297.014 278.163 292.626 276.869 288.589Z" fill="#486985"/>
</g>
<g style="mix-blend-mode:multiply" opacity="0.6">
<path d="M251.045 205.491C251.045 205.491 250.343 202.485 256.377 194.86C257.716 193.212 258.601 191.242 258.944 189.146C259.286 187.05 259.075 184.902 258.33 182.913C257.598 182.038 256.676 181.344 255.634 180.881C254.592 180.419 253.457 180.202 252.318 180.247C229.279 179.632 229.41 210.044 247.776 213.467C249.663 209.375 251.045 205.491 251.045 205.491Z" fill="#2C4153"/>
</g>
<path d="M250.593 203.42C251.251 204.012 250.593 202.773 250.374 202.487C249.536 201.447 248.379 200.711 247.082 200.392C243.688 200.663 240.315 201.165 236.989 201.895C231.931 203.793 228.037 212.043 232.535 216.552C234.488 218.494 236.364 217.09 238.174 218.001C238.81 218.319 239.633 220.272 240.368 220.842C241.356 221.494 242.483 221.904 243.659 222.038C244.625 220.425 245.173 218.593 246.051 216.947C247.933 213.228 249.6 209.404 251.043 205.493C250.439 205.175 250.066 202.948 250.593 203.42Z" fill="#2C4153"/>
<g style="mix-blend-mode:multiply" opacity="0.4">
<path d="M250.593 203.42C251.251 204.012 250.593 202.773 250.374 202.487C249.536 201.447 248.379 200.711 247.082 200.392C243.688 200.663 240.315 201.165 236.989 201.895C231.931 203.793 228.037 212.043 232.535 216.552C234.488 218.494 236.364 217.09 238.174 218.001C238.81 218.319 239.633 220.272 240.368 220.842C241.356 221.494 242.483 221.904 243.659 222.038C244.625 220.425 245.173 218.593 246.051 216.947C247.933 213.228 249.6 209.404 251.043 205.493C250.439 205.175 250.066 202.948 250.593 203.42Z" fill="#2C4153"/>
</g>
<g style="mix-blend-mode:multiply" opacity="0.4">
<g style="mix-blend-mode:multiply" opacity="0.4">
<path d="M193.995 250.826C192.552 252.374 191.466 254.219 190.812 256.232C190.158 258.245 189.952 260.376 190.21 262.477L193.106 258.615C193.574 258.312 194.07 258.055 194.587 257.847C194.086 255.542 193.887 253.182 193.995 250.826Z" fill="#486985"/>
</g>
</g>
<g style="mix-blend-mode:multiply" opacity="0.4">
<g style="mix-blend-mode:multiply" opacity="0.4">
<path d="M274.577 244.641L276.673 256.841L288.741 267.296C290.595 262.634 293.052 260.187 295.883 259.902L274.577 244.641Z" fill="#486985"/>
</g>
</g>
<g style="mix-blend-mode:multiply" opacity="0.4">
<g style="mix-blend-mode:multiply" opacity="0.4">
<path d="M274.577 244.641L276.673 256.841L288.741 267.296C290.595 262.634 293.052 260.187 295.883 259.902L274.577 244.641Z" fill="#486985"/>
</g>
</g>
<g style="mix-blend-mode:multiply" opacity="0.4">
<path d="M264.635 328.828C257.438 324.253 254.048 316.047 252.468 309.08C251.721 305.785 252.256 302.33 253.963 299.414C255.67 296.499 258.423 294.342 261.662 293.381L274.575 289.552L268.288 280.424C266.795 278.255 265.892 275.734 265.669 273.11C265.446 270.486 265.91 267.849 267.016 265.459L270.779 257.297C270.909 257.015 270.981 256.709 270.991 256.398C271 256.088 270.947 255.778 270.835 255.488C270.722 255.199 270.552 254.934 270.335 254.712C270.118 254.489 269.859 254.312 269.572 254.192L256.407 248.761C251.075 242.179 247.004 230.001 243.713 224.076L241.157 223.978H240.74C239.807 223.978 238.875 223.868 237.942 223.78C237.01 223.692 236.33 223.671 235.551 223.671H234.925C234.366 223.671 233.828 223.671 233.269 223.747C232.94 223.747 232.621 223.835 232.292 223.868C231.963 223.901 231.491 223.956 231.107 224.022C230.723 224.087 230.01 224.241 229.549 224.362C229.396 224.362 229.231 224.417 229.078 224.46C226.687 225.076 224.383 225.99 222.221 227.181C219.983 228.358 217.916 229.835 216.077 231.57C216.077 231.57 214.256 233.237 211.59 235.618L211.458 236.276C211.458 236.276 215.912 235.113 218.282 242.102L219.379 248.235C219.414 248.419 219.389 248.61 219.308 248.78C219.227 248.949 219.094 249.089 218.929 249.178C212.917 252.382 206.093 262.618 206.093 262.618L218.008 254.225L217.635 254.916C217.262 258.273 219.741 264.79 219.741 264.79C219.741 264.79 226.73 288.367 219.544 299.272C212.358 310.178 212.83 343.091 212.83 343.091L214.728 395.752C214.728 395.752 223.241 401.292 246.664 403.278C251.412 403.695 256.19 403.637 260.927 403.103C262.199 399.241 265.315 391.759 265.315 391.759L270.724 341.621C271.014 339.132 270.597 336.611 269.52 334.349C268.443 332.086 266.75 330.173 264.635 328.828Z" fill="#486985"/>
</g>
<g style="mix-blend-mode:multiply" opacity="0.4">
<path d="M224.941 295.29L227.947 294.292C231.239 291.922 231.502 283.222 231.502 283.222L222.725 285.635C222.725 290.715 221.869 295.718 219.434 299.327L219.17 299.766C220.42 299.535 221.596 299.008 222.6 298.23C223.604 297.451 224.407 296.443 224.941 295.29Z" fill="#486985"/>
</g>
<g style="mix-blend-mode:multiply" opacity="0.4">
<path d="M218.975 249.203C218.48 249.474 218.001 249.77 217.538 250.092C217.839 250.108 218.138 250.031 218.395 249.872C218.652 249.714 218.854 249.48 218.975 249.203Z" fill="#486985"/>
</g>
<g style="mix-blend-mode:multiply" opacity="0.4">
<path d="M211.55 235.639L211.418 236.297C211.418 236.297 215.872 235.134 218.242 242.134L219.339 248.19C220.963 243.516 219.471 233.675 218.681 229.363C217.737 230.03 216.843 230.763 216.004 231.558C216.004 231.558 214.259 233.258 211.55 235.639Z" fill="#486985"/>
</g>
<path d="M232.183 277.812C231.656 276.309 228.892 279.787 228.091 280.62C225.107 283.605 223.483 285.272 219.314 283.177C208.661 277.856 210.724 262.496 200.301 257.636C197.789 256.462 190.954 257.504 190.427 260.873C189.9 264.241 191.579 267.883 193.51 270.637C198.995 278.503 205.633 283.495 212.896 289.551C215.09 291.383 215.617 294.674 218.305 296.024C223.143 298.438 222.375 293.698 223.253 293.259C224.13 292.82 224.898 293.424 225.743 292.787C227.619 291.383 226.961 289.211 228.19 287.576C230.888 283.989 233.576 281.838 232.183 277.812Z" fill="#F6C7BD"/>
<path d="M291.163 263.004C290.034 264.599 289.05 266.292 288.223 268.062C285.751 273.376 282.736 278.42 279.227 283.114C278.064 284.574 273.741 288.787 271.547 286.581C270.45 285.484 267.158 279.527 264.964 280.997C263.659 281.864 264.964 283.817 265.721 284.585C268.651 287.503 270.395 293.976 274.081 295.819C275.946 296.741 278.47 297.772 280.664 297.223C283.132 296.609 285.557 291.913 286.961 290.048C291.964 283.378 302.913 276.729 304.361 268.106C304.855 265.155 304.789 261.271 301.18 260.108C299.433 259.623 297.594 259.577 295.826 259.976C293.99 260.465 292.357 261.526 291.163 263.004Z" fill="#F6C7BD"/>
<g style="mix-blend-mode:multiply" opacity="0.4">
<path d="M218.317 296.027C219.1 296.496 220.004 296.725 220.917 296.685C221.261 295.838 221.551 294.969 221.784 294.085C216.917 288.402 211.692 283.037 206.139 278.023C200.257 272.691 196.226 265.624 194.63 257.847C194.147 258.045 191.448 255.653 190.944 255.971L190.362 262.313C190.596 265.334 191.693 268.224 193.522 270.64C199.008 278.506 205.645 283.498 212.908 289.554C215.113 291.386 215.629 294.677 218.317 296.027Z" fill="#F6C7BD"/>
</g>
<g style="mix-blend-mode:multiply" opacity="0.4">
<path d="M291.163 263.007C290.034 264.601 289.05 266.294 288.223 268.064C285.751 273.378 282.736 278.422 279.227 283.117C278.064 284.576 273.741 288.789 271.547 286.583C270.45 285.486 267.158 279.529 264.964 280.999C263.659 281.866 264.964 283.819 265.721 284.587C267.444 286.298 268.76 289.249 270.307 291.762C271.028 292.941 271.89 294.028 272.874 294.998C273.243 295.319 273.648 295.595 274.081 295.821C274.564 296.051 275.102 296.304 275.672 296.534C277.669 296.765 279.271 294.878 280.357 291.762C282.288 286.21 288.739 280.889 295.881 273.33C301.202 267.691 295.881 259.935 295.881 259.935C294.019 260.425 292.364 261.502 291.163 263.007Z" fill="#F6C7BD"/>
</g>
<path d="M333.637 161.983C332.704 163.454 331.311 164.792 330.554 166.306C330.247 166.931 331.19 168.698 331.355 169.367C331.64 170.464 327.855 174.699 326.9 175.182C326.231 175.511 329.095 177.135 328.952 177.617C328.019 180.415 327.273 186.262 328.952 188.983C330.049 190.859 333.648 188.468 334.065 188.885C334.137 190.389 334.086 191.897 333.911 193.394C333.911 193.449 332.32 193.449 332.913 194.041C336.61 197.738 343.214 197.892 347.877 196.147C349.433 195.525 350.924 194.753 352.331 193.843C353.298 193.333 354.291 192.871 355.305 192.461C355.305 192.461 351.289 192.999 351.026 191.935C350.159 188.435 352.353 185.824 353.78 182.982C356.204 178.144 357.981 163.64 353.286 159.943C349.698 157.123 343.84 156.652 339.616 157.99C337.927 158.563 336.376 159.482 335.063 160.689C334.55 161.078 334.073 161.511 333.637 161.983Z" fill="#F6C7BD"/>
<g style="mix-blend-mode:multiply" opacity="0.4">
<path d="M344.18 182.695C341.811 178.515 342.041 164.593 342.326 157.462C341.389 157.568 340.464 157.759 339.562 158.032C337.872 158.605 336.322 159.524 335.009 160.731C334.516 161.119 334.057 161.549 333.637 162.015C332.705 163.485 331.311 164.824 330.554 166.338C330.247 166.963 331.191 168.729 331.355 169.398C331.64 170.496 327.855 174.73 326.901 175.213C326.232 175.542 329.095 177.166 328.952 177.649C328.02 180.446 327.274 186.294 328.952 189.015C330.05 190.891 333.648 188.499 334.065 188.916C334.138 190.421 334.086 191.929 333.911 193.425C333.911 193.48 332.321 193.48 332.913 194.072C334.435 195.519 336.338 196.501 338.399 196.903C336.248 187.764 347.417 188.4 344.18 182.695Z" fill="#F6C7BD"/>
</g>
<g style="mix-blend-mode:multiply" opacity="0.4">
<path d="M344.606 183.662C344.606 183.662 335.741 188.335 332.329 189.29C332.329 189.29 342.686 183.695 343.717 181.687L344.606 183.662Z" fill="#F6C7BD"/>
</g>
<path d="M335.827 152.883C334.95 153.26 334.172 153.834 333.554 154.561C332.935 155.288 332.493 156.148 332.262 157.074C330.243 164.117 339.843 161.155 340.183 164.161C340.199 165.983 339.917 167.795 339.349 169.526C339.349 169.745 338.405 171.72 338.603 171.797C340.227 172.609 342.311 167.902 342.311 175.275C342.311 177.195 340.303 183.744 342.125 185.555C342.256 185.686 342.882 185.642 343.046 185.642C345.877 185.642 348.608 186.476 351.384 186.476C351.45 186.476 351.955 186.531 351.988 186.476C355.279 181.55 364.165 169.296 363.332 163.437C362.015 154.232 347.632 154.408 341.006 154.408C339.626 154.551 338.232 154.443 336.891 154.09C336.123 153.793 336.924 152.51 335.827 152.883Z" fill="#2C4153"/>
<path d="M298.001 182.675C299.164 181.995 300.196 181.172 301.369 180.481C303.147 179.329 305.868 177.771 308.018 177.617C310.914 177.409 314.963 178.55 317.508 176.63C320.679 174.249 324.716 170.157 322.993 168.051C322.686 167.656 321.611 168.051 321.326 168.248C320.229 169.038 314.096 173.13 315.95 169.927C318.089 166.208 324.222 166.109 327.25 166.635C327.788 166.712 328.271 165.538 327.733 165.099C327.382 164.803 325.989 164.759 326.427 164.65C326.866 164.54 330.344 164.551 329.609 163.432C329.17 162.774 327.294 162.697 327.042 162.203C326.943 161.984 330.004 161.391 329.028 160.601C326.702 158.747 320.317 159.427 317.716 160.13C312.966 161.391 311.134 167.305 307.469 170.004C304.079 172.538 297.968 173.558 293.887 174.491C292.527 174.809 289.916 175.094 288.917 176.092C288.511 176.498 289.576 177.804 289.762 178.1C291.101 180.24 293.229 181.765 294.6 183.717C295.653 185.111 297.65 182.916 298.001 182.675Z" fill="#F6C7BD"/>
<g style="mix-blend-mode:multiply" opacity="0.4">
<path d="M317.75 160.042C312.999 161.304 311.167 167.217 307.503 169.916C304.112 172.45 298.002 173.471 293.92 174.403C292.56 174.721 289.949 175.007 288.95 176.005C288.545 176.411 289.609 177.716 289.795 178.013C290.126 178.514 290.492 178.991 290.892 179.439L291.594 178.77C291.594 178.77 307.415 172.659 309.335 172.472C311.255 172.286 313.164 166.032 313.164 166.032C313.164 166.032 319.944 158.451 327.108 162.083C327.108 162.083 327.196 161.973 327.371 161.907L329.236 160.645C329.199 160.583 329.15 160.527 329.094 160.481C326.735 158.66 320.405 159.34 317.75 160.042Z" fill="#F6C7BD"/>
</g>
<path d="M320.251 196.544C324.08 195.249 324.639 195.699 329.028 194.459C329.675 194.284 333.416 193.428 333.416 193.428C334.338 194.248 335.334 194.983 336.389 195.622C339.03 196.635 341.89 196.938 344.683 196.5C346.878 196.193 354.777 192.111 355.468 192.43C360.46 195.114 365.018 198.539 368.984 202.589C371.179 204.783 374.36 206.483 375.567 208.952C380.021 217.861 373.603 229.742 372.056 239.013C371.168 244.389 370.959 249.896 370.06 255.305C368.304 265.815 373.472 283.446 366.296 290.621C365.364 291.564 368.403 297.291 366.922 298.761C362.643 303.051 329.466 303.468 323.202 301.899C321.172 301.394 314.129 301.844 312.692 300.396C311.649 299.299 313.997 292.354 313.065 291.882C308.775 289.688 310.179 283.533 310.179 279.101C310.179 266.879 311.803 254.603 311.803 242.392C311.803 238.607 309.51 230.324 311.178 227.032C312.56 224.268 313.822 221.097 315.445 218.255C316.85 215.787 319.955 200.998 319.955 197.707C320.031 197.037 319.538 196.796 320.251 196.544Z" fill="#E7EEF7"/>
<g style="mix-blend-mode:multiply" opacity="0.6">
<path d="M322.247 283.227C322.554 279.112 326.8 240.264 326.8 240.264C326.8 240.264 332.538 207.789 329.74 204.322C326.942 200.856 329.06 194.448 329.06 194.448C324.671 195.688 324.079 195.238 320.283 196.533C319.57 196.785 320.063 197.027 320.063 197.63C320.063 200.921 316.959 215.71 315.554 218.179C313.931 221.009 312.669 224.18 311.287 226.956C309.619 230.247 311.912 238.574 311.912 242.315C311.912 254.526 310.288 266.803 310.288 279.025C310.288 283.413 308.884 289.656 313.174 291.806C314.106 292.278 311.758 299.277 312.801 300.32C314.238 301.768 321.281 301.318 323.311 301.823L326.833 294.911C326.833 294.911 321.95 287.352 322.247 283.227Z" fill="#E7EEF7"/>
</g>
<path d="M365.801 359.049C365.56 357.831 368.61 333.146 368.61 330.996C368.61 328.845 367.929 302.602 367.929 302.602L365.735 299.585C358.308 303.096 329.114 303.359 323.277 301.9C321.423 301.439 315.345 301.769 313.239 300.715L312.723 300.946L309.223 308.988L317.792 350.776V361.045C317.792 361.045 317.671 364.337 321.851 368.221L321.62 376.12C321.62 376.12 319.218 381.265 320.776 385.335L320.688 438.545C320.688 438.545 324.385 444.919 343.936 440.037L344.177 346.783L347.721 374.397L350.409 433.904C350.409 433.904 357.979 446.982 372.164 433.29L369.103 368.561C369.103 368.561 366.053 360.266 365.801 359.049Z" fill="#486985"/>
<path d="M289.62 176.388C289.302 175.51 294.426 182.685 295.424 184.693C296.729 187.304 287.382 186.986 291.65 189.553C292.484 190.047 311.102 193.349 313.833 193.942C316.093 194.391 320.416 195.5 321.371 197.924C324.3 205.253 319.593 224.672 311.804 227.787C311.08 228.084 312.023 234.458 311.08 229.982C310.772 228.512 309.697 223.399 308.984 222.159C307.317 219.241 302.16 216.74 299.187 215.423C290.531 211.572 272.758 204.518 271.002 193.964C269.697 186.152 274.403 184.978 278.825 180.557C279.922 179.46 279.11 177.88 281.655 176.783C282.61 176.377 287.239 173.02 288.391 174.172C288.874 174.589 290.619 179.109 289.62 176.388Z" fill="#D0DEEF"/>
<path d="M382.115 223.701C382.115 223.602 382.038 223.515 382.016 223.416C381.994 223.317 382.016 222.966 382.016 222.747C381.336 217.316 381.599 213.257 376.443 210.931C379.197 219.565 373.568 230.415 372.131 239.017C371.243 244.393 371.034 249.9 370.134 255.309C368.972 262.264 370.848 272.336 370.134 280.433C373.898 278.578 377.518 273.411 379.493 271.14C385.648 264.108 383.464 233.125 382.115 223.701Z" fill="#D0DEEF"/>
<g style="mix-blend-mode:multiply" opacity="0.4">
<path d="M370.168 280.433C373.931 278.578 377.552 273.411 379.526 271.14C379.751 270.881 379.957 270.606 380.141 270.317C379.252 265.687 378.1 259.774 377.201 255.956C375.533 248.891 378.693 212.324 378.693 212.324C378.031 211.758 377.292 211.288 376.498 210.931C379.252 219.565 373.624 230.415 372.187 239.017C371.298 244.393 371.09 249.9 370.19 255.309C368.972 262.264 370.87 272.336 370.168 280.433Z" fill="#D0DEEF"/>
</g>
<g style="mix-blend-mode:multiply" opacity="0.6">
<path d="M340.294 171.858C339.866 171.858 340.963 171.672 341.128 172.374C341.183 172.55 341.687 176.708 342.027 176.016C342.466 175.139 342.938 171.551 342.027 170.86C341.117 170.169 339.361 171.705 339.581 171.957C339.8 172.209 340.36 171.858 340.294 171.858Z" fill="#F6C7BD"/>
</g>
<g style="mix-blend-mode:multiply" opacity="0.4">
<path d="M312.723 300.946L309.223 308.987L317.792 350.776V361.045C317.792 361.045 317.671 364.337 321.851 368.22L321.62 376.119C321.62 376.119 319.218 381.265 320.776 385.335L320.688 438.545C320.688 438.545 322.356 441.408 329.344 441.836C333.425 424.392 329.103 392.872 328.598 386.981C328.06 380.771 328.598 363.942 328.598 363.942L330.332 337.611L338.428 335.79C338.771 335.714 339.079 335.528 339.304 335.259C339.529 334.99 339.66 334.655 339.675 334.304C339.69 333.954 339.589 333.609 339.387 333.322C339.185 333.035 338.895 332.822 338.56 332.718L333.162 330.995C328.598 328.626 328.071 323.765 328.423 318.642C329.059 309.24 323.277 301.944 323.277 301.944C321.423 301.483 315.345 301.812 313.239 300.759L312.723 300.946Z" fill="#486985"/>
</g>
<g style="mix-blend-mode:multiply" opacity="0.4">
<path d="M283.782 194.459C281.226 191.343 290.53 188.468 290.541 188.468C290.541 188.468 285.055 183.795 283.343 180.262C281.632 176.729 288.829 179.055 288.829 179.055L289.553 176.521C289.234 175.685 288.838 174.88 288.368 174.118C287.216 172.966 282.586 176.312 281.632 176.729C279.087 177.826 279.942 179.362 278.801 180.503C274.413 184.892 269.674 186.099 270.979 193.91C272.734 204.464 290.508 211.519 299.164 215.37C302.137 216.686 307.293 219.188 308.961 222.106C309.674 223.368 310.749 228.458 311.056 229.928C312 234.426 311.056 228.052 311.781 227.734C319.57 224.618 324.277 205.199 321.347 197.871C321.136 197.376 320.818 196.933 320.415 196.576C320.415 196.576 286.393 197.585 283.782 194.459Z" fill="#D0DEEF"/>
</g>
<g style="mix-blend-mode:multiply" opacity="0.4">
<path d="M341.006 154.395C339.626 154.538 338.233 154.43 336.892 154.076C336.124 153.758 336.892 152.475 335.794 152.848C334.918 153.225 334.14 153.799 333.521 154.526C332.903 155.253 332.46 156.113 332.229 157.039C330.21 164.082 339.81 161.12 340.15 164.126C340.166 165.948 339.885 167.76 339.316 169.491C339.316 169.71 338.373 171.685 338.57 171.762C340.194 172.574 342.278 167.867 342.278 175.24C342.278 177.16 340.271 183.709 342.092 185.52C342.224 185.651 342.849 185.607 343.013 185.607C343.507 185.607 347.171 186.057 347.654 186.09C348.038 185.278 346.557 185.454 345.46 180.221C344.308 174.735 340.677 162.864 347.095 154.449L341.006 154.395Z" fill="#2C4153"/>
</g>
<g style="mix-blend-mode:multiply" opacity="0.4">
<g style="mix-blend-mode:multiply" opacity="0.4">
<path d="M365.2 359.555C364.103 362.528 361.908 365.04 360.811 367.969C360.804 368.004 360.811 368.04 360.829 368.071C360.847 368.101 360.876 368.124 360.91 368.134C363.39 368.518 365.299 366.686 366.549 364.777C366.648 364.634 366.418 364.492 366.319 364.645C365.112 366.422 363.324 368.233 360.987 367.871L361.075 368.035C362.172 365.062 364.366 362.55 365.463 359.631C365.529 359.467 365.266 359.39 365.2 359.555Z" fill="#486985"/>
</g>
</g>
<g style="mix-blend-mode:multiply" opacity="0.4">
<g style="mix-blend-mode:multiply" opacity="0.4">
<path d="M322.984 369.202C324.498 368.434 325.858 367.402 327.372 366.634L327.186 366.448C325.366 370.001 323.772 373.665 322.413 377.419C322.348 377.584 322.622 377.66 322.677 377.496C324.03 373.743 325.617 370.079 327.427 366.525C327.44 366.497 327.444 366.467 327.439 366.437C327.433 366.407 327.418 366.38 327.397 366.359C327.375 366.339 327.347 366.326 327.317 366.322C327.287 366.318 327.256 366.324 327.23 366.338C325.727 367.106 324.355 368.127 322.841 368.895C322.688 368.971 322.841 369.213 322.984 369.136V369.202Z" fill="#486985"/>
</g>
</g>
<g style="mix-blend-mode:multiply" opacity="0.4">
<path d="M363.247 439.064L360.405 376.759L356.171 363.945L361.503 331.141C361.503 331.141 353.965 325.546 350.323 317.68C350.323 317.68 352.517 327.367 350.323 332.48L344.179 346.808L347.723 374.422L350.411 433.929C350.411 433.929 354.832 441.576 363.247 439.064Z" fill="#486985"/>
</g>
<path d="M164.427 198.462C159.852 198.583 155.541 200.206 151.054 201.435L150.834 201.622L152.688 201.194C151.881 201.32 151.099 201.575 150.373 201.951C148.618 203.278 143.231 207.316 139.731 209.4C137.555 210.585 135.629 212.179 134.059 214.096L131.075 239.68C131.075 239.68 126.5 270.048 128.881 272.89C131.262 275.731 143.308 276.181 143.308 276.181L140.455 296.061V301.744C140.455 301.744 148.914 307.811 162.815 309.577C176.046 311.256 193.204 301.689 194.85 300.8C194.203 296.039 191.625 292.023 189.99 287.13C189.211 284.793 187.291 276.85 189.277 274.865C194.587 274.283 200.566 269.105 200.566 269.105C201.868 267.65 202.901 265.974 203.616 264.157C204.56 261.359 199.546 255.139 199.546 255.139L196.463 245.451C196.463 245.451 195.366 222.96 195.497 219.768C195.476 217.66 194.913 215.594 193.863 213.767C194.291 211.572 192.096 209.279 192.096 209.279L179.82 202.313L179.556 201.655C176.748 200.349 172.864 200.031 169.968 199.208C168.17 198.677 166.301 198.425 164.427 198.462Z" fill="white"/>
<path d="M189.986 287.147C189.832 286.675 189.624 285.962 189.415 285.128C188.472 284.262 187.726 284.262 187.364 285.633C185.674 292.095 183.03 295.024 183.03 295.024L173.628 289.539L166.914 272.885L163.162 241.935L169.964 233.52C169.964 233.52 172.794 211.874 170.721 201.704C166.497 201.145 162.438 200.662 161.516 200.717C159.949 200.935 158.396 201.243 156.864 201.638C155.998 208.473 152.904 230.163 148.899 227.102C145.345 224.359 141.966 215.725 141.9 207.947C141.132 208.451 140.397 208.923 139.705 209.329C137.53 210.514 135.603 212.108 134.033 214.025L131.049 239.609C131.049 239.609 126.474 269.977 128.855 272.819C131.236 275.66 143.282 276.11 143.282 276.11L140.43 295.99V301.673C140.43 301.673 148.888 307.74 162.789 309.506C176.02 311.185 193.179 301.618 194.824 300.729C194.199 296.023 191.621 292.018 189.986 287.147Z" fill="#E5EFF9"/>
<path d="M178.189 162.814C178.891 164.658 183.192 170.637 182.358 172.348C180.943 175.256 181.524 175.047 182.621 177.132C183.543 178.887 183.038 186.227 182.314 189.112C181.809 191.153 178.529 190.143 177.531 191.142C176.532 192.14 178.068 195.53 177.004 196.627C176.938 196.682 172.21 194.181 171.606 193.994C170.224 193.577 165.847 194.082 164.969 193.204C164.475 192.7 164.969 190.275 164.881 189.518C164.706 186.227 163.784 182.935 164.355 179.644C165.336 174.617 167.984 170.068 171.87 166.731C173.13 165.567 174.53 164.565 176.039 163.747C176.521 163.429 178.189 162.803 178.189 162.814Z" fill="#F6C7BD"/>
<path d="M177.896 162.509C180.288 164.034 178.884 171.857 178.884 174.578C178.884 175.049 179.344 177.573 178.971 177.957C178.392 177.421 177.864 176.833 177.391 176.201C177.136 175.845 176.791 175.562 176.391 175.381C175.991 175.201 175.55 175.129 175.114 175.174C174.677 175.218 174.26 175.377 173.905 175.635C173.55 175.892 173.269 176.239 173.091 176.64C172.564 177.737 173.65 179.756 173.354 180.37C172.016 183.047 173.157 186.536 171.5 189.016C170.611 190.365 161.341 194.227 160.046 192.932C155.658 188.489 148.307 175.96 148.932 169.608C149.349 165.526 150.743 159.734 156.404 156.925C162.822 153.743 169.843 152.416 175.461 155.477C177.841 156.782 179.41 156.991 179.41 159.69C179.41 160.567 178.017 160.535 177.918 161.401C177.896 161.599 177.688 162.378 177.896 162.509Z" fill="#2C4153"/>
<path d="M131.232 274.26C131.682 279.932 135.314 288.072 137.716 291.912C138.649 293.404 139.417 295.116 140.393 296.575H140.448V296.026L143.301 276.169C143.301 276.169 135.511 275.884 131.232 274.26Z" fill="#F6C7BD"/>
<path d="M194.651 299.945C194.651 300.23 194.794 300.494 194.838 300.779C193.192 301.711 176.033 311.278 162.802 309.556C149.571 307.833 141.639 302.512 140.783 301.876C137.7 310.521 138.457 323.006 138.457 323.006L140.147 363.172C139.1 364.534 138.399 366.13 138.106 367.823C137.393 371.038 137.656 378.29 137.656 378.29C132.621 389.371 136.658 403.523 136.658 403.523C137.893 408.175 138.487 412.973 138.424 417.786C138.084 424.5 139.521 427.122 139.521 427.122L138.83 432.311C150.328 436.7 156.812 431.061 156.812 431.061C156.812 431.061 156.549 424.259 156.549 423.589C156.549 422.92 155.539 416.118 155.792 414.11C156.044 412.103 156.439 408.526 156.439 408.526V380.21C156.439 380.21 159.061 375.931 159.467 372.892C159.662 370.628 159.499 368.347 158.984 366.134C160.883 360.563 162.422 354.875 163.592 349.107C164.744 342.359 167.037 329.699 167.037 329.699C167.037 329.699 166.313 363.106 166.313 364.093C166.313 365.081 164.579 371.411 165.161 374.208C165.764 376.766 166.095 379.381 166.148 382.009C166.148 384.73 165.238 384.993 166.269 394.571C167.3 404.149 168.617 437.018 168.617 437.018C181.782 439.991 188.957 432.202 188.957 432.202L187.86 422.701C187.86 422.701 185.797 402.711 185.743 396.37C185.688 390.029 183.987 391.334 185.743 386.496C186.794 383.91 187.072 381.075 186.543 378.334L187.509 374.658L186.873 365.651L187.717 357.379C187.717 357.379 189.912 349.326 192.918 337.357C195.924 325.387 195.935 300.187 195.935 300.187L194.651 299.945Z" fill="#2C4153"/>
<g style="mix-blend-mode:multiply">
<g style="mix-blend-mode:multiply">
<path d="M132.363 266.182C135.918 267.959 140.811 271.481 144.925 271.481L143.082 268.826L132.363 266.182Z" fill="#E5EFF9"/>
</g>
<g style="mix-blend-mode:multiply">
<path d="M182.709 266.105C182.709 262.715 179.363 257.986 179.045 254.146C178.464 247.202 181.382 240.816 181.382 234.091L177.948 236.779C178.16 240.371 178.16 243.972 177.948 247.564C177.586 253.049 176.785 257.207 183.027 266.017C185.672 269.758 197.027 260.104 199.1 255.946" fill="#E5EFF9"/>
</g>
<g style="mix-blend-mode:multiply">
<path d="M182.709 266.105C182.709 262.715 179.363 257.986 179.045 254.146C178.464 247.202 181.382 240.816 181.382 234.091L177.948 236.779C178.16 240.371 178.16 243.972 177.948 247.564C177.586 253.049 176.785 257.207 183.027 266.017C185.672 269.758 197.027 260.104 199.1 255.946" fill="#E5EFF9"/>
</g>
<g style="mix-blend-mode:multiply">
<path d="M181.381 234.093C181.381 238.273 180.284 242.321 179.538 246.457C179.352 249.112 179.165 251.855 179.044 254.137C179.33 257.549 182.007 261.674 182.588 264.921C182.819 265.24 183.027 265.536 183.213 265.777L187.602 263.045C187.415 260.16 186.582 247.62 186.296 240.006C185.967 231.383 189.028 215.124 189.028 215.124C186.033 215.124 182.05 229.507 180.745 234.542L181.381 234.093Z" fill="#E5EFF9"/>
</g>
<g style="mix-blend-mode:multiply">
<path d="M190.323 264.601C187.854 266.235 185.462 267.234 183.981 266.729L184.091 266.861L181.645 267.651L184.936 275.155C187.13 276.691 194.81 273.52 194.81 273.52L190.29 264.601H190.323Z" fill="#E5EFF9"/>
</g>
</g>
<g style="mix-blend-mode:multiply">
<path d="M147.572 204.032C147.572 204.032 159.421 200.916 161.516 200.741C163.611 200.565 181.648 203.253 181.648 203.253L180.836 198.404L169.635 196.539H157.566C157.566 196.539 148 201.081 147.572 204.032Z" fill="#E5EFF9"/>
</g>
<g style="mix-blend-mode:multiply">
<path d="M147.572 204.032C147.572 204.032 159.421 200.916 161.516 200.741C163.611 200.565 181.648 203.253 181.648 203.253L180.836 198.404L169.635 196.539H157.566C157.566 196.539 148 201.081 147.572 204.032Z" fill="#E5EFF9"/>
</g>
<g style="mix-blend-mode:multiply">
<path d="M135.932 217.332C139.223 217.332 144.149 214.15 147.693 213.47C159.652 211.188 173.497 211.583 184.501 217.09" stroke="#E5EFF9" stroke-width="0.75" stroke-miterlimit="10"/>
</g>
<g style="mix-blend-mode:multiply">
<path d="M192.368 212.71C190.821 212.71 186.323 215.892 186.323 217.614" stroke="#E5EFF9" stroke-width="0.75" stroke-miterlimit="10"/>
</g>
<path d="M148.723 202.09C155.909 200.488 162.272 196.955 169.963 199.15C173.254 200.093 177.961 200.247 180.747 202.156C181.789 202.565 182.865 202.885 183.962 203.11C184.532 202.013 183.128 200.433 182.733 199.49C179.957 192.83 183.523 195.902 175.36 193.072C172.738 192.161 157.445 191.547 154.91 193.445C153.495 194.542 151.367 194.256 150.434 195.803C149.765 196.9 149.107 197.998 148.525 199.15C147.913 200.374 147.228 201.561 146.474 202.704C144.751 205.293 150.862 201.201 152.683 201.201" fill="white"/>
<g style="mix-blend-mode:multiply">
<path d="M135.645 238.388C135.655 239.5 135.81 240.607 136.105 241.679L135.645 238.388Z" fill="#E5EFF9"/>
</g>
<g style="mix-blend-mode:multiply">
<path d="M137.237 251.013C135.47 247.25 133.945 244.639 133.945 244.639L135.613 238.386L133.068 222.28L131.038 239.68C131.038 239.68 126.463 270.048 128.844 272.89C129.875 274.129 132.739 274.908 135.646 275.402L137.237 275.633C136.502 272.341 137.094 255.171 137.237 251.013Z" fill="#E5EFF9"/>
</g>
<g style="mix-blend-mode:multiply">
<path d="M143.085 271.488C142.91 271.488 143.019 269.864 143.008 269.688C142.657 265.53 142.383 261.361 142.065 257.203C141.549 250.412 135.669 245.135 135.669 238.388L134.001 244.641C134.001 244.641 143.601 261.471 143.085 271.488Z" fill="#E5EFF9"/>
</g>
<path d="M175.359 193.075C172.737 192.165 157.443 191.55 154.909 193.448C154.152 193.919 153.321 194.26 152.452 194.457C152.452 194.457 154.909 198.221 157.125 199.691L157.817 199.537C161.135 198.515 164.638 198.241 168.074 198.736L168.458 198.791H168.568C169.041 198.866 169.507 198.979 169.962 199.131L176.467 193.426L175.359 193.075Z" fill="#E5EFF9"/>
<g style="mix-blend-mode:multiply" opacity="0.4">
<path d="M137.354 275.642C135.272 275.392 133.22 274.929 131.232 274.26C131.682 279.932 135.314 288.072 137.716 291.912C138.649 293.404 139.417 295.116 140.393 296.575H140.448V296.026L141.49 288.742C139.607 284.551 138.219 280.155 137.354 275.642Z" fill="#F6C7BD"/>
</g>
<g style="mix-blend-mode:multiply" opacity="0.6">
<path d="M165.159 192.204C166.497 191.74 167.805 191.194 169.076 190.569C168.483 181.43 162.197 170.689 160.222 168.561C155.471 163.459 157.94 156.175 157.94 156.175C157.424 156.405 156.909 156.635 156.404 156.888C150.743 159.696 149.35 165.489 148.933 169.57C148.329 175.703 155.109 187.574 159.575 192.39C161.253 192.247 163.206 192.193 165.159 192.204Z" fill="#2C4153"/>
</g>
<g style="mix-blend-mode:multiply" opacity="0.4">
<path d="M161.517 321.147C160.343 318.569 159.981 313.357 159.948 309.144C153.144 308.066 146.628 305.621 140.793 301.958C137.71 310.604 138.467 323.089 138.467 323.089L140.157 363.254C139.109 364.616 138.409 366.213 138.116 367.906C137.403 371.12 137.666 378.372 137.666 378.372C132.63 389.453 136.668 403.606 136.668 403.606C137.903 408.257 138.497 413.056 138.434 417.868C138.094 424.582 139.531 427.204 139.531 427.204L138.84 432.394C150.338 436.782 156.822 431.143 156.822 431.143C156.822 431.143 156.822 430.77 156.822 430.189C156.646 426.041 155.725 409.267 152.499 399.085C148.747 387.401 153.322 370.561 155.154 360.884C156.986 351.208 166.816 331.174 166.838 331.131C166.838 331.131 163.514 325.535 161.517 321.147Z" fill="#2C4153"/>
</g>
<path d="M158.665 365.679C156.295 368.049 153.673 370.364 150.316 371.165L150.469 371.362C153.069 367.665 156.284 364.461 158.884 360.764C158.983 360.611 158.741 360.479 158.643 360.621C156.042 364.319 152.828 367.533 150.228 371.231C150.162 371.329 150.283 371.45 150.381 371.428C153.793 370.649 156.459 368.312 158.862 365.942C158.983 365.811 158.785 365.624 158.665 365.745V365.679Z" fill="black"/>
<path d="M140.035 363.332C140.693 363.826 141.351 364.298 141.977 364.824C142.598 365.343 143.158 365.932 143.644 366.58C143.754 366.711 143.995 366.58 143.886 366.437C143.385 365.772 142.81 365.165 142.174 364.627C141.538 364.089 140.847 363.596 140.177 363.102C140.035 362.992 139.903 363.234 140.035 363.332Z" fill="black"/>
<g style="mix-blend-mode:multiply" opacity="0.4">
<path d="M194.848 300.778C193.203 301.71 176.044 311.277 162.813 309.555C161.299 309.357 159.862 309.116 158.424 308.831C157.415 312.012 159.949 318.09 161.463 321.118C162.659 323.521 164.173 332.353 165.248 339.385C166.159 334.251 166.993 329.654 166.993 329.654C166.993 329.654 166.269 363.061 166.269 364.048C166.269 365.035 164.535 371.366 165.117 374.163C165.72 376.721 166.051 379.336 166.104 381.964C166.104 384.685 165.194 384.948 166.225 394.526C167.256 404.104 168.573 436.973 168.573 436.973C181.738 439.946 188.913 432.157 188.913 432.157V432.036L184.459 413.188L181.036 384.783L182.802 379.21L181.65 374.58V364.849C181.65 364.849 186.971 330.06 195.397 317.509C195.935 308.315 195.924 300.229 195.924 300.229L194.695 299.944C194.739 300.229 194.805 300.504 194.848 300.778Z" fill="#2C4153"/>
</g>
<path d="M200.291 271.837L200.565 269.084C200.499 269.084 194.575 274.251 189.308 274.843C188.839 278.945 189.073 283.097 190 287.12C192.106 293.461 195.836 298.311 194.838 305.244C194.564 307.23 191.755 318.947 193.741 319.935C196.747 321.427 195.035 310.642 197.394 313.001C200.356 315.952 193.774 325.497 195.606 326.726C199.182 329.106 205.381 320.604 205.381 317.773C205.359 301.788 200.291 288.546 200.291 271.837Z" fill="#F6C7BD"/>
<g style="mix-blend-mode:multiply" opacity="0.4">
<path d="M200.451 311.696C200.078 307.527 197.883 299.77 197.159 294.295C196.435 288.821 194.801 273.527 194.548 273.253L194.384 273.154C192.785 274.007 191.052 274.578 189.26 274.844C188.791 278.945 189.025 283.097 189.951 287.12C192.058 293.462 195.788 298.311 194.79 305.245C194.515 307.23 191.707 318.947 193.692 319.935C196.699 321.427 194.987 310.642 197.346 313.001C200.231 315.876 194.054 324.993 195.459 326.594C195.626 326.559 195.779 326.475 195.898 326.353C197.335 324.707 200.813 315.865 200.451 311.696Z" fill="#F6C7BD"/>
</g>
<path d="M182.164 378.851C180.297 380.538 178.176 381.919 175.878 382.943C175.757 382.943 175.812 383.151 175.878 383.195C177.395 383.668 178.987 383.854 180.573 383.744C180.603 383.735 180.629 383.717 180.648 383.693C180.666 383.668 180.677 383.638 180.677 383.607C180.677 383.576 180.666 383.546 180.648 383.521C180.629 383.496 180.603 383.478 180.573 383.47C179.014 383.578 177.447 383.396 175.954 382.932V383.184C178.269 382.148 180.406 380.752 182.285 379.048C182.311 379.023 182.326 378.989 182.327 378.953C182.328 378.917 182.315 378.882 182.29 378.856C182.265 378.83 182.231 378.815 182.195 378.814C182.159 378.813 182.124 378.826 182.098 378.851H182.164Z" fill="black"/>
<path d="M167.514 331.026C168.684 330.186 169.996 329.561 171.387 329.183C172.793 328.857 174.224 328.652 175.665 328.569V328.306C173.345 328.841 171.172 329.882 169.302 331.355C169.159 331.465 169.357 331.663 169.489 331.553C171.33 330.114 173.465 329.095 175.742 328.569C175.772 328.56 175.798 328.542 175.817 328.518C175.835 328.493 175.846 328.463 175.846 328.432C175.846 328.401 175.835 328.371 175.817 328.346C175.798 328.321 175.772 328.303 175.742 328.295C174.264 328.38 172.796 328.589 171.354 328.92C169.943 329.308 168.61 329.94 167.415 330.785C167.272 330.884 167.415 331.125 167.558 331.026H167.514Z" fill="black"/>
<path d="M138.83 328.301C140.607 330.594 142.417 332.963 145.193 334.093L145.27 333.83C144.524 333.578 143.811 333.26 143.076 333.007C142.9 333.007 142.834 333.216 142.999 333.271C143.745 333.523 144.458 333.841 145.193 334.093C145.369 334.148 145.423 333.896 145.27 333.83C142.549 332.733 140.761 330.352 139.016 328.103C138.907 327.961 138.72 328.103 138.83 328.301Z" fill="black"/>
<path d="M255.545 145.156H225.071C222.936 145.156 221.206 146.886 221.206 149.021V168.436C221.206 170.571 222.936 172.301 225.071 172.301H255.545C257.679 172.301 259.41 170.571 259.41 168.436V149.021C259.41 146.886 257.679 145.156 255.545 145.156Z" fill="#E9BB66"/>
<path d="M248.154 179.227L253.621 168.285H242.678L248.154 179.227Z" fill="#E9BB66"/>
<path d="M233.964 158.728C233.952 158.534 233.98 158.34 234.047 158.157C234.113 157.974 234.217 157.807 234.352 157.667C234.487 157.526 234.649 157.415 234.829 157.341C235.008 157.266 235.201 157.23 235.396 157.234C235.773 157.263 236.126 157.434 236.383 157.712C236.64 157.99 236.783 158.354 236.783 158.733C236.783 159.111 236.64 159.476 236.383 159.754C236.126 160.032 235.773 160.202 235.396 160.232C235.201 160.236 235.007 160.199 234.826 160.124C234.646 160.049 234.483 159.937 234.348 159.796C234.214 159.654 234.11 159.487 234.044 159.303C233.978 159.119 233.951 158.923 233.964 158.728Z" fill="white"/>
<path d="M238.893 158.729C238.911 158.453 239.009 158.189 239.175 157.968C239.341 157.747 239.569 157.58 239.829 157.487C240.09 157.394 240.371 157.38 240.64 157.446C240.908 157.511 241.152 157.654 241.34 157.857C241.528 158.059 241.653 158.313 241.698 158.585C241.744 158.858 241.709 159.138 241.597 159.391C241.485 159.644 241.301 159.858 241.069 160.008C240.836 160.157 240.565 160.235 240.289 160.232C240.097 160.232 239.906 160.191 239.73 160.114C239.554 160.037 239.396 159.924 239.265 159.783C239.134 159.643 239.034 159.476 238.97 159.295C238.906 159.114 238.88 158.921 238.893 158.729Z" fill="white"/>
<path d="M243.815 158.729C243.832 158.453 243.93 158.189 244.097 157.968C244.263 157.747 244.491 157.58 244.751 157.487C245.011 157.394 245.293 157.38 245.562 157.446C245.83 157.511 246.074 157.654 246.262 157.857C246.45 158.059 246.574 158.313 246.62 158.585C246.666 158.858 246.63 159.138 246.519 159.391C246.407 159.644 246.223 159.858 245.991 160.008C245.758 160.157 245.487 160.235 245.211 160.232C245.018 160.232 244.828 160.191 244.652 160.114C244.476 160.037 244.318 159.924 244.187 159.783C244.056 159.643 243.955 159.476 243.892 159.295C243.828 159.114 243.802 158.921 243.815 158.729Z" fill="white"/>
<path d="M368.279 116.525H337.805C335.67 116.525 333.939 118.255 333.939 120.39V139.805C333.939 141.94 335.67 143.67 337.805 143.67H368.279C370.413 143.67 372.144 141.94 372.144 139.805V120.39C372.144 118.255 370.413 116.525 368.279 116.525Z" fill="#E9BB66"/>
<path fill-rule="evenodd" clip-rule="evenodd" d="M352.728 136.656C349.022 136.656 346.018 133.652 346.018 129.946C346.018 126.24 349.022 123.235 352.728 123.235C356.434 123.235 359.439 126.24 359.439 129.946C359.439 133.652 356.434 136.656 352.728 136.656ZM352.728 135.985C356.064 135.985 358.768 133.281 358.768 129.946C358.768 126.61 356.064 123.906 352.728 123.906C349.393 123.906 346.689 126.61 346.689 129.946C346.689 133.281 349.393 135.985 352.728 135.985ZM355.846 127.622L356.321 128.096L351.912 132.505L349.136 129.728L349.611 129.254L351.912 131.556L355.846 127.622Z" fill="#313840"/>
<path d="M355.846 127.622L356.2 127.268C356.106 127.174 355.979 127.122 355.846 127.122C355.714 127.122 355.587 127.174 355.493 127.268L355.846 127.622ZM356.321 128.096L356.674 128.45C356.87 128.254 356.87 127.938 356.674 127.743L356.321 128.096ZM351.912 132.505L351.559 132.858C351.653 132.952 351.78 133.005 351.912 133.005C352.045 133.005 352.172 132.952 352.266 132.858L351.912 132.505ZM349.136 129.728L348.782 129.375C348.587 129.57 348.587 129.886 348.782 130.082L349.136 129.728ZM349.611 129.254L349.964 128.9C349.87 128.806 349.743 128.754 349.611 128.754C349.478 128.754 349.351 128.806 349.257 128.9L349.611 129.254ZM351.912 131.556L351.559 131.909C351.653 132.003 351.78 132.056 351.912 132.056C352.045 132.056 352.172 132.003 352.266 131.909L351.912 131.556ZM352.728 136.156C349.299 136.156 346.518 133.376 346.518 129.946H345.518C345.518 133.928 348.746 137.156 352.728 137.156V136.156ZM346.518 129.946C346.518 126.516 349.299 123.735 352.728 123.735V122.735C348.746 122.735 345.518 125.964 345.518 129.946H346.518ZM352.728 123.735C356.158 123.735 358.939 126.516 358.939 129.946H359.939C359.939 125.964 356.711 122.735 352.728 122.735V123.735ZM358.939 129.946C358.939 133.376 356.158 136.156 352.728 136.156V137.156C356.711 137.156 359.939 133.928 359.939 129.946H358.939ZM352.728 136.485C356.34 136.485 359.268 133.557 359.268 129.946H358.268C358.268 133.005 355.788 135.485 352.728 135.485V136.485ZM359.268 129.946C359.268 126.334 356.34 123.406 352.728 123.406V124.406C355.788 124.406 358.268 126.887 358.268 129.946H359.268ZM352.728 123.406C349.117 123.406 346.189 126.334 346.189 129.946H347.189C347.189 126.887 349.669 124.406 352.728 124.406V123.406ZM346.189 129.946C346.189 133.557 349.117 136.485 352.728 136.485V135.485C349.669 135.485 347.189 133.005 347.189 129.946H346.189ZM355.493 127.975L355.967 128.45L356.674 127.743L356.2 127.268L355.493 127.975ZM355.967 127.743L351.559 132.151L352.266 132.858L356.674 128.45L355.967 127.743ZM352.266 132.151L349.49 129.375L348.782 130.082L351.559 132.858L352.266 132.151ZM349.49 130.082L349.964 129.607L349.257 128.9L348.782 129.375L349.49 130.082ZM349.257 129.607L351.559 131.909L352.266 131.202L349.964 128.9L349.257 129.607ZM352.266 131.909L356.2 127.975L355.493 127.268L351.559 131.202L352.266 131.909Z" fill="white"/>
<path d="M344.774 150.596L350.249 139.644H339.307L344.774 150.596Z" fill="#E9BB66"/>
<path d="M479.146 169.313H447.718C445.517 169.313 443.732 171.097 443.732 173.299V193.322C443.732 195.523 445.517 197.308 447.718 197.308H479.146C481.348 197.308 483.132 195.523 483.132 193.322V173.299C483.132 171.097 481.348 169.313 479.146 169.313Z" fill="#E9BB66"/>
<path d="M434.149 183.479L445.434 189.126V177.832L434.149 183.479Z" fill="#E9BB66"/>
<mask id="path-149-outside-1_4647_78510" maskUnits="userSpaceOnUse" x="454.091" y="175.057" width="19" height="16" fill="black">
<rect fill="white" x="454.091" y="175.057" width="19" height="16"/>
<path fill-rule="evenodd" clip-rule="evenodd" d="M470.238 178.038L470.761 178.755L463.965 183.705L457.169 178.755L457.692 178.038L463.965 182.607L470.238 178.038ZM455.978 176.944V189.368H471.951V176.944H455.978ZM455.091 176.057H472.839V190.255H455.091V176.057Z"/>
</mask>
<path fill-rule="evenodd" clip-rule="evenodd" d="M470.238 178.038L470.761 178.755L463.965 183.705L457.169 178.755L457.692 178.038L463.965 182.607L470.238 178.038ZM455.978 176.944V189.368H471.951V176.944H455.978ZM455.091 176.057H472.839V190.255H455.091V176.057Z" fill="#313840"/>
<path d="M470.238 178.038L470.319 177.979L470.26 177.898L470.179 177.957L470.238 178.038ZM470.761 178.755L470.819 178.836L470.9 178.777L470.841 178.696L470.761 178.755ZM463.965 183.705L463.906 183.786L463.965 183.829L464.024 183.786L463.965 183.705ZM457.169 178.755L457.088 178.696L457.029 178.777L457.11 178.836L457.169 178.755ZM457.692 178.038L457.75 177.957L457.67 177.898L457.611 177.979L457.692 178.038ZM463.965 182.607L463.906 182.688L463.965 182.731L464.024 182.688L463.965 182.607ZM455.978 176.944V176.844H455.878V176.944H455.978ZM455.978 189.368H455.878V189.468H455.978V189.368ZM471.951 189.368V189.468H472.051V189.368H471.951ZM471.951 176.944H472.051V176.844H471.951V176.944ZM455.091 176.057V175.957H454.991V176.057H455.091ZM472.839 176.057H472.939V175.957H472.839V176.057ZM472.839 190.255V190.355H472.939V190.255H472.839ZM455.091 190.255H454.991V190.355H455.091V190.255ZM470.157 178.097L470.68 178.814L470.841 178.696L470.319 177.979L470.157 178.097ZM470.702 178.674L463.906 183.624L464.024 183.786L470.819 178.836L470.702 178.674ZM464.024 183.624L457.228 178.674L457.11 178.836L463.906 183.786L464.024 183.624ZM457.25 178.814L457.772 178.097L457.611 177.979L457.088 178.696L457.25 178.814ZM457.633 178.119L463.906 182.688L464.024 182.526L457.75 177.957L457.633 178.119ZM464.024 182.688L470.297 178.119L470.179 177.957L463.906 182.526L464.024 182.688ZM455.878 176.944V189.368H456.078V176.944H455.878ZM455.978 189.468H471.951V189.268H455.978V189.468ZM472.051 189.368V176.944H471.851V189.368H472.051ZM471.951 176.844H455.978V177.044H471.951V176.844ZM455.091 176.157H472.839V175.957H455.091V176.157ZM472.739 176.057V190.255H472.939V176.057H472.739ZM472.839 190.155H455.091V190.355H472.839V190.155ZM455.191 190.255V176.057H454.991V190.255H455.191Z" fill="white" mask="url(#path-149-outside-1_4647_78510)"/>
</g>
</svg>
