<svg width="705" height="378" viewBox="0 26 705 364" fill="none" xmlns="http://www.w3.org/2000/svg">
<mask id="mask0" mask-type="alpha" maskUnits="userSpaceOnUse" x="25" y="18" width="655" height="379">
<rect x="25" y="18" width="655" height="379" fill="#F6FAFC"/>
</mask>
<g mask="url(#mask0)">
<path fill-rule="evenodd" clip-rule="evenodd" d="M456.361 509.932C400.906 514.44 352.613 486.112 297.895 477.924C230.912 467.901 151.883 499.004 100.583 456.693C48.0579 413.372 22.2915 336.514 36.0025 264.602C49.7134 192.69 81.8089 133.24 119.857 87.1682C157.905 41.0964 216.908 30.3343 286.34 22.0054C335.887 16.0619 391.353 30.6555 441.125 31.2196C510.542 32.0063 602.802 -0.421602 642.45 54.1709C682.491 109.305 598.319 182.289 600.316 250.417C602.382 320.88 688.782 386.315 654.024 448.976C620.286 509.797 526.648 504.219 456.361 509.932Z" fill="#EDF4FA"/>
<path opacity="0.3" fill-rule="evenodd" clip-rule="evenodd" d="M265.024 127.74C301.35 99.1566 310.304 37.3551 355.138 26.061C399.662 14.845 439.587 54.8085 481.72 73.1521C525.58 92.2478 578.476 97.9285 607.531 135.947C637.33 174.939 639.127 227.979 637.506 276.998C635.907 325.373 631.081 378.111 598.348 413.717C566.677 448.168 515.094 452.582 468.934 460.367C431.633 466.658 395.705 453.278 357.883 454.273C308.434 455.574 253.373 495.838 213.068 467.098C173.938 439.196 195.087 375.592 182.504 329.218C170.013 283.18 121.384 239.884 139.449 195.777C157.871 150.8 226.839 157.786 265.024 127.74Z" fill="#D0DEEF"/>
<path d="M204.092 225.29C204.119 225.298 204.148 225.299 204.176 225.294C204.204 225.289 204.23 225.277 204.253 225.26C204.276 225.243 204.294 225.221 204.307 225.195C204.32 225.17 204.326 225.142 204.326 225.113C204.326 225.085 204.32 225.057 204.307 225.031C204.294 225.006 204.276 224.984 204.253 224.967C204.23 224.95 204.204 224.938 204.176 224.933C204.148 224.928 204.119 224.929 204.092 224.937C204.054 224.948 204.02 224.971 203.996 225.003C203.972 225.035 203.959 225.073 203.959 225.113C203.959 225.153 203.972 225.192 203.996 225.224C204.02 225.256 204.054 225.279 204.092 225.29Z" fill="#FF1D25"/>
<path d="M201.971 224.227H201.802C201.76 224.213 201.716 224.213 201.675 224.227C201.662 224.269 201.662 224.313 201.675 224.354C201.667 224.396 201.667 224.44 201.675 224.482C201.716 224.492 201.76 224.492 201.802 224.482H201.971C202.012 224.497 202.057 224.497 202.098 224.482C202.111 224.44 202.111 224.396 202.098 224.354C202.107 224.334 202.112 224.313 202.112 224.291C202.112 224.269 202.107 224.247 202.098 224.227C202.058 224.211 202.012 224.211 201.971 224.227Z" fill="#FF1D25"/>
<path d="M199.147 225.643C199.174 225.65 199.203 225.652 199.231 225.647C199.259 225.641 199.285 225.63 199.308 225.613C199.33 225.595 199.349 225.573 199.362 225.548C199.374 225.522 199.381 225.494 199.381 225.466C199.381 225.437 199.374 225.409 199.362 225.384C199.349 225.359 199.33 225.336 199.308 225.319C199.285 225.302 199.259 225.291 199.231 225.285C199.203 225.28 199.174 225.281 199.147 225.289C199.108 225.3 199.075 225.323 199.05 225.355C199.026 225.387 199.013 225.426 199.013 225.466C199.013 225.506 199.026 225.545 199.05 225.577C199.075 225.608 199.108 225.632 199.147 225.643Z" fill="#FF1D25"/>
<path d="M208.161 301.054C208.2 301.043 208.234 301.02 208.258 300.988C208.282 300.957 208.295 300.918 208.295 300.878C208.295 300.838 208.282 300.799 208.258 300.767C208.234 300.735 208.2 300.712 208.161 300.701C208.123 300.712 208.089 300.735 208.065 300.767C208.041 300.799 208.028 300.838 208.028 300.878C208.028 300.918 208.041 300.957 208.065 300.988C208.089 301.02 208.123 301.043 208.161 301.054Z" fill="#FF1D25"/>
<path d="M193.974 155.7H193.791H193.565L193.098 155.53C193.053 155.521 193.007 155.529 192.968 155.553C192.929 155.576 192.9 155.613 192.886 155.657C192.877 155.704 192.884 155.752 192.908 155.794C192.931 155.835 192.969 155.867 193.014 155.883L193.494 156.039C193.659 156.088 193.83 156.117 194.003 156.123C194.026 156.123 194.049 156.119 194.071 156.109C194.093 156.1 194.112 156.086 194.128 156.069C194.144 156.052 194.156 156.031 194.164 156.009C194.171 155.987 194.174 155.963 194.172 155.94C194.172 155.917 194.168 155.895 194.159 155.875C194.151 155.854 194.138 155.836 194.123 155.82C194.107 155.804 194.088 155.792 194.068 155.783C194.047 155.775 194.025 155.77 194.003 155.77L193.974 155.7Z" fill="#E5EFF9"/>
<path d="M470.224 268.142L173.253 342.099V59.2862C173.255 58.6595 173.386 58.0399 173.639 57.4665C173.893 56.8931 174.262 56.3784 174.724 55.9549C175.186 55.5314 175.731 55.2082 176.324 55.0058C176.917 54.8033 177.546 54.726 178.17 54.7788L470.224 80.7074V268.142Z" fill="#F6FAFC"/>
<path d="M286.584 309.334L174.957 341.197V58.512C174.957 57.8852 175.087 57.2651 175.339 56.6913C175.592 56.1176 175.961 55.6029 176.424 55.18C176.887 54.7572 177.433 54.4355 178.027 54.2355C178.621 54.0355 179.25 53.9617 179.874 54.0187L286.514 63.4858L286.584 309.334Z" fill="white"/>
<path d="M471.559 95.6048L175.041 79.1574V58.5135C175.036 57.8866 175.163 57.2658 175.413 56.691C175.663 56.1163 176.031 55.6005 176.493 55.177C176.956 54.7534 177.501 54.4316 178.096 54.2323C178.69 54.0331 179.32 53.9608 179.944 54.0201L471.559 79.8922V95.6048Z" fill="white"/>
<path d="M471.559 95.6026L175.041 79.1553" stroke="#E5EFF9" stroke-width="0.5" stroke-miterlimit="10"/>
<path d="M258.167 98.6564L175.026 95.0391V131.579L257.997 131.226C259.191 131.219 260.334 130.739 261.176 129.892C262.018 129.045 262.49 127.899 262.49 126.704V103.178C262.492 102.012 262.042 100.891 261.237 100.049C260.431 99.2062 259.331 98.7073 258.167 98.6564Z" fill="#F6FAFC"/>
<path d="M286.584 85.3467V311.625" stroke="#E5EFF9" stroke-width="0.5" stroke-miterlimit="10"/>
<path d="M276.48 164.602C276.482 165.752 276.044 166.86 275.256 167.698C274.468 168.536 273.389 169.041 272.241 169.109L185.68 174.987C185.062 175.032 184.441 174.949 183.857 174.742C183.273 174.536 182.738 174.21 182.285 173.787C181.833 173.364 181.473 172.851 181.228 172.282C180.983 171.713 180.858 171.099 180.862 170.48V141.315C180.862 140.135 181.325 139.001 182.152 138.158C182.979 137.315 184.104 136.83 185.284 136.808L271.845 135.084C272.445 135.071 273.042 135.178 273.6 135.398C274.159 135.619 274.667 135.949 275.096 136.369C275.525 136.789 275.866 137.29 276.099 137.843C276.332 138.397 276.452 138.991 276.451 139.592L276.48 164.602Z" fill="#F6FAFC"/>
<path d="M278.599 162.482C278.601 163.633 278.163 164.74 277.375 165.578C276.587 166.416 275.509 166.921 274.36 166.99L187.828 172.854C187.21 172.898 186.589 172.815 186.005 172.608C185.421 172.402 184.886 172.077 184.433 171.653C183.981 171.23 183.621 170.718 183.376 170.149C183.131 169.579 183.006 168.966 183.01 168.346V141.315C183.01 140.135 183.473 139.001 184.3 138.158C185.127 137.315 186.252 136.83 187.432 136.808L273.993 135.084C274.593 135.071 275.19 135.178 275.748 135.398C276.307 135.619 276.815 135.949 277.244 136.369C277.673 136.789 278.014 137.29 278.247 137.843C278.48 138.397 278.599 138.991 278.599 139.592V162.482Z" fill="#D0DEEF"/>
<path d="M468.352 134.433L296.899 138.036C296.298 138.045 295.702 137.935 295.144 137.712C294.587 137.489 294.079 137.158 293.651 136.737C293.222 136.317 292.881 135.815 292.648 135.262C292.415 134.709 292.294 134.115 292.292 133.514V103.615C292.289 103.046 292.414 102.483 292.659 101.969C292.903 101.455 293.261 101.004 293.705 100.648L297.563 97.751L468.423 106.611L468.352 134.433Z" fill="#DBE7EF"/>
<path d="M265.317 123.877C265.319 124.469 265.204 125.054 264.979 125.601C264.754 126.148 264.423 126.645 264.006 127.064C263.588 127.483 263.092 127.815 262.546 128.041C262 128.268 261.415 128.385 260.824 128.385L170.391 128.781C169.2 128.784 168.054 128.317 167.205 127.481C166.356 126.645 165.871 125.507 165.856 124.315L165.573 96.4369C165.567 95.8238 165.685 95.2158 165.921 94.6499C166.158 94.084 166.506 93.572 166.946 93.1451C167.386 92.7182 167.909 92.3853 168.482 92.1666C169.054 91.9479 169.666 91.8479 170.278 91.8729L261.064 95.8293C262.228 95.8803 263.328 96.3791 264.134 97.2216C264.94 98.0641 265.389 99.1852 265.388 100.351L265.317 123.877Z" fill="#D0DEEF"/>
<path d="M471.177 131.605L299.723 135.208C299.123 135.218 298.526 135.108 297.969 134.885C297.411 134.662 296.903 134.331 296.475 133.91C296.046 133.489 295.706 132.988 295.472 132.435C295.239 131.881 295.118 131.287 295.116 130.687V101.72C295.114 101.112 295.235 100.511 295.471 99.9507C295.707 99.3908 296.054 98.8845 296.491 98.4621C296.928 98.0398 297.446 97.7101 298.013 97.4929C298.581 97.2758 299.186 97.1756 299.794 97.1985L471.177 103.783V131.605Z" fill="#D0DEEF"/>
<path d="M416.665 170.877C416.665 172.558 414.899 174.014 412.61 174.197L326.812 181.262C325.622 181.399 324.42 181.125 323.407 180.485C322.984 180.251 322.631 179.91 322.383 179.495C322.135 179.081 322.001 178.608 321.994 178.126L322.347 159.756C322.376 158.266 322.915 156.829 323.873 155.687L325.823 153.172L412.242 148.834C413.349 148.778 414.446 149.069 415.379 149.668C415.757 149.913 416.071 150.244 416.295 150.635C416.518 151.026 416.645 151.464 416.665 151.914V170.877Z" fill="#DBE7EF"/>
<path d="M307.212 108.745L430.524 111.91" stroke="#A0C0E0" stroke-width="3" stroke-miterlimit="10"/>
<path d="M381.043 124.303L430.526 124.317" stroke="#A0C0E0" stroke-width="3" stroke-miterlimit="10"/>
<path d="M307.241 124.289L367.153 124.303" stroke="#A0C0E0" stroke-width="3" stroke-miterlimit="10"/>
<path d="M419.489 168.051C419.489 169.732 417.723 171.188 415.434 171.371L329.636 178.436C328.448 178.578 327.246 178.309 326.231 177.673C325.814 177.433 325.465 177.09 325.218 176.677C324.971 176.264 324.833 175.795 324.818 175.314V155.532C324.818 153.751 326.81 152.225 329.326 152.126L415.067 148.834C416.174 148.778 417.27 149.069 418.203 149.668C418.581 149.913 418.895 150.244 419.119 150.635C419.342 151.026 419.469 151.464 419.489 151.914V168.051Z" fill="#518DE0"/>
<g opacity="0.4">
<path opacity="0.4" d="M348.984 164.374C348.903 166.628 347.993 168.772 346.429 170.397C344.864 172.021 342.755 173.011 340.506 173.177C339.424 173.316 338.325 173.225 337.281 172.91C336.237 172.594 335.271 172.061 334.448 171.346C333.624 170.631 332.961 169.749 332.503 168.759C332.044 167.769 331.801 166.694 331.788 165.603C331.873 163.307 332.816 161.127 334.43 159.492C336.044 157.857 338.212 156.887 340.506 156.772C341.572 156.664 342.65 156.779 343.669 157.111C344.688 157.443 345.626 157.984 346.424 158.7C347.223 159.415 347.862 160.29 348.303 161.267C348.744 162.244 348.976 163.302 348.984 164.374V164.374Z" stroke="white" stroke-width="1.5" stroke-miterlimit="10" stroke-linecap="round"/>
<path fill-rule="evenodd" clip-rule="evenodd" d="M342.642 161.81L344.159 161.69C344.552 161.659 344.895 161.974 344.902 162.372L344.986 167.466C344.993 167.883 344.661 168.231 344.268 168.262L337.169 168.821C336.757 168.853 336.433 168.537 336.426 168.14L336.342 163.045C336.335 162.629 336.667 162.28 337.06 162.249L338.558 162.131L338.558 162.112C338.548 161.487 339.045 160.936 339.663 160.887L341.499 160.743C342.117 160.694 342.631 161.166 342.641 161.791L342.642 161.81ZM339.672 161.456C339.354 161.481 339.096 161.766 339.102 162.088L342.099 161.871L342.099 161.853C342.093 161.531 341.827 161.286 341.508 161.311L339.672 161.456ZM341.496 165.105L341.51 165.938L339.749 166.077L339.735 165.224L337.974 165.344L336.912 164.631L336.969 168.097C336.971 168.192 337.047 168.28 337.16 168.272L344.278 167.711C344.371 167.704 344.464 167.621 344.462 167.507L344.405 164.06L343.182 164.991L341.496 165.105ZM336.882 163.97L338.134 164.8L342.967 164.458L344.356 163.401L344.34 162.416C344.338 162.321 344.262 162.232 344.149 162.241L337.05 162.8C336.957 162.807 336.864 162.89 336.866 163.004L336.882 163.97ZM340.958 165.45L340.953 165.166L340.26 165.221L340.265 165.505L340.958 165.45Z" fill="white" fill-opacity="0.6"/>
</g>
<path d="M471.178 256.163L295.09 306.282V200.957L471.178 179.451V256.163Z" stroke="#E5EFF9" stroke-width="0.5" stroke-miterlimit="10"/>
<path opacity="0.4" d="M357.812 163.513L411.887 159.727" stroke="white" stroke-width="3" stroke-miterlimit="10"/>
<g style="mix-blend-mode:multiply" opacity="0.4">
<g style="mix-blend-mode:multiply" opacity="0.6">
<g style="mix-blend-mode:multiply" opacity="0.6">
<path d="M463.291 209.588C463.856 216.399 463.673 223.252 464.266 230.063C464.422 231.885 464.633 233.708 464.944 235.517C464.944 235.63 465.142 235.517 465.114 235.517C463.983 228.862 464.054 222.079 463.8 215.353C463.8 213.446 463.63 211.538 463.475 209.631C463.475 209.518 463.291 209.518 463.291 209.631V209.588Z" fill="#B8D2E8"/>
</g>
</g>
<g style="mix-blend-mode:multiply" opacity="0.4">
<g style="mix-blend-mode:multiply" opacity="0.4">
<path d="M443.103 190.514C444.007 195.771 442.17 201.013 441.336 206.156C440.976 208.788 440.806 211.441 440.828 214.097C440.828 216.994 440.828 219.891 440.828 222.801C440.828 228.538 440.616 234.289 440.135 240.012C439.663 245.521 438.899 251.002 437.846 256.431C436.786 261.956 435.43 267.424 433.861 272.836C433.65 273.514 433.452 274.249 433.24 274.885C433.24 274.998 433.381 275.04 433.409 274.885C435.063 269.43 436.49 263.92 437.648 258.353C438.759 252.978 439.589 247.55 440.135 242.089C440.7 236.437 440.941 230.658 441.011 224.935C441.011 221.982 441.011 219.043 441.011 216.104C440.955 213.298 441.054 210.491 441.308 207.696C441.901 202.525 443.809 197.466 443.498 192.153C443.47 191.551 443.399 190.951 443.286 190.359C443.286 190.246 443.103 190.359 443.117 190.359L443.103 190.514Z" fill="#B8D2E8"/>
</g>
</g>
</g>
<g style="mix-blend-mode:multiply">
<g style="mix-blend-mode:multiply">
<path d="M522.231 281.101C522.269 281.09 522.303 281.067 522.327 281.035C522.351 281.003 522.364 280.965 522.364 280.925C522.364 280.885 522.351 280.846 522.327 280.814C522.303 280.782 522.269 280.759 522.231 280.748C522.192 280.759 522.159 280.782 522.135 280.814C522.111 280.846 522.098 280.885 522.098 280.925C522.098 280.965 522.111 281.003 522.135 281.035C522.159 281.067 522.192 281.09 522.231 281.101Z" fill="#E5EFF9"/>
</g>
</g>
<path d="M181.937 111.315L251.499 111.711" stroke="#A0C0E0" stroke-width="3" stroke-miterlimit="10"/>
<path d="M198.978 154.457L266.18 151.461" stroke="#A0C0E0" stroke-width="3" stroke-miterlimit="10"/>
<path d="M158 225.458H158.169" stroke="#FF1D25" stroke-width="0.25" stroke-miterlimit="10"/>
<path d="M508.489 192.961C508.489 192.961 504.1 201.31 509.586 206.466C515.071 211.623 511.231 193.389 511.231 193.389L508.489 192.961Z" fill="#2C4153"/>
<path d="M539.362 225.458C537.628 226.182 525.593 226.841 525.417 227.027C524.441 227.993 526.383 231.887 525.417 232.864C525.187 233.083 524.452 224.175 520.93 227.697C520.919 227.795 520.919 227.894 520.93 227.993C520.93 232.217 517.902 236.715 515.763 240.28C513.623 243.846 506.547 253.808 505.428 257.757C503.859 257.439 500.886 257.999 499.756 257.999C498.176 257.999 494.369 256.55 492.954 257.494C492.745 257.637 491.341 269.957 491.111 271.329C490.946 272.327 490.891 274.28 491.539 275.081C492.054 277.944 492.877 282.014 505.647 282.014C505.647 282.014 503.376 285.031 504.068 285.723C504.561 286.216 502.455 289.935 502.213 290.594C500.71 294.587 500.272 299.963 504.55 301.806C508.829 303.649 514.337 298.767 518.593 298.284C522.389 297.868 524.079 300.961 527.271 301.411C531.561 302.026 534.304 298.515 538.297 297.714C539.493 297.473 543.355 298.493 544.134 297.714C553.459 288.4 546.954 272.864 548.248 261.235C548.852 255.75 550.958 251.12 550.958 245.448C550.958 243.089 551.386 240.247 550.87 237.943C549.949 233.796 545.769 233.215 543.86 230.033C543.19 228.925 540.316 225.052 539.362 225.458Z" fill="white"/>
<path d="M518.442 280.38C514.789 283.408 507.581 281.368 505.639 282.015C505.156 282.179 504.772 285.449 503.971 285.668C503.971 285.668 502.446 289.936 502.205 290.594C500.702 294.588 500.263 299.963 504.542 301.807C508.82 303.65 514.328 298.768 518.585 298.285C522.381 297.868 524.07 300.962 527.263 301.412C527.263 301.412 523.609 292.415 526.846 287.083C530.082 281.752 533.977 268.433 533.977 268.433C533.977 268.433 527.219 273.106 518.442 280.38Z" fill="#E5EFF9"/>
<path d="M520.152 432.404C525.709 434.402 531.703 434.857 537.498 433.721L527.92 345.733L512.725 327.422V359.446C512.725 359.446 514.546 362.42 515.369 364.065C516.192 365.711 514.546 370.648 514.875 373.478C515.204 376.309 515.369 380.061 515.863 380.884C516.356 381.707 517.848 396.606 517.848 396.606C517.848 396.606 520.328 415.256 520.152 418.548C519.977 421.839 520.152 432.404 520.152 432.404Z" fill="#2C4153"/>
<g style="mix-blend-mode:multiply" opacity="0.6">
<path d="M520.152 432.404C525.709 434.402 531.703 434.857 537.498 433.721L527.92 345.733L512.725 327.422V359.446C512.725 359.446 514.546 362.42 515.369 364.065C516.192 365.711 514.546 370.648 514.875 373.478C515.204 376.309 515.369 380.061 515.863 380.884C516.356 381.707 517.848 396.606 517.848 396.606C517.848 396.606 520.328 415.256 520.152 418.548C519.977 421.839 520.152 432.404 520.152 432.404Z" fill="#2C4153"/>
</g>
<path d="M541.129 297.519C541.129 297.519 548.403 310.234 549.061 311.88C549.719 313.525 552.857 319.812 550.213 325.594C547.569 331.375 546.746 334.842 546.922 335.468C547.097 336.093 546.592 338.605 545.44 339.099C544.754 339.467 544.225 340.071 543.951 340.799C543.676 341.527 543.675 342.331 543.948 343.06C544.607 344.716 544.936 347.854 544.277 348.545C543.619 349.236 542.961 370.345 542.961 370.345C545.534 375.3 547.212 380.67 547.92 386.209C549.236 395.787 550.334 417.422 551.211 421.547C552.089 425.672 553.548 436.555 553.548 436.555C553.548 436.555 542.972 442.688 533.888 438.892C533.888 438.892 533.723 405.858 531.079 402.227L529.412 397.761C529.412 397.761 525.78 392.813 525.78 389.676C525.78 389.676 521.984 384.552 521.82 381.579C521.655 378.606 518.188 362.424 518.188 362.424C518.188 362.424 517.53 351.639 514.392 344.31C514.392 344.31 513.723 337.815 513.394 335.007C513.065 332.198 512.571 325.133 512.571 325.133C512.571 325.133 510.914 316.872 511.244 315.709C511.573 314.546 508.94 304.979 508.27 303.816C507.601 302.653 508.27 298.868 508.27 298.868L541.129 297.519Z" fill="#2C4153"/>
<g style="mix-blend-mode:multiply" opacity="0.4">
<path d="M534.521 384.406C530.396 375.344 530.725 349.2 530.012 336.496C529.507 327.335 528.564 308.102 528.081 298.097L509.255 298.854C509.255 298.854 508.597 302.65 509.255 303.802C509.913 304.954 512.546 314.542 512.228 315.694C511.91 316.846 513.544 325.119 513.544 325.119C513.544 325.119 514.038 332.217 514.378 334.992C514.718 337.768 515.366 344.296 515.366 344.296C518.503 351.625 519.162 362.409 519.162 362.409C519.162 362.409 522.629 378.646 522.826 381.576C523.023 384.505 526.798 389.672 526.798 389.672C526.798 392.81 530.429 397.758 530.429 397.758L532.075 402.223C534.719 405.855 534.883 438.889 534.883 438.889C538.024 440.108 541.438 440.446 544.757 439.865C543.21 428.631 538.01 392.053 534.521 384.406Z" fill="#2C4153"/>
</g>
<g style="mix-blend-mode:multiply" opacity="0.4">
<path d="M532.99 303.454C535.766 301.585 539.059 300.637 542.403 300.744L542.48 299.888C541.679 298.462 541.131 297.519 541.131 297.519L508.217 298.835C508.217 298.835 507.57 302.631 508.217 303.783C508.372 304.09 508.501 304.409 508.601 304.738C513.275 303.059 521.273 301.227 521.273 301.227C521.273 301.227 528.492 306.559 532.99 303.454Z" fill="#2C4153"/>
</g>
<path d="M513.538 222.626C512.901 222.506 512.583 224.184 512.287 223.592C511.398 221.803 509.994 221.979 509.193 223.592C509.138 223.701 509.039 224.195 508.908 223.998C508.063 222.626 506.483 221.628 505.199 223.559C503.236 226.499 503.696 230.087 503.312 233.542C502.916 237.5 502.024 241.392 500.657 245.128C499.473 248.419 497.575 251.403 496.554 254.76C496.477 254.991 495.336 257.492 495.578 257.613C497.015 258.337 504.004 258.535 505.452 257.81C505.549 256.958 505.578 256.1 505.54 255.243C505.766 252.978 506.195 250.739 506.823 248.551C508.292 242.278 511.208 236.436 515.337 231.491C515.929 230.756 515.819 224.996 515.479 223.998C515.291 223.629 515.016 223.311 514.678 223.072C514.339 222.834 513.948 222.68 513.538 222.626Z" fill="#F6C7BD"/>
<path d="M531.496 205.523C531.418 206.441 531.196 207.341 530.838 208.189C530.234 209.605 528.808 209.462 528.051 210.219C527.601 210.669 528.051 213.883 527.941 214.608C527.579 217.515 524.475 220.949 521.776 222.178C522.807 224.613 524.255 226.939 524.486 229.671C524.551 230.439 524.486 234.377 525.045 234.915C525.045 234.915 527.876 233.566 528.15 233.5C530.412 233.005 532.714 232.719 535.029 232.644C536.411 232.556 542.204 233.028 543.411 232.084C542.434 230.661 541.575 229.16 540.843 227.597C539.964 225.515 539.524 223.274 539.549 221.015C538.891 218.184 538.452 215.244 537.87 212.348C537.585 212.666 537.278 212.885 537.036 212.644C535.402 211.02 535.018 208.255 533.328 206.588C532.418 205.754 530.783 205.194 531.496 205.523Z" fill="#F6C7BD"/>
<g style="mix-blend-mode:multiply" opacity="0.6">
<path d="M530.75 213.905C531.59 211.314 532.12 208.633 532.33 205.918C531.617 205.49 531.013 205.304 531.496 205.523C531.418 206.441 531.196 207.341 530.838 208.189C530.234 209.604 528.808 209.462 528.051 210.219C527.601 210.669 528.051 213.883 527.941 214.607C527.579 217.515 524.475 220.949 521.776 222.177C522.807 224.613 524.255 226.939 524.486 229.671C524.504 231.215 524.61 232.757 524.804 234.289L535.226 226.094L530.75 213.905Z" fill="#F6C7BD"/>
</g>
<path d="M539.362 225.458C537.628 226.182 525.593 226.841 525.417 227.027C524.441 227.993 526.383 231.887 525.417 232.864C525.187 233.083 524.452 224.175 520.93 227.697C520.919 227.795 520.919 227.894 520.93 227.993C520.93 232.217 517.902 236.715 515.763 240.28C513.623 243.846 506.547 253.808 505.428 257.757C503.859 257.439 500.886 257.999 499.756 257.999C498.176 257.999 494.369 256.55 492.954 257.494C492.745 257.637 491.341 269.957 491.111 271.329C490.946 272.327 490.891 274.28 491.539 275.081C492.054 277.944 492.877 282.014 505.647 282.014C505.647 282.014 503.376 285.031 504.068 285.723C504.561 286.216 502.455 289.935 502.213 290.594C500.71 294.587 500.272 299.963 504.55 301.806C508.829 303.649 514.337 298.767 518.593 298.284C522.389 297.868 524.079 300.961 527.271 301.411C531.561 302.026 534.304 298.515 538.297 297.714C539.493 297.473 543.355 298.493 544.134 297.714C553.459 288.4 546.954 272.864 548.248 261.235C548.852 255.75 550.958 251.12 550.958 245.448C550.958 243.089 551.386 240.247 550.87 237.943C549.949 233.796 545.769 233.215 543.86 230.033C543.19 228.925 540.316 225.052 539.362 225.458Z" fill="white"/>
<path d="M518.442 280.38C514.789 283.408 507.581 281.368 505.639 282.015C505.156 282.179 504.772 285.449 503.971 285.668C503.971 285.668 502.446 289.936 502.205 290.594C500.702 294.588 500.263 299.963 504.542 301.807C508.82 303.65 514.328 298.768 518.585 298.285C522.381 297.868 524.07 300.962 527.263 301.412C527.263 301.412 523.609 292.415 526.846 287.083C530.082 281.752 533.977 268.433 533.977 268.433C533.977 268.433 527.219 273.106 518.442 280.38Z" fill="#E5EFF9"/>
<path d="M512.799 245.552C515.235 243.127 523.77 234.011 526.337 232.727C527.643 232.069 529.431 232.551 530.945 232.562C538.504 232.562 539.722 231.959 541.576 230.313L540.885 228.92C537.436 231.028 533.384 231.931 529.365 231.487C528.269 231.354 527.158 231.519 526.148 231.965C525.138 232.411 524.267 233.122 523.627 234.021L512.799 245.552Z" fill="#E5EFF9"/>
<path d="M543.36 242.502C540.968 236.84 535.878 233.516 528.593 237.894C518.423 243.994 517.885 265.321 504.895 265.321L507.561 263.632C507.258 261.606 506.628 259.642 505.696 257.817C504.511 255.831 507.89 253.067 510.688 250.313C519.3 241.865 522.306 239.254 528.384 235.875C540.88 228.919 543.36 242.502 543.36 242.502Z" fill="#E5EFF9"/>
<path d="M531.315 273.32C531.662 274.439 532.137 275.514 532.73 276.524C537.843 284.708 536.186 271.806 536.186 268.844" stroke="#E5EFF9" stroke-width="0.5" stroke-miterlimit="10"/>
<path d="M548.156 282.811C547.585 280.518 545.545 278.598 544.327 276.59C544.327 276.491 542.44 273.463 541.924 274.396C539.982 277.786 545.128 285.367 547.289 287.561" stroke="#E5EFF9" stroke-width="0.5" stroke-miterlimit="10"/>
<path d="M493.915 264.234C496.911 264.234 500.037 264.3 503.054 264.3" stroke="#E5EFF9" stroke-width="0.5" stroke-miterlimit="10"/>
<path d="M533.149 298.037C531.69 297.302 521.531 286.879 524.01 293.451C524.426 294.638 524.967 295.778 525.623 296.852C526.55 298.239 527.596 299.542 528.75 300.747" stroke="#E5EFF9" stroke-width="0.5" stroke-miterlimit="10"/>
<path d="M520.632 230.312C520.742 230.858 520.998 231.364 521.373 231.776C521.748 232.187 522.227 232.489 522.761 232.649H519.897L520.632 230.312Z" fill="#E5EFF9"/>
<path d="M511.13 192.774C508.124 194.969 508.475 200.29 508.848 203.592C509.013 205.161 509.704 205.468 509.945 208.595C509.945 208.88 508.486 212.753 508.541 212.775C513.961 215.485 510.461 223.373 518.525 223.373C519.551 223.213 520.544 222.887 521.465 222.407C524.251 221.31 527.609 217.679 527.993 214.64C528.091 213.883 527.652 210.668 528.102 210.251C528.859 209.494 530.296 209.637 530.889 208.222C531.247 207.373 531.469 206.473 531.547 205.556C528.706 204.206 524.372 203.625 521.969 202.418C517.054 199.96 513.818 197.722 511.317 193.422C511.207 193.223 511.143 193.001 511.13 192.774Z" fill="#F6C7BD"/>
<g style="mix-blend-mode:multiply" opacity="0.6">
<path d="M511.13 192.774C508.124 194.969 508.475 200.29 508.848 203.592C509.013 205.161 509.704 205.468 509.945 208.595C509.945 208.88 508.486 212.753 508.541 212.775C513.961 215.485 510.461 223.373 518.525 223.373C519.551 223.213 520.544 222.887 521.465 222.407C524.251 221.31 527.609 217.679 527.993 214.64C528.091 213.883 527.652 210.668 528.102 210.251C528.859 209.494 530.296 209.637 530.889 208.222C531.247 207.373 531.469 206.473 531.547 205.556C528.706 204.206 524.372 203.625 521.969 202.418C517.054 199.96 513.818 197.722 511.317 193.422C511.207 193.223 511.143 193.001 511.13 192.774Z" fill="#F6C7BD"/>
</g>
<path d="M527.807 183.864C523.712 183.869 519.662 184.724 515.915 186.377C513.49 187.364 507.445 191.083 508.926 193.563C511.603 198.105 512.711 200.892 517.977 203.437C521.192 205.028 530.111 205.104 532.569 207.518C534.379 209.295 534.763 212.192 536.529 213.914C537.1 214.474 538.022 212.817 538.186 212.521C539.024 211.206 539.733 209.814 540.304 208.363C540.379 208.541 540.512 208.69 540.68 208.785C540.849 208.88 541.044 208.917 541.236 208.889C540.907 210.7 540.742 212.685 540.501 213.574C539.042 218.851 538.307 224.457 540.622 229.636C542.684 234.222 546.392 237.711 547.83 242.647C549.003 247.307 549.527 252.107 549.388 256.91C549.388 258.27 548.389 262.011 550.485 260.991C557.967 257.305 558.9 247.288 557.067 240.563C556.376 238.051 553.776 236.394 553.206 233.717C552.591 230.722 554.412 228.308 554.983 225.522C555.372 222.5 555.208 219.433 554.5 216.47C553.853 213.3 546.897 204.852 543.266 205.346C543.266 204.578 542.937 203.941 541.993 203.92C542.551 201.335 542.531 198.659 541.934 196.083C541.336 193.507 540.176 191.096 538.537 189.021C537.256 187.405 535.624 186.101 533.766 185.208C531.907 184.315 529.87 183.855 527.807 183.864Z" fill="#2C4153"/>
<g style="mix-blend-mode:multiply">
<g style="mix-blend-mode:multiply">
<path d="M518.44 280.378C517.828 280.864 517.133 281.236 516.389 281.475C522.049 279.572 527.427 276.911 532.374 273.565C533.339 270.636 533.975 268.475 533.975 268.475C533.975 268.475 527.217 273.104 518.44 280.378Z" fill="#E5EFF9"/>
</g>
</g>
<path d="M505.351 282.476L505.418 282.332L505.329 282.476H505.351Z" fill="#E5EFF9"/>
<path d="M541.578 240.288C541.578 240.288 527.721 269.91 517.573 273.103C507.425 276.295 498.275 276.076 496.629 274.979C494.984 273.882 495.532 264.304 495.532 264.304L496.805 263.635L497.167 257.568C495.565 257.238 493.81 256.909 492.943 257.491C492.735 257.633 491.33 269.954 491.1 271.325C490.935 272.324 490.88 274.277 491.528 275.077C492.043 277.941 492.866 282.011 505.637 282.011C507.579 281.364 514.786 283.404 518.44 280.376C527.217 273.103 533.975 268.484 533.975 268.484L533.854 268.879C539.559 264.951 550.256 255.033 541.578 240.288Z" fill="#E5EFF9"/>
<g style="mix-blend-mode:multiply">
<path d="M513.785 282.012C510.494 282.308 506.917 281.584 505.645 282.012C505.349 282.111 505.096 283.351 504.767 284.36L513.785 282.012Z" fill="#E5EFF9"/>
</g>
<g style="mix-blend-mode:multiply" opacity="0.4">
<path d="M531.506 206.758C531.737 204.179 531.697 201.583 531.386 199.013C530.508 192.024 527.809 186.221 522.192 184.399C520.045 184.866 517.944 185.527 515.916 186.374C513.492 187.362 507.447 191.081 508.928 193.56C511.605 198.102 512.713 200.889 517.979 203.434C520.799 204.871 528.566 205.003 531.506 206.758Z" fill="#2C4153"/>
</g>
<path d="M541.667 370.651C542.347 375.281 539.473 380.031 541.294 384.552C541.306 384.574 541.324 384.594 541.347 384.607C541.369 384.621 541.394 384.628 541.42 384.628C541.446 384.628 541.472 384.621 541.494 384.607C541.516 384.594 541.534 384.574 541.546 384.552C542.504 383.112 543.178 381.504 543.532 379.812C543.938 377.982 544.137 376.113 544.125 374.239C544.116 374.209 544.098 374.183 544.073 374.164C544.049 374.145 544.019 374.135 543.988 374.135C543.957 374.135 543.926 374.145 543.902 374.164C543.877 374.183 543.859 374.209 543.85 374.239C543.859 376.083 543.664 377.923 543.269 379.724C542.923 381.393 542.26 382.979 541.316 384.398H541.557C540.647 382.204 540.954 379.757 541.371 377.431C541.934 375.17 542.123 372.831 541.93 370.509C541.93 370.333 541.634 370.399 541.667 370.574V370.651Z" fill="black"/>
<path d="M543.531 348.672C543.332 347.287 542.662 346.012 541.633 345.063C540.593 344.134 539.469 343.304 538.276 342.583C537.979 342.386 537.705 342.858 538.001 343.055C540.097 344.449 542.62 345.93 542.982 348.672C542.982 349.013 543.575 349.023 543.531 348.672Z" fill="black"/>
<path d="M546.691 335.27C544.497 333.833 541.733 332.868 540.208 330.619L539.835 330.992C541.349 331.727 543.038 331.727 544.651 332.089C544.722 332.108 544.798 332.097 544.862 332.06C544.926 332.023 544.972 331.962 544.991 331.891C545.01 331.82 545 331.744 544.963 331.68C544.926 331.616 544.865 331.57 544.794 331.551C543.236 331.178 541.568 331.2 540.109 330.454C539.878 330.344 539.56 330.586 539.736 330.827C541.316 333.175 544.124 334.118 546.417 335.676C546.702 335.874 546.988 335.402 546.691 335.204V335.27Z" fill="black"/>
<g style="mix-blend-mode:multiply" opacity="0.6">
<path d="M498.484 257.829C498.484 257.763 502.006 246.386 503.059 243.446C504.112 240.506 505.11 233.045 505.429 231.115C505.747 229.184 506.811 222.546 506.811 222.546L507.974 223.369L507.787 222.799C506.986 222.283 506.032 222.305 505.198 223.556C503.234 226.496 503.695 230.083 503.311 233.539C502.915 237.497 502.023 241.389 500.656 245.125C499.471 248.416 497.573 251.4 496.553 254.757C496.186 255.58 495.863 256.423 495.588 257.281C496.575 257.423 497.595 257.665 498.484 257.829Z" fill="#F6C7BD"/>
</g>
<path d="M413.167 281.002C412.038 282.597 411.054 284.29 410.227 286.06C407.755 291.374 404.74 296.418 401.231 301.112C400.068 302.571 395.745 306.784 393.551 304.579C392.454 303.482 389.162 297.525 386.968 298.995C385.663 299.862 386.968 301.814 387.725 302.582C390.655 305.501 392.399 311.974 396.085 313.817C397.95 314.738 400.474 315.77 402.668 315.221C405.136 314.607 407.561 309.911 408.965 308.046C413.968 301.376 424.917 294.727 426.365 286.104C426.859 283.153 426.793 279.269 423.184 278.106C421.437 277.62 419.598 277.575 417.83 277.974C415.994 278.463 414.361 279.524 413.167 281.002Z" fill="#F6C7BD"/>
<path d="M385.336 218.06C386.927 219.343 386.148 229.382 384.941 231.806C384.162 233.353 382.648 235.624 380.805 235.997C380.213 236.118 377.272 235.997 376.932 236.37C375.528 237.775 377.909 242.591 376.987 244.423C374.99 248.428 363.317 246.957 360.245 244.906C360.081 244.796 359.916 235.317 359.916 234.22C359.916 224.467 361.979 213.55 371.677 209.041C373.63 208.131 376.23 207.319 378.446 207.813C383.68 208.997 382.418 215.712 385.336 218.06Z" fill="#F6C7BD"/>
<g style="mix-blend-mode:multiply" opacity="0.4">
<path d="M365.711 222.319L360.664 225.194C360.143 228.175 359.893 231.197 359.918 234.223C359.918 235.32 360.082 244.799 360.247 244.909C361.424 245.583 362.708 246.051 364.043 246.291L365.711 246.39V222.319Z" fill="#F6C7BD"/>
</g>
<path d="M370.772 232.082C381.283 232.082 394.174 222.471 389.994 209.043C387.339 200.573 385.057 201.747 380.975 201.692C380.263 200.583 379.275 199.679 378.107 199.067C376.94 198.455 375.633 198.158 374.316 198.203C349.883 197.556 351.507 231.753 373.219 231.753" fill="#2C4153"/>
<path d="M339.749 272.293L328.142 280.642C328.142 280.642 322.36 272.019 315.152 276.615L312.255 280.477C311.939 277.914 312.307 275.313 313.323 272.939C314.339 270.565 315.965 268.502 318.037 266.961C325.3 261.289 338.081 249.594 338.081 249.594C338.081 249.594 346.858 240.532 359.947 241.749C373.035 242.967 385.926 240.257 395.054 248.08C404.182 255.902 426.168 278.283 426.87 281.07C426.87 281.07 415.417 273.39 410.666 285.294L398.324 274.586C398.324 274.586 395.361 295.091 398.148 304.449C400.935 313.807 406.453 325.887 407.079 339.249C407.528 348.125 404.862 413.754 404.862 413.754C404.862 413.754 392.125 423.178 368.724 421.192C345.322 419.207 336.787 413.666 336.787 413.666L334.889 361.005C334.889 361.005 334.406 328.212 341.603 317.285C348.8 306.358 341.801 282.792 341.801 282.792C341.801 282.792 338.904 275.365 339.749 272.293Z" fill="#486985"/>
<path d="M372.592 221.42C373.25 222.012 372.592 220.772 372.372 220.487C371.534 219.447 370.378 218.711 369.081 218.392C365.686 218.663 362.314 219.165 358.987 219.895C353.93 221.793 350.035 230.043 354.533 234.552C356.486 236.494 358.362 235.09 360.172 236C360.809 236.318 361.631 238.271 362.366 238.842C365.427 241.036 371.999 240.465 374.237 237.339C375.038 236.242 374.775 234.706 375.334 233.532C376.497 231.206 380.118 230.756 378.395 226.708C377.177 223.877 375.104 224.513 373.019 223.493C372.438 223.175 372.065 220.948 372.592 221.42Z" fill="#2C4153"/>
<g style="mix-blend-mode:multiply" opacity="0.4">
<path d="M398.868 306.588L387.699 302.551C387.699 302.551 391.111 319.731 403.3 319.808C401.808 315.014 400.162 310.625 398.868 306.588Z" fill="#486985"/>
</g>
<g style="mix-blend-mode:multiply" opacity="0.6">
<path d="M373.043 223.491C373.043 223.491 372.341 220.485 378.375 212.86C379.714 211.212 380.598 209.242 380.941 207.146C381.284 205.05 381.072 202.901 380.328 200.912C379.596 200.038 378.673 199.343 377.631 198.881C376.589 198.419 375.455 198.202 374.315 198.246C351.276 197.632 351.408 228.044 369.773 231.467C371.661 227.375 373.043 223.491 373.043 223.491Z" fill="#2C4153"/>
</g>
<path d="M372.592 221.42C373.25 222.012 372.592 220.772 372.372 220.487C371.534 219.447 370.378 218.711 369.081 218.392C365.686 218.663 362.314 219.165 358.987 219.895C353.93 221.793 350.035 230.043 354.533 234.552C356.486 236.494 358.362 235.09 360.172 236C360.809 236.318 361.631 238.271 362.366 238.842C363.354 239.494 364.482 239.904 365.658 240.038C366.623 238.425 367.172 236.593 368.049 234.947C369.932 231.228 371.599 227.404 373.041 223.493C372.438 223.175 372.065 220.948 372.592 221.42Z" fill="#2C4153"/>
<g style="mix-blend-mode:multiply" opacity="0.4">
<path d="M372.592 221.42C373.25 222.012 372.592 220.772 372.372 220.487C371.534 219.447 370.378 218.711 369.081 218.392C365.686 218.663 362.314 219.165 358.987 219.895C353.93 221.793 350.035 230.043 354.533 234.552C356.486 236.494 358.362 235.09 360.172 236C360.809 236.318 361.631 238.271 362.366 238.842C363.354 239.494 364.482 239.904 365.658 240.038C366.623 238.425 367.172 236.593 368.049 234.947C369.932 231.228 371.599 227.404 373.041 223.493C372.438 223.175 372.065 220.948 372.592 221.42Z" fill="#2C4153"/>
</g>
<g style="mix-blend-mode:multiply" opacity="0.4">
<g style="mix-blend-mode:multiply" opacity="0.4">
<path d="M315.993 268.825C314.55 270.374 313.464 272.219 312.81 274.232C312.156 276.244 311.951 278.376 312.208 280.476L315.104 276.615C315.572 276.312 316.068 276.055 316.585 275.847C316.085 273.542 315.885 271.181 315.993 268.825Z" fill="#486985"/>
</g>
</g>
<g style="mix-blend-mode:multiply" opacity="0.4">
<g style="mix-blend-mode:multiply" opacity="0.4">
<path d="M396.575 262.641L398.67 274.84L410.738 285.296C412.593 280.633 415.05 278.187 417.881 277.901L396.575 262.641Z" fill="#486985"/>
</g>
</g>
<g style="mix-blend-mode:multiply" opacity="0.4">
<g style="mix-blend-mode:multiply" opacity="0.4">
<path d="M396.575 262.641L398.67 274.84L410.738 285.296C412.593 280.633 415.05 278.187 417.881 277.901L396.575 262.641Z" fill="#486985"/>
</g>
</g>
<g style="mix-blend-mode:multiply" opacity="0.4">
<path d="M386.633 346.828C379.436 342.253 376.046 334.046 374.466 327.08C373.72 323.785 374.254 320.329 375.961 317.414C377.669 314.498 380.421 312.341 383.66 311.38L396.573 307.551L390.287 298.423C388.793 296.254 387.89 293.734 387.667 291.11C387.444 288.486 387.908 285.849 389.014 283.459L392.777 275.296C392.907 275.014 392.979 274.708 392.989 274.398C392.999 274.087 392.945 273.777 392.833 273.488C392.72 273.198 392.55 272.934 392.333 272.711C392.117 272.488 391.857 272.312 391.57 272.191L378.405 266.761C373.073 260.178 369.003 248 365.711 242.076L363.155 241.977H362.738C361.806 241.977 360.873 241.867 359.941 241.78C359.008 241.692 358.328 241.67 357.549 241.67H356.924C356.364 241.67 355.826 241.67 355.267 241.747C354.938 241.747 354.62 241.834 354.29 241.867C353.961 241.9 353.49 241.955 353.106 242.021C352.722 242.087 352.008 242.24 351.548 242.361C351.394 242.361 351.23 242.416 351.076 242.46C348.685 243.075 346.381 243.989 344.219 245.181C341.981 246.358 339.914 247.834 338.075 249.569C338.075 249.569 336.254 251.237 333.588 253.617L333.456 254.276C333.456 254.276 337.911 253.113 340.28 260.101L341.378 266.234C341.412 266.419 341.387 266.61 341.306 266.779C341.225 266.949 341.093 267.088 340.928 267.178C334.916 270.381 328.092 280.617 328.092 280.617L340.006 272.224L339.633 272.916C339.26 276.273 341.74 282.79 341.74 282.79C341.74 282.79 348.728 306.366 341.542 317.272C334.356 328.177 334.828 361.09 334.828 361.09L336.726 413.751C336.726 413.751 345.239 419.292 368.663 421.278C373.411 421.695 378.189 421.636 382.925 421.102C384.198 417.24 387.313 409.758 387.313 409.758L392.722 359.62C393.012 357.131 392.595 354.611 391.518 352.348C390.441 350.085 388.748 348.172 386.633 346.828Z" fill="#486985"/>
</g>
<g style="mix-blend-mode:multiply" opacity="0.4">
<path d="M346.94 313.29L349.946 312.292C353.237 309.922 353.5 301.222 353.5 301.222L344.723 303.635C344.723 308.715 343.868 313.718 341.432 317.327L341.169 317.766C342.418 317.535 343.594 317.008 344.598 316.229C345.602 315.451 346.405 314.443 346.94 313.29Z" fill="#486985"/>
</g>
<g style="mix-blend-mode:multiply" opacity="0.4">
<path d="M340.973 267.203C340.479 267.474 339.999 267.77 339.536 268.092C339.838 268.108 340.137 268.031 340.394 267.873C340.651 267.714 340.853 267.48 340.973 267.203Z" fill="#486985"/>
</g>
<g style="mix-blend-mode:multiply" opacity="0.4">
<path d="M333.548 253.639L333.417 254.297C333.417 254.297 337.871 253.134 340.241 260.134L341.338 266.19C342.961 261.516 341.469 251.675 340.679 247.363C339.736 248.03 338.841 248.763 338.003 249.557C338.003 249.557 336.258 251.258 333.548 253.639Z" fill="#486985"/>
</g>
<path d="M354.181 295.812C353.655 294.309 350.89 297.787 350.089 298.621C347.105 301.605 345.481 303.272 341.312 301.177C330.659 295.856 332.722 280.496 322.299 275.636C319.787 274.462 312.952 275.505 312.425 278.873C311.899 282.241 313.577 285.883 315.508 288.637C320.994 296.503 327.631 301.495 334.894 307.551C337.088 309.383 337.615 312.675 340.303 314.024C345.141 316.438 344.373 311.698 345.251 311.259C346.128 310.82 346.896 311.424 347.741 310.788C349.617 309.383 348.959 307.211 350.188 305.576C352.887 301.989 355.575 299.838 354.181 295.812Z" fill="#F6C7BD"/>
<path d="M413.162 281.004C412.032 282.599 411.048 284.291 410.221 286.062C407.749 291.376 404.734 296.42 401.225 301.114C400.062 302.573 395.74 306.786 393.545 304.581C392.448 303.484 389.157 297.527 386.963 298.997C385.657 299.864 386.963 301.816 387.72 302.584C390.649 305.503 392.393 311.976 396.08 313.819C397.945 314.74 400.468 315.772 402.662 315.223C405.131 314.609 407.555 309.913 408.96 308.048C413.962 301.378 424.912 294.729 426.36 286.106C426.854 283.155 426.788 279.271 423.178 278.108C421.432 277.622 419.592 277.577 417.824 277.976C415.988 278.465 414.355 279.526 413.162 281.004Z" fill="#F6C7BD"/>
<g style="mix-blend-mode:multiply" opacity="0.4">
<path d="M340.314 314.026C341.098 314.495 342.002 314.724 342.914 314.684C343.259 313.837 343.548 312.969 343.781 312.084C338.915 306.401 333.689 301.036 328.136 296.022C322.254 290.691 318.223 283.624 316.628 275.847C316.145 276.044 313.446 273.652 312.941 273.971L312.36 280.312C312.594 283.333 313.691 286.223 315.52 288.639C321.005 296.505 327.643 301.497 334.905 307.553C337.111 309.385 337.626 312.677 340.314 314.026Z" fill="#F6C7BD"/>
</g>
<g style="mix-blend-mode:multiply" opacity="0.4">
<path d="M413.162 281.006C412.032 282.601 411.048 284.294 410.221 286.064C407.749 291.378 404.734 296.422 401.225 301.116C400.062 302.576 395.74 306.789 393.545 304.583C392.448 303.486 389.157 297.529 386.963 298.999C385.657 299.866 386.963 301.819 387.72 302.587C389.442 304.298 390.759 307.249 392.306 309.762C393.026 310.941 393.888 312.028 394.873 312.998C395.241 313.319 395.646 313.595 396.08 313.821C396.562 314.051 397.1 314.304 397.67 314.534C399.667 314.764 401.269 312.877 402.355 309.762C404.286 304.21 410.737 298.889 417.879 291.33C423.2 285.691 417.879 277.935 417.879 277.935C416.017 278.425 414.363 279.502 413.162 281.006Z" fill="#F6C7BD"/>
</g>
<path d="M455.635 179.984C454.702 181.454 453.309 182.793 452.552 184.307C452.245 184.932 453.188 186.698 453.353 187.368C453.638 188.465 449.853 192.7 448.898 193.182C448.229 193.511 451.093 195.135 450.95 195.618C450.017 198.415 449.271 204.263 450.95 206.984C452.047 208.86 455.646 206.468 456.063 206.885C456.135 208.39 456.084 209.898 455.909 211.394C455.909 211.449 454.318 211.449 454.911 212.042C458.608 215.739 465.212 215.892 469.875 214.148C471.431 213.525 472.922 212.754 474.329 211.844C475.296 211.333 476.289 210.872 477.303 210.462C477.303 210.462 473.287 210.999 473.024 209.935C472.157 206.435 474.351 203.824 475.778 200.983C478.202 196.144 479.979 181.641 475.284 177.943C471.696 175.124 465.838 174.652 461.614 175.991C459.925 176.563 458.374 177.482 457.061 178.689C456.548 179.078 456.071 179.512 455.635 179.984Z" fill="#F6C7BD"/>
<g style="mix-blend-mode:multiply" opacity="0.4">
<path d="M466.178 200.696C463.808 196.516 464.039 182.594 464.324 175.463C463.387 175.569 462.462 175.76 461.559 176.033C459.87 176.606 458.319 177.525 457.006 178.732C456.513 179.12 456.054 179.55 455.635 180.016C454.702 181.486 453.309 182.825 452.552 184.339C452.245 184.964 453.188 186.73 453.353 187.399C453.638 188.497 449.853 192.731 448.898 193.214C448.229 193.543 451.093 195.167 450.95 195.65C450.017 198.447 449.271 204.295 450.95 207.016C452.047 208.892 455.646 206.5 456.063 206.917C456.135 208.422 456.084 209.93 455.909 211.426C455.909 211.481 454.318 211.481 454.911 212.073C456.432 213.52 458.335 214.502 460.396 214.904C458.246 205.765 469.414 206.401 466.178 200.696Z" fill="#F6C7BD"/>
</g>
<g style="mix-blend-mode:multiply" opacity="0.4">
<path d="M466.604 201.662C466.604 201.662 457.739 206.336 454.327 207.29C454.327 207.29 464.684 201.695 465.715 199.688L466.604 201.662Z" fill="#F6C7BD"/>
</g>
<path d="M457.826 170.883C456.949 171.26 456.171 171.834 455.552 172.561C454.934 173.288 454.492 174.148 454.26 175.074C452.241 182.117 461.841 179.155 462.181 182.161C462.198 183.983 461.916 185.795 461.347 187.526C461.347 187.745 460.404 189.72 460.601 189.797C462.225 190.609 464.31 185.902 464.31 193.275C464.31 195.195 462.302 201.744 464.123 203.555C464.255 203.686 464.88 203.643 465.045 203.643C467.875 203.643 470.607 204.476 473.383 204.476C473.449 204.476 473.953 204.531 473.986 204.476C477.277 199.55 486.164 187.296 485.33 181.437C484.014 172.232 469.631 172.408 463.004 172.408C461.625 172.551 460.231 172.443 458.89 172.09C458.122 171.793 458.923 170.51 457.826 170.883Z" fill="#2C4153"/>
<path d="M420 200.675C421.163 199.995 422.194 199.172 423.368 198.481C425.146 197.329 427.867 195.771 430.017 195.617C432.913 195.409 436.962 196.55 439.507 194.63C442.677 192.249 446.715 188.157 444.992 186.051C444.685 185.656 443.61 186.051 443.325 186.248C442.228 187.038 436.095 191.13 437.949 187.927C440.088 184.208 446.221 184.109 449.249 184.635C449.787 184.712 450.269 183.538 449.732 183.099C449.381 182.803 447.987 182.759 448.426 182.65C448.865 182.54 452.343 182.551 451.608 181.432C451.169 180.774 449.293 180.697 449.041 180.203C448.942 179.984 452.003 179.391 451.026 178.601C448.701 176.747 442.315 177.427 439.715 178.13C434.965 179.391 433.133 185.305 429.468 188.004C426.078 190.538 419.967 191.558 415.886 192.491C414.526 192.809 411.915 193.094 410.916 194.092C410.51 194.498 411.574 195.804 411.761 196.1C413.099 198.24 415.228 199.765 416.599 201.717C417.652 203.111 419.649 200.917 420 200.675Z" fill="#F6C7BD"/>
<g style="mix-blend-mode:multiply" opacity="0.4">
<path d="M439.748 178.041C434.997 179.303 433.165 185.217 429.501 187.915C426.111 190.45 420 191.47 415.918 192.403C414.558 192.721 411.947 193.006 410.949 194.004C410.543 194.41 411.607 195.716 411.793 196.012C412.124 196.514 412.491 196.99 412.89 197.438L413.593 196.769C413.593 196.769 429.413 190.658 431.333 190.472C433.253 190.285 435.162 184.032 435.162 184.032C435.162 184.032 441.942 176.451 449.106 180.082C449.106 180.082 449.194 179.972 449.369 179.907L451.234 178.645C451.197 178.582 451.148 178.527 451.092 178.48C448.733 176.659 442.403 177.339 439.748 178.041Z" fill="#F6C7BD"/>
</g>
<path d="M442.25 214.544C446.079 213.249 446.638 213.699 451.027 212.459C451.674 212.284 455.415 211.428 455.415 211.428C456.337 212.248 457.333 212.983 458.388 213.622C461.029 214.636 463.889 214.938 466.683 214.5C468.877 214.193 476.776 210.112 477.467 210.43C482.46 213.115 487.017 216.54 490.984 220.589C493.178 222.783 496.359 224.484 497.566 226.952C502.02 235.861 495.602 247.742 494.055 257.013C493.167 262.389 492.958 267.896 492.059 273.305C490.303 283.815 495.471 301.446 488.296 308.621C487.363 309.565 490.402 315.291 488.921 316.762C484.642 321.051 451.466 321.468 445.201 319.899C443.171 319.395 436.128 319.844 434.691 318.396C433.649 317.299 435.996 310.354 435.064 309.883C430.774 307.688 432.178 301.534 432.178 297.101C432.178 284.88 433.802 272.603 433.802 260.392C433.802 256.607 431.509 248.324 433.177 245.033C434.559 242.268 435.821 239.097 437.445 236.256C438.849 233.787 441.954 218.998 441.954 215.707C442.031 215.038 441.537 214.796 442.25 214.544Z" fill="#E7EEF7"/>
<g style="mix-blend-mode:multiply" opacity="0.6">
<path d="M444.245 301.226C444.552 297.112 448.798 258.263 448.798 258.263C448.798 258.263 454.536 225.789 451.738 222.322C448.941 218.855 451.058 212.448 451.058 212.448C446.67 213.688 446.077 213.238 442.281 214.533C441.568 214.785 442.062 215.026 442.062 215.63C442.062 218.921 438.957 233.71 437.553 236.179C435.929 239.009 434.667 242.18 433.285 244.956C431.617 248.247 433.91 256.574 433.91 260.315C433.91 272.526 432.287 284.803 432.287 297.024C432.287 301.413 430.882 307.655 435.172 309.806C436.105 310.277 433.757 317.277 434.799 318.319C436.236 319.767 443.28 319.318 445.309 319.822L448.831 312.91C448.831 312.91 443.949 305.351 444.245 301.226Z" fill="#E7EEF7"/>
</g>
<path d="M487.8 377.049C487.558 375.831 490.608 351.146 490.608 348.996C490.608 346.846 489.928 320.603 489.928 320.603L487.734 317.586C480.306 321.097 451.112 321.36 445.276 319.901C443.422 319.44 437.344 319.769 435.237 318.716L434.721 318.946L431.222 326.988L439.79 368.777V379.046C439.79 379.046 439.669 382.337 443.849 386.221L443.619 394.12C443.619 394.12 441.216 399.266 442.774 403.336L442.686 456.546C442.686 456.546 446.384 462.92 465.934 458.038L466.176 364.784L469.719 392.398L472.407 451.905C472.407 451.905 479.977 464.982 494.163 451.291L491.102 386.561C491.102 386.561 488.052 378.267 487.8 377.049Z" fill="#486985"/>
<path d="M411.618 194.388C411.3 193.511 416.424 200.686 417.422 202.693C418.728 205.304 409.38 204.986 413.648 207.554C414.482 208.047 433.1 211.35 435.832 211.942C438.092 212.392 442.414 213.5 443.369 215.924C446.298 223.253 441.591 242.672 433.802 245.788C433.078 246.084 434.021 252.458 433.078 247.982C432.771 246.512 431.695 241.399 430.982 240.16C429.315 237.241 424.158 234.74 421.185 233.423C412.529 229.572 394.756 222.518 393 211.964C391.695 204.152 396.401 202.979 400.823 198.557C401.92 197.46 401.108 195.88 403.653 194.783C404.608 194.377 409.238 191.02 410.39 192.172C410.872 192.589 412.617 197.109 411.618 194.388Z" fill="#D0DEEF"/>
<path d="M504.114 241.701C504.114 241.602 504.037 241.515 504.015 241.416C503.993 241.317 504.015 240.966 504.015 240.747C503.335 235.316 503.598 231.257 498.442 228.931C501.195 237.565 495.567 248.415 494.13 257.017C493.241 262.392 493.033 267.9 492.133 273.309C490.97 280.264 492.846 290.336 492.133 298.433C495.896 296.578 499.517 291.411 501.492 289.14C507.646 282.108 505.463 251.125 504.114 241.701Z" fill="#D0DEEF"/>
<g style="mix-blend-mode:multiply" opacity="0.4">
<path d="M492.167 298.433C495.93 296.578 499.55 291.411 501.525 289.14C501.75 288.881 501.955 288.606 502.139 288.317C501.251 283.687 500.099 277.774 499.199 273.956C497.531 266.891 500.691 230.324 500.691 230.324C500.03 229.758 499.291 229.288 498.497 228.931C501.251 237.565 495.622 248.415 494.185 257.017C493.297 262.392 493.088 267.9 492.189 273.309C490.971 280.264 492.869 290.336 492.167 298.433Z" fill="#D0DEEF"/>
</g>
<g style="mix-blend-mode:multiply" opacity="0.6">
<path d="M462.293 189.858C461.865 189.858 462.962 189.672 463.126 190.374C463.181 190.549 463.686 194.707 464.026 194.016C464.465 193.139 464.937 189.551 464.026 188.86C463.115 188.169 461.36 189.705 461.579 189.957C461.799 190.209 462.358 189.858 462.293 189.858Z" fill="#F6C7BD"/>
</g>
<g style="mix-blend-mode:multiply" opacity="0.4">
<path d="M434.721 318.945L431.222 326.987L439.79 368.776V379.045C439.79 379.045 439.669 382.336 443.849 386.22L443.619 394.119C443.619 394.119 441.216 399.265 442.774 403.335L442.686 456.545C442.686 456.545 444.354 459.408 451.343 459.836C455.424 442.392 451.101 410.872 450.597 404.981C450.059 398.771 450.597 381.941 450.597 381.941L452.33 355.611L460.427 353.79C460.769 353.714 461.077 353.527 461.303 353.259C461.528 352.99 461.658 352.655 461.673 352.304C461.688 351.954 461.587 351.608 461.386 351.321C461.184 351.034 460.893 350.822 460.558 350.718L455.161 348.995C450.597 346.625 450.07 341.765 450.421 336.642C451.057 327.239 445.276 319.944 445.276 319.944C443.422 319.483 437.344 319.812 435.237 318.759L434.721 318.945Z" fill="#486985"/>
</g>
<g style="mix-blend-mode:multiply" opacity="0.4">
<path d="M405.781 212.458C403.225 209.343 412.528 206.468 412.539 206.468C412.539 206.468 407.053 201.794 405.342 198.262C403.631 194.729 410.828 197.055 410.828 197.055L411.552 194.521C411.233 193.684 410.836 192.88 410.367 192.118C409.215 190.966 404.585 194.312 403.631 194.729C401.085 195.826 401.941 197.362 400.8 198.503C396.412 202.892 391.672 204.098 392.978 211.91C394.733 222.464 412.506 229.518 421.162 233.369C424.136 234.686 429.292 237.187 430.96 240.105C431.673 241.367 432.748 246.458 433.055 247.928C433.998 252.426 433.055 246.052 433.779 245.734C441.569 242.618 446.275 223.199 443.346 215.87C443.135 215.375 442.816 214.933 442.413 214.576C442.413 214.576 408.392 215.585 405.781 212.458Z" fill="#D0DEEF"/>
</g>
<g style="mix-blend-mode:multiply" opacity="0.4">
<path d="M463.005 172.395C461.625 172.538 460.231 172.43 458.89 172.076C458.122 171.758 458.89 170.475 457.793 170.848C456.916 171.225 456.138 171.799 455.52 172.526C454.901 173.253 454.459 174.113 454.228 175.039C452.209 182.082 461.809 179.12 462.149 182.126C462.165 183.948 461.883 185.76 461.315 187.491C461.315 187.71 460.371 189.685 460.569 189.762C462.193 190.574 464.277 185.867 464.277 193.24C464.277 195.16 462.269 201.709 464.091 203.52C464.222 203.651 464.848 203.607 465.012 203.607C465.506 203.607 469.17 204.057 469.653 204.09C470.037 203.278 468.556 203.454 467.459 198.22C466.307 192.735 462.675 180.864 469.093 172.449L463.005 172.395Z" fill="#2C4153"/>
</g>
<g style="mix-blend-mode:multiply" opacity="0.4">
<g style="mix-blend-mode:multiply" opacity="0.4">
<path d="M487.198 377.554C486.101 380.528 483.907 383.04 482.809 385.969C482.803 386.004 482.809 386.04 482.827 386.071C482.845 386.101 482.874 386.124 482.908 386.134C485.388 386.518 487.297 384.686 488.547 382.777C488.646 382.634 488.416 382.491 488.317 382.645C487.11 384.422 485.322 386.233 482.985 385.871L483.073 386.035C484.17 383.062 486.364 380.55 487.461 377.631C487.527 377.467 487.264 377.39 487.198 377.554Z" fill="#486985"/>
</g>
</g>
<g style="mix-blend-mode:multiply" opacity="0.4">
<g style="mix-blend-mode:multiply" opacity="0.4">
<path d="M444.983 387.202C446.497 386.434 447.858 385.403 449.372 384.635L449.185 384.449C447.365 388.002 445.771 391.666 444.413 395.42C444.347 395.584 444.621 395.661 444.676 395.497C446.03 391.744 447.616 388.08 449.427 384.525C449.44 384.498 449.444 384.468 449.438 384.438C449.433 384.408 449.418 384.381 449.396 384.36C449.374 384.339 449.346 384.326 449.316 384.322C449.286 384.319 449.256 384.324 449.229 384.339C447.726 385.107 446.355 386.127 444.841 386.895C444.687 386.972 444.841 387.213 444.983 387.137V387.202Z" fill="#486985"/>
</g>
</g>
<g style="mix-blend-mode:multiply" opacity="0.4">
<path d="M485.245 457.064L482.404 394.759L478.169 381.945L483.501 349.141C483.501 349.141 475.964 343.546 472.321 335.68C472.321 335.68 474.516 345.367 472.321 350.48L466.177 364.808L469.721 392.422L472.409 451.929C472.409 451.929 476.83 459.576 485.245 457.064Z" fill="#486985"/>
</g>
<path d="M286.427 216.463C281.852 216.583 277.54 218.207 273.053 219.436L272.833 219.622L274.688 219.194C273.88 219.32 273.098 219.576 272.373 219.951C270.617 221.279 265.231 225.316 261.731 227.401C259.555 228.585 257.629 230.18 256.059 232.096L253.075 257.681C253.075 257.681 248.5 288.049 250.88 290.89C253.261 293.732 265.307 294.182 265.307 294.182L262.455 314.061V319.744C262.455 319.744 270.914 325.811 284.814 327.578C298.045 329.256 315.204 319.689 316.849 318.801C316.202 314.039 313.624 310.024 311.989 305.131C311.21 302.794 309.29 294.851 311.276 292.865C316.586 292.284 322.565 287.105 322.565 287.105C323.868 285.65 324.9 283.975 325.615 282.157C326.559 279.36 321.545 273.139 321.545 273.139L318.462 263.452C318.462 263.452 317.365 240.961 317.497 237.768C317.476 235.661 316.913 233.594 315.862 231.767C316.29 229.573 314.096 227.28 314.096 227.28L301.819 220.313L301.556 219.655C298.747 218.35 294.863 218.031 291.967 217.209C290.169 216.677 288.301 216.426 286.427 216.463Z" fill="white"/>
<path d="M311.983 305.147C311.83 304.676 311.621 303.963 311.413 303.129C310.469 302.262 309.723 302.262 309.361 303.633C307.672 310.095 305.028 313.025 305.028 313.025L295.626 307.539L288.911 290.885L285.159 259.936L291.961 251.521C291.961 251.521 294.792 229.875 292.718 219.705C288.494 219.145 284.435 218.662 283.514 218.717C281.947 218.936 280.394 219.244 278.862 219.639C277.995 226.474 274.901 248.164 270.897 245.103C267.342 242.36 263.963 233.726 263.897 225.947C263.129 226.452 262.394 226.924 261.703 227.329C259.527 228.514 257.601 230.109 256.031 232.025L253.047 257.61C253.047 257.61 248.472 287.978 250.853 290.819C253.233 293.661 265.28 294.11 265.28 294.11L262.427 313.99V319.673C262.427 319.673 270.886 325.74 284.786 327.506C298.017 329.185 315.176 319.618 316.822 318.73C316.196 314.023 313.618 310.019 311.983 305.147Z" fill="#E5EFF9"/>
<path d="M300.188 180.816C300.89 182.659 305.191 188.638 304.357 190.349C302.942 193.257 303.523 193.048 304.62 195.133C305.542 196.888 305.037 204.228 304.313 207.113C303.809 209.154 300.528 208.145 299.53 209.143C298.532 210.141 300.068 213.531 299.003 214.628C298.937 214.683 294.209 212.182 293.606 211.995C292.223 211.579 287.846 212.083 286.968 211.205C286.474 210.701 286.968 208.276 286.88 207.519C286.705 204.228 285.783 200.937 286.354 197.645C287.336 192.618 289.983 188.069 293.869 184.732C295.129 183.568 296.53 182.566 298.038 181.748C298.521 181.43 300.188 180.805 300.188 180.816Z" fill="#F6C7BD"/>
<path d="M299.895 180.51C302.287 182.035 300.882 189.857 300.882 192.578C300.882 193.05 301.343 195.573 300.97 195.957C300.391 195.421 299.862 194.834 299.39 194.202C299.135 193.845 298.79 193.562 298.39 193.382C297.99 193.201 297.549 193.13 297.113 193.174C296.676 193.219 296.259 193.378 295.904 193.635C295.549 193.893 295.268 194.24 295.089 194.641C294.563 195.738 295.649 197.756 295.353 198.371C294.014 201.048 295.155 204.537 293.499 207.016C292.61 208.365 283.339 212.227 282.045 210.933C277.656 206.489 270.306 193.96 270.931 187.608C271.348 183.527 272.741 177.734 278.402 174.926C284.821 171.744 291.842 170.416 297.459 173.477C299.84 174.783 301.409 174.991 301.409 177.69C301.409 178.568 300.015 178.535 299.917 179.402C299.895 179.599 299.686 180.378 299.895 180.51Z" fill="#2C4153"/>
<path d="M253.232 292.261C253.682 297.933 257.313 306.073 259.716 309.913C260.648 311.405 261.416 313.117 262.393 314.576H262.448V314.027L265.3 294.17C265.3 294.17 257.511 293.884 253.232 292.261Z" fill="#F6C7BD"/>
<path d="M316.651 317.945C316.651 318.231 316.793 318.494 316.837 318.779C315.192 319.712 298.033 329.278 284.802 327.556C271.57 325.834 263.638 320.513 262.783 319.876C259.7 328.521 260.457 341.007 260.457 341.007L262.146 381.172C261.099 382.534 260.399 384.13 260.106 385.823C259.393 389.038 259.656 396.29 259.656 396.29C254.62 407.371 258.657 421.523 258.657 421.523C259.892 426.175 260.487 430.973 260.424 435.786C260.084 442.5 261.521 445.122 261.521 445.122L260.83 450.312C272.327 454.7 278.811 449.061 278.811 449.061C278.811 449.061 278.548 442.259 278.548 441.589C278.548 440.92 277.539 434.118 277.791 432.11C278.043 430.103 278.438 426.526 278.438 426.526V398.21C278.438 398.21 281.06 393.931 281.466 390.892C281.662 388.628 281.499 386.347 280.984 384.134C282.883 378.563 284.422 372.875 285.592 367.107C286.743 360.36 289.036 347.699 289.036 347.699C289.036 347.699 288.312 381.106 288.312 382.093C288.312 383.081 286.579 389.411 287.16 392.209C287.764 394.767 288.095 397.381 288.148 400.009C288.148 402.73 287.237 402.993 288.268 412.571C289.3 422.149 290.616 455.018 290.616 455.018C303.782 457.991 310.957 450.202 310.957 450.202L309.86 440.701C309.86 440.701 307.797 420.712 307.742 414.37C307.687 408.029 305.987 409.334 307.742 404.496C308.793 401.91 309.071 399.075 308.543 396.334L309.508 392.658L308.872 383.651L309.717 375.379C309.717 375.379 311.911 367.326 314.917 355.357C317.923 343.387 317.934 318.187 317.934 318.187L316.651 317.945Z" fill="#2C4153"/>
<g style="mix-blend-mode:multiply">
<g style="mix-blend-mode:multiply">
<path d="M254.362 284.183C257.916 285.96 262.809 289.482 266.924 289.482L265.08 286.827L254.362 284.183Z" fill="#E5EFF9"/>
</g>
<g style="mix-blend-mode:multiply">
<path d="M304.707 284.105C304.707 280.715 301.361 275.987 301.043 272.147C300.462 265.202 303.38 258.817 303.38 252.092L299.946 254.78C300.158 258.371 300.158 261.973 299.946 265.564C299.584 271.05 298.783 275.208 305.026 284.018C307.67 287.759 319.025 278.104 321.098 273.946" fill="#E5EFF9"/>
</g>
<g style="mix-blend-mode:multiply">
<path d="M304.707 284.105C304.707 280.715 301.361 275.987 301.043 272.147C300.462 265.202 303.38 258.817 303.38 252.092L299.946 254.78C300.158 258.371 300.158 261.973 299.946 265.564C299.584 271.05 298.783 275.208 305.026 284.018C307.67 287.759 319.025 278.104 321.098 273.946" fill="#E5EFF9"/>
</g>
<g style="mix-blend-mode:multiply">
<path d="M303.38 252.093C303.38 256.273 302.283 260.321 301.537 264.457C301.351 267.112 301.164 269.855 301.043 272.137C301.329 275.549 304.006 279.674 304.587 282.922C304.817 283.24 305.026 283.536 305.212 283.778L309.601 281.046C309.414 278.16 308.58 265.62 308.295 258.006C307.966 249.383 311.027 233.124 311.027 233.124C308.032 233.124 304.049 247.507 302.744 252.543L303.38 252.093Z" fill="#E5EFF9"/>
</g>
<g style="mix-blend-mode:multiply">
<path d="M312.322 282.601C309.853 284.235 307.462 285.234 305.981 284.729L306.09 284.861L303.644 285.651L306.935 293.155C309.129 294.691 316.809 291.52 316.809 291.52L312.289 282.601H312.322Z" fill="#E5EFF9"/>
</g>
</g>
<g style="mix-blend-mode:multiply">
<path d="M269.569 222.032C269.569 222.032 281.418 218.917 283.513 218.741C285.609 218.565 303.645 221.253 303.645 221.253L302.833 216.404L291.632 214.539H279.564C279.564 214.539 269.997 219.081 269.569 222.032Z" fill="#E5EFF9"/>
</g>
<g style="mix-blend-mode:multiply">
<path d="M269.569 222.032C269.569 222.032 281.418 218.917 283.513 218.741C285.609 218.565 303.645 221.253 303.645 221.253L302.833 216.404L291.632 214.539H279.564C279.564 214.539 269.997 219.081 269.569 222.032Z" fill="#E5EFF9"/>
</g>
<g style="mix-blend-mode:multiply">
<path d="M257.93 235.332C261.221 235.332 266.147 232.151 269.691 231.471C281.649 229.189 295.495 229.584 306.499 235.091" stroke="#E5EFF9" stroke-width="0.75" stroke-miterlimit="10"/>
</g>
<g style="mix-blend-mode:multiply">
<path d="M314.365 230.71C312.818 230.71 308.32 233.892 308.32 235.614" stroke="#E5EFF9" stroke-width="0.75" stroke-miterlimit="10"/>
</g>
<path d="M270.721 220.09C277.907 218.488 284.27 214.956 291.961 217.15C295.252 218.093 299.958 218.247 302.745 220.156C303.787 220.566 304.863 220.885 305.96 221.11C306.53 220.013 305.126 218.433 304.731 217.49C301.955 210.83 305.521 213.902 297.358 211.072C294.736 210.161 279.443 209.547 276.908 211.445C275.493 212.542 273.365 212.257 272.432 213.804C271.763 214.901 271.105 215.998 270.523 217.15C269.911 218.374 269.226 219.561 268.471 220.704C266.749 223.294 272.86 219.201 274.681 219.201" fill="white"/>
<g style="mix-blend-mode:multiply">
<path d="M257.643 256.389C257.654 257.501 257.809 258.607 258.104 259.68L257.643 256.389Z" fill="#E5EFF9"/>
</g>
<g style="mix-blend-mode:multiply">
<path d="M259.235 269.015C257.469 265.251 255.944 262.64 255.944 262.64L257.612 256.387L255.066 240.281L253.037 257.681C253.037 257.681 248.462 288.049 250.842 290.891C251.874 292.131 254.737 292.91 257.644 293.403L259.235 293.634C258.5 290.342 259.093 273.173 259.235 269.015Z" fill="#E5EFF9"/>
</g>
<g style="mix-blend-mode:multiply">
<path d="M265.084 289.488C264.908 289.488 265.018 287.865 265.007 287.689C264.656 283.531 264.382 279.362 264.063 275.204C263.548 268.413 257.667 263.136 257.667 256.389L256 262.642C256 262.642 265.599 279.472 265.084 289.488Z" fill="#E5EFF9"/>
</g>
<path d="M297.358 211.076C294.736 210.165 279.443 209.551 276.908 211.449C276.151 211.919 275.32 212.261 274.451 212.458C274.451 212.458 276.908 216.221 279.124 217.691L279.816 217.538C283.134 216.515 286.637 216.242 290.074 216.737L290.458 216.792H290.567C291.04 216.866 291.506 216.98 291.961 217.132L298.466 211.427L297.358 211.076Z" fill="#E5EFF9"/>
<g style="mix-blend-mode:multiply" opacity="0.4">
<path d="M259.354 293.643C257.271 293.393 255.22 292.93 253.232 292.261C253.682 297.933 257.313 306.073 259.716 309.913C260.648 311.405 261.416 313.117 262.393 314.576H262.448V314.027L263.49 306.743C261.607 302.552 260.218 298.155 259.354 293.643Z" fill="#F6C7BD"/>
</g>
<g style="mix-blend-mode:multiply" opacity="0.6">
<path d="M287.158 210.204C288.496 209.741 289.804 209.195 291.074 208.569C290.482 199.43 284.195 188.69 282.221 186.561C277.47 181.46 279.939 174.175 279.939 174.175C279.423 174.405 278.907 174.636 278.403 174.888C272.742 177.697 271.348 183.489 270.931 187.57C270.328 193.703 277.108 205.574 281.573 210.39C283.252 210.248 285.205 210.193 287.158 210.204Z" fill="#2C4153"/>
</g>
<g style="mix-blend-mode:multiply" opacity="0.4">
<path d="M283.516 339.147C282.342 336.569 281.98 331.358 281.947 327.145C275.143 326.066 268.627 323.622 262.792 319.959C259.709 328.604 260.466 341.089 260.466 341.089L262.155 381.254C261.108 382.617 260.408 384.213 260.115 385.906C259.402 389.121 259.665 396.373 259.665 396.373C254.629 407.453 258.667 421.606 258.667 421.606C259.901 426.258 260.496 431.056 260.433 435.868C260.093 442.583 261.53 445.205 261.53 445.205L260.839 450.394C272.337 454.783 278.821 449.144 278.821 449.144C278.821 449.144 278.821 448.771 278.821 448.189C278.645 444.042 277.723 427.267 274.498 417.086C270.746 405.402 275.321 388.561 277.153 378.885C278.985 369.208 288.815 349.175 288.837 349.131C288.837 349.131 285.513 343.536 283.516 339.147Z" fill="#2C4153"/>
</g>
<path d="M280.663 383.679C278.293 386.049 275.671 388.364 272.314 389.165L272.467 389.362C275.068 385.665 278.282 382.462 280.882 378.764C280.981 378.611 280.74 378.479 280.641 378.622C278.041 382.319 274.826 385.534 272.226 389.231C272.16 389.329 272.281 389.45 272.38 389.428C275.792 388.649 278.458 386.312 280.86 383.943C280.981 383.811 280.784 383.625 280.663 383.745V383.679Z" fill="black"/>
<path d="M262.033 381.333C262.691 381.826 263.35 382.298 263.975 382.825C264.597 383.344 265.156 383.933 265.643 384.58C265.752 384.712 265.994 384.58 265.884 384.437C265.383 383.772 264.809 383.165 264.173 382.627C263.536 382.09 262.845 381.596 262.176 381.102C262.033 380.993 261.901 381.234 262.033 381.333Z" fill="black"/>
<g style="mix-blend-mode:multiply" opacity="0.4">
<path d="M316.847 318.778C315.201 319.711 298.043 329.277 284.811 327.555C283.297 327.358 281.86 327.116 280.423 326.831C279.414 330.013 281.948 336.09 283.462 339.119C284.658 341.521 286.172 350.353 287.247 357.385C288.158 352.251 288.991 347.654 288.991 347.654C288.991 347.654 288.267 381.061 288.267 382.048C288.267 383.036 286.534 389.366 287.115 392.164C287.719 394.722 288.05 397.336 288.103 399.964C288.103 402.685 287.192 402.948 288.223 412.526C289.255 422.104 290.571 454.973 290.571 454.973C303.737 457.946 310.912 450.157 310.912 450.157V450.036L306.457 431.188L303.034 402.784L304.801 397.21L303.649 392.581V382.849C303.649 382.849 308.97 348.06 317.396 335.509C317.933 326.315 317.922 318.23 317.922 318.23L316.693 317.944C316.737 318.23 316.803 318.504 316.847 318.778Z" fill="#2C4153"/>
</g>
<path d="M322.289 289.838L322.563 287.084C322.497 287.084 316.573 292.251 311.307 292.844C310.838 296.946 311.071 301.097 311.998 305.12C314.105 311.462 317.835 316.311 316.836 323.245C316.562 325.23 313.753 336.948 315.739 337.935C318.745 339.427 317.034 328.642 319.393 331.001C322.355 333.952 315.772 343.497 317.604 344.726C321.181 347.107 327.38 338.604 327.38 335.774C327.358 319.789 322.289 306.547 322.289 289.838Z" fill="#F6C7BD"/>
<g style="mix-blend-mode:multiply" opacity="0.4">
<path d="M322.449 329.697C322.076 325.528 319.881 317.771 319.157 312.297C318.433 306.822 316.799 291.528 316.546 291.254L316.382 291.155C314.783 292.008 313.05 292.579 311.258 292.845C310.789 296.947 311.023 301.098 311.949 305.121C314.056 311.463 317.786 316.312 316.788 323.246C316.513 325.231 313.705 336.949 315.69 337.936C318.697 339.428 316.985 328.643 319.344 331.002C322.229 333.877 316.053 342.994 317.457 344.595C317.624 344.561 317.777 344.476 317.896 344.354C319.333 342.708 322.811 333.866 322.449 329.697Z" fill="#F6C7BD"/>
</g>
<path d="M304.163 396.852C302.296 398.539 300.175 399.92 297.876 400.944C297.756 400.944 297.811 401.152 297.876 401.196C299.394 401.669 300.986 401.855 302.572 401.745C302.602 401.736 302.628 401.718 302.647 401.693C302.665 401.669 302.675 401.638 302.675 401.607C302.675 401.576 302.665 401.546 302.647 401.522C302.628 401.497 302.602 401.479 302.572 401.47C301.012 401.579 299.446 401.397 297.953 400.933V401.185C300.268 400.149 302.405 398.753 304.284 397.049C304.31 397.024 304.325 396.99 304.326 396.954C304.327 396.918 304.314 396.883 304.289 396.857C304.264 396.831 304.23 396.816 304.194 396.815C304.158 396.813 304.123 396.827 304.097 396.852H304.163Z" fill="black"/>
<path d="M289.513 349.027C290.684 348.186 291.995 347.562 293.386 347.184C294.792 346.858 296.224 346.652 297.665 346.569V346.306C295.345 346.841 293.172 347.883 291.302 349.356C291.159 349.466 291.356 349.663 291.488 349.553C293.33 348.114 295.464 347.096 297.742 346.569C297.771 346.561 297.798 346.543 297.816 346.518C297.835 346.493 297.845 346.463 297.845 346.432C297.845 346.401 297.835 346.371 297.816 346.346C297.798 346.321 297.771 346.303 297.742 346.295C296.264 346.381 294.796 346.59 293.353 346.92C291.942 347.309 290.609 347.94 289.415 348.785C289.272 348.884 289.415 349.125 289.557 349.027H289.513Z" fill="black"/>
<path d="M260.828 346.301C262.606 348.594 264.416 350.964 267.192 352.094L267.268 351.831C266.522 351.578 265.809 351.26 265.074 351.008C264.899 351.008 264.833 351.216 264.997 351.271C265.743 351.523 266.457 351.842 267.192 352.094C267.367 352.149 267.422 351.896 267.268 351.831C264.548 350.733 262.759 348.353 261.015 346.104C260.905 345.961 260.719 346.104 260.828 346.301Z" fill="black"/>
<path d="M377.546 163.155H347.071C344.937 163.155 343.206 164.886 343.206 167.02V186.436C343.206 188.57 344.937 190.301 347.071 190.301H377.546C379.68 190.301 381.411 188.57 381.411 186.436V167.02C381.411 164.886 379.68 163.155 377.546 163.155Z" fill="#E9BB66"/>
<path d="M370.155 197.228L375.622 186.285H364.679L370.155 197.228Z" fill="#E9BB66"/>
<path d="M355.965 176.728C355.952 176.534 355.98 176.339 356.047 176.156C356.114 175.974 356.218 175.807 356.352 175.666C356.487 175.526 356.649 175.415 356.829 175.34C357.009 175.266 357.202 175.23 357.396 175.234C357.774 175.263 358.126 175.433 358.384 175.711C358.641 175.989 358.784 176.354 358.784 176.732C358.784 177.111 358.641 177.476 358.384 177.753C358.126 178.031 357.774 178.202 357.396 178.231C357.201 178.235 357.007 178.199 356.827 178.124C356.646 178.049 356.484 177.937 356.349 177.795C356.214 177.654 356.11 177.486 356.044 177.302C355.978 177.118 355.951 176.923 355.965 176.728Z" fill="white"/>
<path d="M360.895 176.728C360.912 176.453 361.01 176.188 361.177 175.967C361.343 175.746 361.57 175.579 361.831 175.486C362.091 175.394 362.373 175.379 362.641 175.445C362.91 175.51 363.153 175.653 363.341 175.856C363.529 176.059 363.654 176.312 363.7 176.584C363.745 176.857 363.71 177.137 363.598 177.39C363.486 177.643 363.303 177.857 363.07 178.007C362.838 178.156 362.567 178.234 362.29 178.232C362.098 178.231 361.908 178.191 361.732 178.113C361.556 178.036 361.397 177.924 361.267 177.783C361.136 177.642 361.035 177.475 360.971 177.294C360.907 177.113 360.881 176.92 360.895 176.728Z" fill="white"/>
<path d="M365.816 176.728C365.833 176.453 365.931 176.188 366.098 175.967C366.264 175.746 366.491 175.579 366.752 175.486C367.012 175.394 367.294 175.379 367.562 175.445C367.831 175.51 368.074 175.653 368.262 175.856C368.451 176.059 368.575 176.312 368.621 176.584C368.666 176.857 368.631 177.137 368.519 177.39C368.407 177.643 368.224 177.857 367.992 178.007C367.759 178.156 367.488 178.234 367.211 178.232C367.019 178.231 366.829 178.191 366.653 178.113C366.477 178.036 366.318 177.924 366.188 177.783C366.057 177.642 365.956 177.475 365.892 177.294C365.828 177.113 365.802 176.92 365.816 176.728Z" fill="white"/>
<path d="M490.28 134.524H459.806C457.671 134.524 455.94 136.255 455.94 138.39V157.805C455.94 159.94 457.671 161.67 459.806 161.67H490.28C492.414 161.67 494.145 159.94 494.145 157.805V138.39C494.145 136.255 492.414 134.524 490.28 134.524Z" fill="#E9BB66"/>
<path fill-rule="evenodd" clip-rule="evenodd" d="M474.73 154.655C471.024 154.655 468.019 151.651 468.019 147.945C468.019 144.239 471.024 141.234 474.73 141.234C478.436 141.234 481.44 144.239 481.44 147.945C481.44 151.651 478.436 154.655 474.73 154.655ZM474.73 153.984C478.065 153.984 480.769 151.28 480.769 147.945C480.769 144.609 478.065 141.905 474.73 141.905C471.394 141.905 468.69 144.609 468.69 147.945C468.69 151.28 471.394 153.984 474.73 153.984ZM477.848 145.621L478.322 146.095L473.914 150.504L471.137 147.727L471.612 147.253L473.914 149.555L477.848 145.621Z" fill="white"/>
<path d="M477.848 145.621L478.201 145.267C478.107 145.173 477.98 145.121 477.848 145.121C477.715 145.121 477.588 145.173 477.494 145.267L477.848 145.621ZM478.322 146.095L478.676 146.449C478.871 146.253 478.871 145.937 478.676 145.742L478.322 146.095ZM473.914 150.504L473.56 150.857C473.654 150.951 473.781 151.004 473.914 151.004C474.046 151.004 474.173 150.951 474.267 150.857L473.914 150.504ZM471.137 147.727L470.784 147.374C470.588 147.569 470.588 147.885 470.784 148.081L471.137 147.727ZM471.612 147.253L471.965 146.899C471.871 146.805 471.744 146.753 471.612 146.753C471.479 146.753 471.352 146.805 471.258 146.899L471.612 147.253ZM473.914 149.555L473.56 149.908C473.654 150.002 473.781 150.055 473.914 150.055C474.046 150.055 474.173 150.002 474.267 149.908L473.914 149.555ZM474.73 154.155C471.3 154.155 468.519 151.375 468.519 147.945H467.519C467.519 151.927 470.747 155.155 474.73 155.155V154.155ZM468.519 147.945C468.519 144.515 471.3 141.734 474.73 141.734V140.734C470.747 140.734 467.519 143.963 467.519 147.945H468.519ZM474.73 141.734C478.159 141.734 480.94 144.515 480.94 147.945H481.94C481.94 143.963 478.712 140.734 474.73 140.734V141.734ZM480.94 147.945C480.94 151.375 478.159 154.155 474.73 154.155V155.155C478.712 155.155 481.94 151.927 481.94 147.945H480.94ZM474.73 154.484C478.341 154.484 481.269 151.556 481.269 147.945H480.269C480.269 151.004 477.789 153.484 474.73 153.484V154.484ZM481.269 147.945C481.269 144.333 478.341 141.405 474.73 141.405V142.405C477.789 142.405 480.269 144.885 480.269 147.945H481.269ZM474.73 141.405C471.118 141.405 468.19 144.333 468.19 147.945H469.19C469.19 144.885 471.67 142.405 474.73 142.405V141.405ZM468.19 147.945C468.19 151.556 471.118 154.484 474.73 154.484V153.484C471.67 153.484 469.19 151.004 469.19 147.945H468.19ZM477.494 145.974L477.968 146.449L478.676 145.742L478.201 145.267L477.494 145.974ZM477.968 145.742L473.56 150.15L474.267 150.857L478.676 146.449L477.968 145.742ZM474.267 150.15L471.491 147.374L470.784 148.081L473.56 150.857L474.267 150.15ZM471.491 148.081L471.965 147.606L471.258 146.899L470.784 147.374L471.491 148.081ZM471.258 147.606L473.56 149.908L474.267 149.201L471.965 146.899L471.258 147.606ZM474.267 149.908L478.201 145.974L477.494 145.267L473.56 149.201L474.267 149.908Z" fill="white"/>
<path d="M466.775 168.596L472.251 157.645H461.309L466.775 168.596Z" fill="#E9BB66"/>
<path d="M601.147 187.312H569.719C567.517 187.312 565.732 189.097 565.732 191.299V211.322C565.732 213.523 567.517 215.308 569.719 215.308H601.147C603.348 215.308 605.133 213.523 605.133 211.322V191.299C605.133 189.097 603.348 187.312 601.147 187.312Z" fill="#E9BB66"/>
<path d="M556.149 201.479L567.434 207.126V195.832L556.149 201.479Z" fill="#E9BB66"/>
<mask id="path-149-outside-1" maskUnits="userSpaceOnUse" x="576.091" y="193.057" width="19" height="16" fill="black">
<rect fill="white" x="576.091" y="193.057" width="19" height="16"/>
<path fill-rule="evenodd" clip-rule="evenodd" d="M592.238 196.038L592.761 196.755L585.965 201.705L579.169 196.755L579.692 196.038L585.965 200.607L592.238 196.038ZM577.978 194.944V207.368H593.952V194.944H577.978ZM577.091 194.057H594.839V208.255H577.091V194.057Z"/>
</mask>
<path fill-rule="evenodd" clip-rule="evenodd" d="M592.238 196.038L592.761 196.755L585.965 201.705L579.169 196.755L579.692 196.038L585.965 200.607L592.238 196.038ZM577.978 194.944V207.368H593.952V194.944H577.978ZM577.091 194.057H594.839V208.255H577.091V194.057Z" fill="white"/>
<path d="M592.238 196.038L592.319 195.979L592.26 195.898L592.179 195.957L592.238 196.038ZM592.761 196.755L592.82 196.836L592.9 196.777L592.842 196.696L592.761 196.755ZM585.965 201.705L585.906 201.786L585.965 201.828L586.024 201.786L585.965 201.705ZM579.169 196.755L579.088 196.696L579.03 196.777L579.11 196.836L579.169 196.755ZM579.692 196.038L579.751 195.957L579.67 195.898L579.611 195.979L579.692 196.038ZM585.965 200.607L585.906 200.688L585.965 200.731L586.024 200.688L585.965 200.607ZM577.978 194.944V194.844H577.878V194.944H577.978ZM577.978 207.368H577.878V207.468H577.978V207.368ZM593.952 207.368V207.468H594.052V207.368H593.952ZM593.952 194.944H594.052V194.844H593.952V194.944ZM577.091 194.057V193.957H576.991V194.057H577.091ZM594.839 194.057H594.939V193.957H594.839V194.057ZM594.839 208.255V208.355H594.939V208.255H594.839ZM577.091 208.255H576.991V208.355H577.091V208.255ZM592.157 196.096L592.68 196.814L592.842 196.696L592.319 195.979L592.157 196.096ZM592.702 196.674L585.906 201.624L586.024 201.786L592.82 196.836L592.702 196.674ZM586.024 201.624L579.228 196.674L579.11 196.836L585.906 201.786L586.024 201.624ZM579.25 196.814L579.773 196.096L579.611 195.979L579.088 196.696L579.25 196.814ZM579.633 196.118L585.906 200.688L586.024 200.526L579.751 195.957L579.633 196.118ZM586.024 200.688L592.297 196.118L592.179 195.957L585.906 200.526L586.024 200.688ZM577.878 194.944V207.368H578.078V194.944H577.878ZM577.978 207.468H593.952V207.268H577.978V207.468ZM594.052 207.368V194.944H593.852V207.368H594.052ZM593.952 194.844H577.978V195.044H593.952V194.844ZM577.091 194.157H594.839V193.957H577.091V194.157ZM594.739 194.057V208.255H594.939V194.057H594.739ZM594.839 208.155H577.091V208.355H594.839V208.155ZM577.191 208.255V194.057H576.991V208.255H577.191Z" fill="white" mask="url(#path-149-outside-1)"/>
</g>
</svg>
