<svg width="80" height="80" viewBox="0 0 80 80" fill="none" xmlns="http://www.w3.org/2000/svg">
<line x1="40.75" y1="61.25" x2="40.75" y2="73.5" stroke="#313840" stroke-width="1.5"/>
<line x1="23" y1="74.5" x2="58.7" y2="74.5" stroke="#313840" stroke-width="1.5"/>
<path fill-rule="evenodd" clip-rule="evenodd" d="M50 14H9C7.34315 14 6 15.3431 6 17V58.25C6 59.9069 7.34314 61.25 9 61.25H71C72.6569 61.25 74 59.9069 74 58.25V38H72.5V58.25C72.5 59.0784 71.8284 59.75 71 59.75H9C8.17157 59.75 7.5 59.0784 7.5 58.25V17C7.5 16.1716 8.17157 15.5 9 15.5H50V14Z" fill="#313840"/>
<path fill-rule="evenodd" clip-rule="evenodd" d="M45 36.5V32.5C45 29.7386 42.7614 27.5 40 27.5C37.2386 27.5 35 29.7386 35 32.5V36.5H45ZM32.5 36.9013V32.5C32.5 28.3579 35.8579 25 40 25C44.1421 25 47.5 28.3579 47.5 32.5V36.9013C48.3967 37.4201 49 38.3896 49 39.5V49.5C49 51.1569 47.6569 52.5 46 52.5H34C32.3431 52.5 31 51.1569 31 49.5V39.5C31 38.3896 31.6033 37.4201 32.5 36.9013ZM34 39C33.7239 39 33.5 39.2239 33.5 39.5V49.5C33.5 49.7761 33.7239 50 34 50H46C46.2761 50 46.5 49.7761 46.5 49.5V39.5C46.5 39.2239 46.2761 39 46 39H34ZM40 42.5C39.4477 42.5 39 42.9477 39 43.5C39 44.0523 39.4477 44.5 40 44.5C40.5523 44.5 41 44.0523 41 43.5C41 42.9477 40.5523 42.5 40 42.5ZM41 46.3293C42.1652 45.9175 43 44.8062 43 43.5C43 41.8431 41.6569 40.5 40 40.5C38.3431 40.5 37 41.8431 37 43.5C37 44.8062 37.8348 45.9175 39 46.3293V48.5H41V46.3293Z" fill="url(#paint0_linear)"/>
<path d="M73.25 14.7018V26C73.25 31.1086 69.1086 35.25 64 35.25H62C56.8914 35.25 52.75 31.1086 52.75 26V14.7018C53.3542 14.6329 54.0641 14.4944 54.8084 14.3151C55.9062 14.0507 57.1338 13.6838 58.3111 13.2701C59.4866 12.8571 60.628 12.3919 61.5487 11.9274C62.0085 11.6955 62.4262 11.4573 62.7701 11.2189C62.8478 11.165 62.9249 11.109 63 11.0509C63.0751 11.109 63.1522 11.165 63.2299 11.2189C63.5738 11.4573 63.9915 11.6955 64.4513 11.9274C65.372 12.3919 66.5134 12.8571 67.6889 13.2701C68.8662 13.6838 70.0938 14.0507 71.1916 14.3151C71.9359 14.4944 72.6458 14.6329 73.25 14.7018Z" stroke="#313840" stroke-width="1.5"/>
<path d="M57.7502 24.9991L61.7502 27.9991L69.0002 17.9991" stroke="black" stroke-width="1.5"/>
<defs>
<linearGradient id="paint0_linear" x1="39.9916" y1="29.5623" x2="47.1082" y2="33.1242" gradientUnits="userSpaceOnUse">
<stop stop-color="#D55B17"/>
<stop offset="1" stop-color="#D99227"/>
</linearGradient>
</defs>
</svg>
