<svg width="80" height="80" viewBox="0 0 80 80" fill="none" xmlns="http://www.w3.org/2000/svg">
<rect x="6.75" y="13.75" width="66.5" height="45.75" rx="2.25" stroke="#313840" stroke-width="1.5"/>
<line x1="40.75" y1="60.2496" x2="40.75" y2="72.4996" stroke="#313840" stroke-width="1.5"/>
<line x1="23" y1="73.5" x2="58.7" y2="73.5" stroke="#313840" stroke-width="1.5"/>
<path fill-rule="evenodd" clip-rule="evenodd" d="M24 27.25C24 26.5596 24.5596 26 25.25 26H30.75C31.3205 26 31.8185 26.3862 31.9606 26.9387L32.6192 29.5H59.75C60.1634 29.5 60.5501 29.7044 60.7829 30.046C61.0157 30.3876 61.0646 30.8223 60.9134 31.2071L55.4134 45.2071C55.2255 45.6854 54.7639 46 54.25 46H35.25C34.6795 46 34.1815 45.6138 34.0394 45.0613L30.4464 31.0887C30.4415 31.0711 30.437 31.0535 30.4328 31.0357L29.7808 28.5H25.25C24.5596 28.5 24 27.9404 24 27.25ZM33.2621 32L34.5478 37H39.6496L39.0775 32H33.2621ZM41.5938 32L42.1659 37H48.4264L50.1441 32H41.5938ZM42.4519 39.5H47.5676L46.1935 43.5H42.9096L42.4519 39.5ZM50.211 39.5L48.8369 43.5H53.3981L54.9695 39.5H50.211ZM52.7875 32L51.0699 37H55.9516L57.9159 32H52.7875ZM39.9356 39.5H35.1907L36.2192 43.5H40.3933L39.9356 39.5ZM41.25 50.25C41.25 51.9069 39.9069 53.25 38.25 53.25C36.5931 53.25 35.25 51.9069 35.25 50.25C35.25 48.5931 36.5931 47.25 38.25 47.25C39.9069 47.25 41.25 48.5931 41.25 50.25ZM50.25 53.25C51.9069 53.25 53.25 51.9069 53.25 50.25C53.25 48.5931 51.9069 47.25 50.25 47.25C48.5931 47.25 47.25 48.5931 47.25 50.25C47.25 51.9069 48.5931 53.25 50.25 53.25ZM26 35C26.5523 35 27 34.5523 27 34C27 33.4477 26.5523 33 26 33L19 33C18.4477 33 18 33.4477 18 34C18 34.5523 18.4477 35 19 35L26 35ZM28 39C28 39.5523 27.5523 40 27 40L20 40C19.4477 40 19 39.5523 19 39C19 38.4477 19.4477 38 20 38L27 38C27.5523 38 28 38.4477 28 39ZM29 45C29.5523 45 30 44.5523 30 44C30 43.4477 29.5523 43 29 43H22C21.4477 43 21 43.4477 21 44C21 44.5523 21.4477 45 22 45H29Z" fill="url(#paint0_linear)"/>
<defs>
<linearGradient id="paint0_linear" x1="39.48" y1="30.5209" x2="48.1363" y2="40.9658" gradientUnits="userSpaceOnUse">
<stop stop-color="#D55B17"/>
<stop offset="1" stop-color="#D99227"/>
</linearGradient>
</defs>
</svg>
