<svg width="80" height="80" viewBox="0 0 80 80" fill="none" xmlns="http://www.w3.org/2000/svg">
<line x1="40.75" y1="61.25" x2="40.75" y2="73.5" stroke="#313840" stroke-width="1.5"/>
<line x1="23" y1="74.5004" x2="58.7" y2="74.5004" stroke="#313840" stroke-width="1.5"/>
<path fill-rule="evenodd" clip-rule="evenodd" d="M23 14H9C7.34315 14 6 15.3431 6 17V58.25C6 59.9069 7.34314 61.25 9 61.25H71C72.6569 61.25 74 59.9069 74 58.25V32H72.5V58.25C72.5 59.0784 71.8284 59.75 71 59.75H9C8.17157 59.75 7.5 59.0784 7.5 58.25V17C7.5 16.1716 8.17157 15.5 9 15.5H23V14ZM39 15.5H52.8226L54.4194 14H39V15.5Z" fill="#313840"/>
<path fill-rule="evenodd" clip-rule="evenodd" d="M32.5 10C32.5 10.8284 31.8284 11.5 31 11.5C30.1716 11.5 29.5 10.8284 29.5 10C29.5 9.17157 30.1716 8.5 31 8.5C31.8284 8.5 32.5 9.17157 32.5 10ZM33.6458 13C34.4762 12.2671 35 11.1947 35 10C35 7.79086 33.2091 6 31 6C28.7909 6 27 7.79086 27 10C27 11.1947 27.5238 12.2671 28.3542 13H28C26.3431 13 25 14.3431 25 16V25H37V16C37 14.3431 35.6569 13 34 13H33.6458ZM27.5 16C27.5 15.7239 27.7239 15.5 28 15.5H34C34.2761 15.5 34.5 15.7239 34.5 16V22.5H27.5V16ZM17 42.5C17.8284 42.5 18.5 41.8284 18.5 41C18.5 40.1716 17.8284 39.5 17 39.5C16.1716 39.5 15.5 40.1716 15.5 41C15.5 41.8284 16.1716 42.5 17 42.5ZM19.6458 44C20.4762 43.2671 21 42.1947 21 41C21 38.7909 19.2091 37 17 37C14.7909 37 13 38.7909 13 41C13 42.1947 13.5238 43.2671 14.3542 44H14C12.3431 44 11 45.3431 11 47V56H23V47C23 45.3431 21.6569 44 20 44H19.6458ZM13.5 47C13.5 46.7239 13.7239 46.5 14 46.5H20C20.2761 46.5 20.5 46.7239 20.5 47V53.5H13.5V47ZM46 42.5C46.8284 42.5 47.5 41.8284 47.5 41C47.5 40.1716 46.8284 39.5 46 39.5C45.1716 39.5 44.5 40.1716 44.5 41C44.5 41.8284 45.1716 42.5 46 42.5ZM48.6458 44C49.4762 43.2671 50 42.1947 50 41C50 38.7909 48.2091 37 46 37C43.7909 37 42 38.7909 42 41C42 42.1947 42.5238 43.2671 43.3542 44H43C41.3431 44 40 45.3431 40 47V56H52V47C52 45.3431 50.6569 44 49 44H48.6458ZM42.5 47C42.5 46.7239 42.7239 46.5 43 46.5H49C49.2761 46.5 49.5 46.7239 49.5 47V53.5H42.5V47ZM17.1163 35.1866C16.6281 34.6985 16.6281 33.907 17.1163 33.4189L23.1267 27.4084C23.6149 26.9203 24.4063 26.9203 24.8945 27.4084C25.3826 27.8966 25.3826 28.6881 24.8945 29.1762L18.8841 35.1866C18.3959 35.6748 17.6045 35.6748 17.1163 35.1866ZM42.3485 35.661C42.8367 36.1492 43.6282 36.1492 44.1163 35.661C44.6045 35.1729 44.6045 34.3814 44.1163 33.8933L38.1059 27.8829C37.6177 27.3947 36.8263 27.3947 36.3381 27.8829C35.85 28.371 35.85 29.1625 36.3381 29.6506L42.3485 35.661Z" fill="url(#paint0_linear)"/>
<path d="M52 20.5L58.5 14.5L62 18L72 9" stroke="black" stroke-width="1.5" stroke-linecap="round" stroke-linejoin="round"/>
<line x1="52.75" y1="25.75" x2="52.75" y2="29.25" stroke="#313840" stroke-width="1.5" stroke-linecap="round"/>
<line x1="57.75" y1="21.75" x2="57.75" y2="29.25" stroke="#313840" stroke-width="1.5" stroke-linecap="round"/>
<line x1="62.75" y1="22.75" x2="62.75" y2="29.25" stroke="#313840" stroke-width="1.5" stroke-linecap="round"/>
<line x1="67.75" y1="17.75" x2="67.75" y2="29.25" stroke="#313840" stroke-width="1.5" stroke-linecap="round"/>
<path d="M72.75 13.75L72.75 29.25L53 29.25" stroke="#313840" stroke-width="1.5" stroke-linecap="round" stroke-linejoin="round"/>
<defs>
<linearGradient id="paint0_linear" x1="31.4809" y1="14.2952" x2="46.0311" y2="23.4185" gradientUnits="userSpaceOnUse">
<stop stop-color="#D55B17"/>
<stop offset="1" stop-color="#D99227"/>
</linearGradient>
</defs>
</svg>
